<svg width="27" height="27" viewBox="0 0 27 27" fill="none" xmlns="http://www.w3.org/2000/svg">
<circle cx="13.5" cy="13.5" r="13.5" fill="#1771E6"/>
<path d="M21 13.5419C21 9.35196 17.6667 6 13.5 6C9.33333 6 6 9.35196 6 13.5419C6 17.3128 8.75 20.4134 12.3333 21V15.7207H10.4167V13.5419H12.3333V11.8659C12.3333 9.93855 13.4167 8.93296 15.1667 8.93296C16 8.93296 16.8333 9.10056 16.8333 9.10056V10.9441H15.9167C15 10.9441 14.6667 11.5307 14.6667 12.1173V13.5419H16.75L16.4167 15.7207H14.6667V21C18.25 20.4134 21 17.3128 21 13.5419Z" fill="white"/>
</svg>
