<svg width="30" height="14" viewBox="0 0 30 14" fill="none" xmlns="http://www.w3.org/2000/svg">
<g clip-path="url(#clip0_2131_9794)">
<path d="M23.1 0C20.5 0 18.2 1.5 17 3.7C16.4 3.2 15.8 3 15 3C14.2 3 13.6 3.3 13 3.7C11.8 1.5 9.6 0 6.9 0C3.1 0 0 3.1 0 6.9C0 10.7 3.1 13.8 6.9 13.8C10.7 13.8 13.8 10.7 13.8 6.9C13.8 6.6 13.8 6.4 13.8 6.1C13.8 5.5 14.3 5 15 5C15.7 5 16.2 5.5 16.2 6.2C16.2 6.4 16.2 6.7 16.2 7C16.2 10.8 19.3 13.9 23.1 13.9C26.9 13.9 30 10.8 30 7C30 3.1 26.9 0 23.1 0ZM6.9 11.8C4.2 11.8 2 9.6 2 6.9C2 4.2 4.2 2 6.9 2C9.6 2 11.8 4.2 11.8 6.9C11.8 9.6 9.6 11.8 6.9 11.8ZM23.1 11.8C20.4 11.8 18.2 9.6 18.2 6.9C18.2 4.2 20.4 2 23.1 2C25.8 2 28 4.2 28 6.9C28 9.6 25.8 11.8 23.1 11.8Z" fill="white"/>
</g>
<defs>
<clipPath id="clip0_2131_9794">
<rect width="30" height="13.8" fill="white"/>
</clipPath>
</defs>
</svg>
