<svg width="27" height="27" viewBox="0 0 27 27" fill="none" xmlns="http://www.w3.org/2000/svg">
<circle cx="13.5" cy="13.5" r="13.5" transform="rotate(-90 13.5 13.5)" fill="#1771E6"/>
<path d="M13.5082 13.5233C15.9172 13.5225 17.8686 11.6135 17.8678 9.26013C17.867 6.90605 15.9134 4.99924 13.505 5C11.0967 5.00076 9.1446 6.90985 9.14538 9.26317C9.14848 11.6157 11.1006 13.5218 13.5082 13.5233ZM13.5082 7.49837C14.506 7.49837 15.315 8.28888 15.315 9.26393C15.315 10.239 14.506 11.0287 13.5082 11.0287C12.5103 11.0287 11.7013 10.2382 11.7013 9.26317C11.7029 8.28888 12.5111 7.49913 13.5082 7.49837ZM15.2714 17.0005C16.169 16.8016 17.0254 16.4545 17.8049 15.9754C18.3986 15.601 18.5696 14.8279 18.1864 14.2478C17.8095 13.6767 17.034 13.5043 16.4418 13.8605C14.6459 14.9578 12.3658 14.9578 10.5698 13.8605C9.97379 13.4952 9.18656 13.6699 8.81121 14.2516C8.43431 14.834 8.61149 15.6055 9.20832 15.9738C9.2091 15.9738 9.20988 15.9746 9.20988 15.9746C9.98856 16.453 10.8449 16.8 11.7417 16.9998L9.30313 19.3827C8.81743 19.8839 8.83997 20.6752 9.35365 21.1498C9.84712 21.6054 10.618 21.6054 11.1115 21.1498L13.5066 18.8078L15.9032 21.1498C16.4022 21.6365 17.2096 21.6365 17.7085 21.1498C18.2066 20.6623 18.2066 19.8733 17.7085 19.3857L15.2714 17.0005Z" fill="white"/>
</svg>
