<svg display="none" xmlns="http://www.w3.org/2000/svg">
	<defs>
		<symbol id="vk">
			<circle cx="13.5" cy="13.5" r="13.5" fill="#1771E6"/>
			<path fill-rule="evenodd" clip-rule="evenodd" d="M13.3151 18.9124H14.2977C14.2977 18.9124 14.5434 18.9124 14.7071 18.7503C14.8709 18.5883 14.8709 18.3452 14.8709 18.3452C14.8709 18.3452 14.8709 17.0489 15.444 16.8868C16.0172 16.7248 16.7542 18.1021 17.573 18.6693C18.1461 19.0744 18.6374 18.9934 18.6374 18.9934H20.7663C20.7663 18.9934 21.9127 18.9124 21.3395 18.1021C21.2576 18.0211 21.012 17.454 19.7838 16.3197C18.4737 15.1044 18.6374 15.2664 20.1932 13.1598C21.1758 11.8635 21.5852 11.0533 21.4214 10.7292C21.3395 10.4051 20.6026 10.4861 20.6026 10.4861H18.228C18.228 10.4861 18.0643 10.4861 17.9005 10.5672C17.7367 10.6482 17.6548 10.8102 17.6548 10.8102C17.6548 10.8102 17.2454 11.7825 16.7542 12.6737C15.6897 14.4562 15.2803 14.5372 15.1165 14.4562C14.7071 14.2131 14.789 13.4029 14.789 12.8358C14.789 11.1343 15.0346 10.4051 14.2977 10.162C13.9702 10.081 13.8064 10 13.1514 10C12.3326 10 11.5956 10 11.1862 10.162C10.9406 10.3241 10.6949 10.6482 10.8587 10.6482C11.0224 10.6482 11.35 10.7292 11.5956 10.9723C11.8413 11.2963 11.8413 12.0255 11.8413 12.0255C11.8413 12.0255 12.005 14.0511 11.5137 14.2941C11.1043 14.5372 10.6949 14.1321 9.71235 12.5117C9.22106 11.7015 8.89353 10.7292 8.89353 10.7292C8.89353 10.7292 8.81165 10.6482 8.64789 10.5672C8.56601 10.4051 8.32036 10.4051 8.32036 10.4051H6.02768C6.02768 10.4051 5.70015 10.4051 5.53639 10.5672C5.45451 10.7292 5.53639 10.9723 5.53639 10.9723C5.53639 10.9723 7.33778 15.1044 9.30294 17.1299C11.1862 18.9934 13.3151 18.9124 13.3151 18.9124Z" fill="white"/>
		</symbol>
		<symbol id="ok">
			<circle cx="13.5" cy="13.5" r="13.5" transform="rotate(-90 13.5 13.5)" fill="#1771E6"/>
			<path d="M13.5082 13.5233C15.9172 13.5225 17.8686 11.6135 17.8678 9.26013C17.867 6.90605 15.9134 4.99924 13.505 5C11.0967 5.00076 9.1446 6.90985 9.14538 9.26317C9.14848 11.6157 11.1006 13.5218 13.5082 13.5233ZM13.5082 7.49837C14.506 7.49837 15.315 8.28888 15.315 9.26393C15.315 10.239 14.506 11.0287 13.5082 11.0287C12.5103 11.0287 11.7013 10.2382 11.7013 9.26317C11.7029 8.28888 12.5111 7.49913 13.5082 7.49837ZM15.2714 17.0005C16.169 16.8016 17.0254 16.4545 17.8049 15.9754C18.3986 15.601 18.5696 14.8279 18.1864 14.2478C17.8095 13.6767 17.034 13.5043 16.4418 13.8605C14.6459 14.9578 12.3658 14.9578 10.5698 13.8605C9.97379 13.4952 9.18656 13.6699 8.81121 14.2516C8.43431 14.834 8.61149 15.6055 9.20832 15.9738C9.2091 15.9738 9.20988 15.9746 9.20988 15.9746C9.98856 16.453 10.8449 16.8 11.7417 16.9998L9.30313 19.3827C8.81743 19.8839 8.83997 20.6752 9.35365 21.1498C9.84712 21.6054 10.618 21.6054 11.1115 21.1498L13.5066 18.8078L15.9032 21.1498C16.4022 21.6365 17.2096 21.6365 17.7085 21.1498C18.2066 20.6623 18.2066 19.8733 17.7085 19.3857L15.2714 17.0005Z" fill="white"/>
		</symbol>
		<symbol id="tg">
			<circle cx="13.5" cy="13.5" r="13.5" transform="rotate(-90 13.5 13.5)" fill="#1771E6"/>
			<path d="M5.93407 13.2217L14.884 9.64215C15.8041 9.23538 18.7317 8.09642 18.7317 8.09642C18.7317 8.09642 20.1536 7.6083 19.9863 8.82861C19.9863 9.31673 19.6517 11.1879 19.3172 13.1404L18.3134 18.9979C18.3134 18.9979 18.2298 19.8927 17.5606 19.9741C16.8915 20.1368 15.8041 19.486 15.6368 19.3233C15.4695 19.2419 12.7093 17.5335 11.7892 16.7199C11.5382 16.4759 11.2037 16.0691 11.7892 15.4996C13.2111 14.2793 14.8004 12.7336 15.8041 11.7573C16.306 11.2692 16.7242 10.293 14.8004 11.5133L9.53078 15.0929C9.53078 15.0929 8.94527 15.4996 7.77425 15.0929C6.60322 14.6861 5.26492 14.2793 5.26492 14.2793C5.26492 14.2793 4.34483 13.7912 5.93407 13.2217Z" fill="white"/>
		</symbol>
		<symbol id="fb">
			<circle cx="13.5" cy="13.5" r="13.5" fill="#1771E6"/>
			<path d="M21 13.5419C21 9.35196 17.6667 6 13.5 6C9.33333 6 6 9.35196 6 13.5419C6 17.3128 8.75 20.4134 12.3333 21V15.7207H10.4167V13.5419H12.3333V11.8659C12.3333 9.93855 13.4167 8.93296 15.1667 8.93296C16 8.93296 16.8333 9.10056 16.8333 9.10056V10.9441H15.9167C15 10.9441 14.6667 11.5307 14.6667 12.1173V13.5419H16.75L16.4167 15.7207H14.6667V21C18.25 20.4134 21 17.3128 21 13.5419Z" fill="white"/>
		</symbol>
		<symbol id="phone">
			<path xmlns="http://www.w3.org/2000/svg"  stroke-linecap="round" stroke-linejoin="round" stroke-width="2" d="M18.3351 14.1V16.6C18.3361 16.8321 18.2886 17.0618 18.1956 17.2745C18.1026 17.4871 17.9662 17.678 17.7952 17.8349C17.6242 17.9918 17.4223 18.1113 17.2024 18.1856C16.9826 18.26 16.7496 18.2876 16.5185 18.2667C13.9542 17.9881 11.491 17.1118 9.32682 15.7084C7.31334 14.4289 5.60626 12.7218 4.32682 10.7084C2.91846 8.53438 2.04202 6.0592 1.76848 3.48337C1.74766 3.25293 1.77505 3.02067 1.8489 2.80139C1.92275 2.58211 2.04146 2.38061 2.19745 2.20972C2.35345 2.03883 2.54332 1.9023 2.75498 1.80881C2.96663 1.71532 3.19543 1.66692 3.42682 1.66671H5.92682C6.33124 1.66273 6.72331 1.80594 7.02995 2.06965C7.33659 2.33336 7.53688 2.69958 7.59348 3.10004C7.699 3.9001 7.89469 4.68565 8.17682 5.44171C8.28894 5.73998 8.3132 6.06414 8.24674 6.37577C8.18028 6.68741 8.02587 6.97347 7.80182 7.20004L6.74348 8.25837C7.92978 10.3447 9.65719 12.0721 11.7435 13.2584L12.8018 12.2C13.0284 11.976 13.3144 11.8216 13.6261 11.7551C13.9377 11.6887 14.2619 11.7129 14.5601 11.825C15.3162 12.1072 16.1018 12.3029 16.9018 12.4084C17.3066 12.4655 17.6763 12.6694 17.9406 12.9813C18.2049 13.2932 18.3453 13.6914 18.3351 14.1Z"/>
		</symbol>
		<symbol id="globe" >
			<path xmlns="http://www.w3.org/2000/svg"  stroke-linecap="round" stroke-linejoin="round" stroke-width="2" d="M10 18.5C14.6944 18.5 18.5 14.6944 18.5 10C18.5 5.30558 14.6944 1.5 10 1.5C5.30558 1.5 1.5 5.30558 1.5 10C1.5 14.6944 5.30558 18.5 10 18.5Z"/><path xmlns="http://www.w3.org/2000/svg" stroke="white" stroke-linecap="round" stroke-linejoin="round" stroke-width="2" d="M2.5 10H17.5"/><path xmlns="http://www.w3.org/2000/svg" stroke="white" stroke-linecap="round" stroke-linejoin="round" stroke-width="2" d="M10 2.5C11.876 4.55376 12.9421 7.21903 13 10C12.9421 12.781 11.876 15.4462 10 17.5C8.12404 15.4462 7.05794 12.781 7 10C7.05794 7.21903 8.12404 4.55376 10 2.5V2.5Z"/>
		</symbol>
		<symbol id="alertcircle" >
			<path d="M10 19C14.9706 19 19 14.9706 19 10C19 5.02944 14.9706 1 10 1C5.02944 1 1 5.02944 1 10C1 14.9706 5.02944 19 10 19Z" stroke="white" stroke-width="2" stroke-linecap="round" stroke-linejoin="round"/>
			<path d="M10 6.66663V9.99996" stroke-width="2" stroke-linecap="round" stroke-linejoin="round"/>
			<path d="M10 13.3334H10.0088" stroke-width="2" stroke-linecap="round" stroke-linejoin="round"/>
		</symbol>		
		<symbol id="search" >
			<path d="M10.5417 18.2083C14.7759 18.2083 18.2083 14.7759 18.2083 10.5417C18.2083 6.30748 14.7759 2.875 10.5417 2.875C6.30748 2.875 2.875 6.30748 2.875 10.5417C2.875 14.7759 6.30748 18.2083 10.5417 18.2083Z" stroke="white" stroke-width="2" stroke-linecap="round" stroke-linejoin="round"/>
			<path d="M20.1258 20.125L15.957 15.9563" stroke-width="2" stroke-linecap="round" stroke-linejoin="round"/>
		</symbol>
		<symbol id="extlink">
			<path xmlns="http://www.w3.org/2000/svg" stroke-linecap="round" stroke-linejoin="round" stroke-width="2" d="M18 13V19C18 19.5304 17.7893 20.0391 17.4142 20.4142C17.0391 20.7893 16.5304 21 16 21H5C4.46957 21 3.96086 20.7893 3.58579 20.4142C3.21071 20.0391 3 19.5304 3 19V8C3 7.46957 3.21071 6.96086 3.58579 6.58579C3.96086 6.21071 4.46957 6 5 6H11"/>
			<path xmlns="http://www.w3.org/2000/svg" stroke-linecap="round" stroke-linejoin="round" stroke-width="2" d="M15 3H21V9"/>
			<path xmlns="http://www.w3.org/2000/svg" stroke-linecap="round" stroke-linejoin="round" stroke-width="2" d="M10 14L21 3"/>
		</symbol>
		<symbol id="glases" >
			<g clip-path="url(#clip0_2131_9794)">
			<path d="M23.1 0C20.5 0 18.2 1.5 17 3.7C16.4 3.2 15.8 3 15 3C14.2 3 13.6 3.3 13 3.7C11.8 1.5 9.6 0 6.9 0C3.1 0 0 3.1 0 6.9C0 10.7 3.1 13.8 6.9 13.8C10.7 13.8 13.8 10.7 13.8 6.9C13.8 6.6 13.8 6.4 13.8 6.1C13.8 5.5 14.3 5 15 5C15.7 5 16.2 5.5 16.2 6.2C16.2 6.4 16.2 6.7 16.2 7C16.2 10.8 19.3 13.9 23.1 13.9C26.9 13.9 30 10.8 30 7C30 3.1 26.9 0 23.1 0ZM6.9 11.8C4.2 11.8 2 9.6 2 6.9C2 4.2 4.2 2 6.9 2C9.6 2 11.8 4.2 11.8 6.9C11.8 9.6 9.6 11.8 6.9 11.8ZM23.1 11.8C20.4 11.8 18.2 9.6 18.2 6.9C18.2 4.2 20.4 2 23.1 2C25.8 2 28 4.2 28 6.9C28 9.6 25.8 11.8 23.1 11.8Z" fill="white"/>
			</g>
			<defs>
			<clipPath id="clip0_2131_9794">
			<rect width="30" height="13.8" fill="white"/>
			</clipPath>
		</symbol>
	</defs>
</svg>