<svg width="27" height="27" viewBox="0 0 27 27" fill="none" xmlns="http://www.w3.org/2000/svg">
<circle cx="13.5" cy="13.5" r="13.5" transform="rotate(-90 13.5 13.5)" fill="#1771E6"/>
<path d="M5.93407 13.2217L14.884 9.64215C15.8041 9.23538 18.7317 8.09642 18.7317 8.09642C18.7317 8.09642 20.1536 7.6083 19.9863 8.82861C19.9863 9.31673 19.6517 11.1879 19.3172 13.1404L18.3134 18.9979C18.3134 18.9979 18.2298 19.8927 17.5606 19.9741C16.8915 20.1368 15.8041 19.486 15.6368 19.3233C15.4695 19.2419 12.7093 17.5335 11.7892 16.7199C11.5382 16.4759 11.2037 16.0691 11.7892 15.4996C13.2111 14.2793 14.8004 12.7336 15.8041 11.7573C16.306 11.2692 16.7242 10.293 14.8004 11.5133L9.53078 15.0929C9.53078 15.0929 8.94527 15.4996 7.77425 15.0929C6.60322 14.6861 5.26492 14.2793 5.26492 14.2793C5.26492 14.2793 4.34483 13.7912 5.93407 13.2217Z" fill="white"/>
</svg>
