<svg width="27" height="27" viewBox="0 0 27 27" fill="none" xmlns="http://www.w3.org/2000/svg">
<circle cx="13.5" cy="13.5" r="13.5" fill="#1771E6"/>
<path fill-rule="evenodd" clip-rule="evenodd" d="M13.3151 18.9124H14.2977C14.2977 18.9124 14.5434 18.9124 14.7071 18.7503C14.8709 18.5883 14.8709 18.3452 14.8709 18.3452C14.8709 18.3452 14.8709 17.0489 15.444 16.8868C16.0172 16.7248 16.7542 18.1021 17.573 18.6693C18.1461 19.0744 18.6374 18.9934 18.6374 18.9934H20.7663C20.7663 18.9934 21.9127 18.9124 21.3395 18.1021C21.2576 18.0211 21.012 17.454 19.7838 16.3197C18.4737 15.1044 18.6374 15.2664 20.1932 13.1598C21.1758 11.8635 21.5852 11.0533 21.4214 10.7292C21.3395 10.4051 20.6026 10.4861 20.6026 10.4861H18.228C18.228 10.4861 18.0643 10.4861 17.9005 10.5672C17.7367 10.6482 17.6548 10.8102 17.6548 10.8102C17.6548 10.8102 17.2454 11.7825 16.7542 12.6737C15.6897 14.4562 15.2803 14.5372 15.1165 14.4562C14.7071 14.2131 14.789 13.4029 14.789 12.8358C14.789 11.1343 15.0346 10.4051 14.2977 10.162C13.9702 10.081 13.8064 10 13.1514 10C12.3326 10 11.5956 10 11.1862 10.162C10.9406 10.3241 10.6949 10.6482 10.8587 10.6482C11.0224 10.6482 11.35 10.7292 11.5956 10.9723C11.8413 11.2963 11.8413 12.0255 11.8413 12.0255C11.8413 12.0255 12.005 14.0511 11.5137 14.2941C11.1043 14.5372 10.6949 14.1321 9.71235 12.5117C9.22106 11.7015 8.89353 10.7292 8.89353 10.7292C8.89353 10.7292 8.81165 10.6482 8.64789 10.5672C8.56601 10.4051 8.32036 10.4051 8.32036 10.4051H6.02768C6.02768 10.4051 5.70015 10.4051 5.53639 10.5672C5.45451 10.7292 5.53639 10.9723 5.53639 10.9723C5.53639 10.9723 7.33778 15.1044 9.30294 17.1299C11.1862 18.9934 13.3151 18.9124 13.3151 18.9124Z" fill="white"/>
</svg>
