<svg width="197" height="358" viewBox="0 0 197 358" fill="none" xmlns="http://www.w3.org/2000/svg">
<ellipse cx="71" cy="346.402" rx="71" ry="8.5" fill="#E8F1FB"/>
<path d="M111.613 311.538L120.329 336.69L132.481 336.092L123.815 308.251L111.613 311.538Z" fill="white"/>
<path d="M120.333 337.436C120.034 337.436 119.735 337.237 119.635 336.938L110.919 311.786C110.87 311.587 110.87 311.388 110.969 311.189C111.069 310.99 111.218 310.89 111.417 310.84L123.62 307.553C124.018 307.453 124.417 307.653 124.516 308.051L133.232 335.842C133.282 336.041 133.282 336.29 133.132 336.49C132.983 336.689 132.784 336.788 132.535 336.788L120.333 337.436ZM112.563 312.035L120.831 335.892L131.489 335.344L123.321 309.147L112.563 312.035Z" fill="black"/>
<path d="M116.256 349.291C116.256 349.291 114.762 336.989 118.995 331.361L128.458 334.449V332.607C128.458 332.009 128.906 331.511 129.504 331.511L134.783 331.212C136.726 331.112 138.718 331.461 140.511 332.308C146.836 335.147 161.329 342.418 160.881 349.441C160.881 349.391 149.426 351.981 116.256 349.291Z" fill="#FFDD2D"/>
<path d="M143.101 351.282C136.427 351.282 127.612 350.984 116.206 350.087C115.858 350.037 115.559 349.788 115.509 349.44C115.459 348.942 114.015 336.739 118.398 330.962C118.597 330.713 118.946 330.613 119.245 330.713L127.711 333.452V332.655C127.711 331.659 128.508 330.862 129.455 330.813L134.734 330.514C136.826 330.414 138.917 330.813 140.81 331.659C148.779 335.245 162.126 342.318 161.628 349.489C161.628 349.838 161.379 350.087 161.031 350.187C160.732 350.187 155.702 351.282 143.101 351.282ZM116.954 348.593C145.093 350.834 157.445 349.191 160.134 348.742C159.686 342.168 144.844 334.996 140.212 332.954C138.519 332.207 136.676 331.858 134.833 331.958L129.554 332.257C129.355 332.257 129.205 332.406 129.205 332.606V334.448C129.205 334.697 129.106 334.897 128.907 335.046C128.707 335.195 128.458 335.245 128.259 335.146L119.344 332.257C116.157 337.038 116.705 346.202 116.954 348.593Z" fill="black"/>
<path d="M132.344 347.497C127.862 347.497 123.081 347.298 118.2 346.8C117.801 346.75 117.503 346.402 117.552 346.003C117.602 345.605 117.951 345.306 118.349 345.356C138.47 347.497 156.898 344.161 157.048 344.111C157.446 344.011 157.844 344.31 157.894 344.708C157.994 345.107 157.695 345.505 157.297 345.555C157.197 345.505 146.439 347.497 132.344 347.497Z" fill="black"/>
<path d="M143.608 340.974C143.459 340.974 143.309 340.924 143.21 340.875L134.095 334.898C133.747 334.649 133.647 334.201 133.896 333.852C134.145 333.503 134.593 333.404 134.942 333.653L144.056 339.629C144.405 339.878 144.505 340.327 144.255 340.675C144.106 340.875 143.857 340.974 143.608 340.974Z" fill="black"/>
<path d="M61.2227 314.725L58.1846 336.091H51.6104L51.2617 315.074L61.2227 314.725Z" fill="white"/>
<path d="M58.1934 336.839H51.6191C51.2207 336.839 50.8721 336.49 50.8721 336.092L50.5234 315.124C50.5234 314.725 50.8223 314.377 51.2207 314.377L61.2315 314.028C61.4307 314.028 61.6797 314.128 61.8291 314.277C61.9785 314.427 62.0284 314.676 62.0284 314.875L58.9903 336.241C58.8907 336.54 58.542 336.839 58.1934 336.839ZM52.3662 335.345H57.5459L60.3848 315.522L52.0176 315.821L52.3662 335.345Z" fill="black"/>
<path d="M58.4411 356.463C55.3034 356.812 50.1237 357.011 44.1471 355.965C42.1549 355.616 40.9098 353.674 41.4577 351.731C42.9518 346.353 46.1891 336.242 50.2731 331.61L51.1696 334.2L52.614 331.809C52.8132 331.461 53.1618 331.262 53.5105 331.212L56.4987 330.913C57.0964 330.863 57.6941 331.262 57.7937 331.909L58.1921 334.15L59.3376 331.262L61.4294 352.678C61.6286 354.62 60.2839 356.264 58.4411 356.463Z" fill="#FFDD2D"/>
<path d="M53.0631 357.508C50.4235 357.508 47.3356 357.309 43.9986 356.761C42.8531 356.562 41.857 355.865 41.2096 354.918C40.6119 353.922 40.4127 352.727 40.7115 351.631C42.3053 346.003 45.5426 335.893 49.7262 331.211C49.9254 331.012 50.1744 330.913 50.4235 330.962C50.6725 331.012 50.9215 331.211 50.9713 331.46L51.32 332.556L51.9176 331.56C52.2164 331.012 52.7643 330.664 53.4118 330.614L56.4 330.315C57.2965 330.215 58.0934 330.763 58.3922 331.56L58.5915 331.112C58.7409 330.813 59.0397 330.614 59.3883 330.664C59.737 330.713 59.986 330.962 60.0358 331.311L62.1276 352.727C62.3268 354.968 60.7331 356.96 58.4919 357.209C57.0475 357.359 55.2047 357.508 53.0631 357.508ZM50.025 333.204C46.4391 338.035 43.6002 346.9 42.1559 351.98C41.9566 352.677 42.0562 353.424 42.4547 354.072C42.8531 354.719 43.5006 355.118 44.2477 355.267C50.1246 356.263 55.1549 356.064 58.3424 355.715C59.737 355.566 60.7829 354.271 60.6335 352.876L58.8405 334.548C58.6911 334.847 58.3922 335.046 58.0934 334.997C57.7448 334.947 57.4958 334.698 57.4459 334.399L57.0475 332.158C56.9977 331.909 56.7985 331.759 56.5495 331.809L53.5612 332.108C53.4118 332.108 53.3121 332.207 53.2125 332.307L51.7682 334.698C51.6188 334.947 51.32 335.096 51.0709 335.046C50.7721 334.997 50.5231 334.797 50.4235 334.548L50.025 333.204Z" fill="black"/>
<path d="M50.9692 353.873C48.6284 353.873 46.0386 353.624 43.4487 352.977C43.0503 352.877 42.8013 352.479 42.9009 352.08C43.0005 351.682 43.3989 351.433 43.7974 351.532C51.019 353.425 58.7388 351.532 58.8384 351.532C59.2368 351.433 59.6353 351.682 59.7349 352.08C59.8345 352.479 59.5855 352.877 59.187 352.977C58.9878 353.027 55.5015 353.873 50.9692 353.873Z" fill="black"/>
<path d="M111.483 174.326C111.483 174.326 121.593 239.471 121.992 255.06C122.39 270.599 126.175 310.094 126.175 310.094C126.175 310.094 117.41 314.327 111.085 314.278C111.085 314.278 81.3013 235.237 79.0601 209.688C76.8188 184.138 84.2896 172.434 84.2896 172.434L111.483 174.326Z" fill="black"/>
<path d="M101.631 170.242C101.631 170.242 67.4149 274.683 66.8671 317.117C66.8671 317.117 59.3465 318.91 48.4891 317.117C48.4891 317.117 41.5662 200.573 61.5878 167.951L101.631 170.242Z" fill="black"/>
<path d="M55.4131 345.505H48.3408C47.9424 345.505 47.5938 345.157 47.5938 344.758C47.5938 344.36 47.9424 344.011 48.3408 344.011H55.4131C55.8115 344.011 56.1602 344.36 56.1602 344.758C56.1602 345.157 55.8115 345.505 55.4131 345.505Z" fill="black"/>
<path d="M103.564 69.7851C105.855 68.5898 109.939 68.0419 114.421 63.9579C116.613 61.9657 119.75 59.0771 119.999 54.7938C120.248 49.7636 116.413 44.285 111.084 43.1893C106.154 42.1932 102.169 45.4305 101.621 45.8788C98.2347 48.7177 99.5794 51.0087 96.3421 54.246C92.9055 57.6825 90.2161 56.2382 84.6877 59.8241C79.7571 63.0614 80.7532 64.954 77.5159 66.5976C69.8957 70.3828 63.0226 60.7704 55.2033 63.6093C48.4796 66.0497 50.7707 74.1679 43.3497 78.5508C34.8331 83.581 27.8604 75.2138 17.7003 79.3476C8.33695 83.1826 1.91212 95.2852 4.30276 103.403C5.94632 109.031 10.5782 108.434 14.6124 115.107C20.8878 125.417 13.6661 133.336 17.7501 142.351C23.2784 154.354 44.1964 157.392 57.3449 155.947C59.7853 155.698 85.2854 152.561 95.7444 133.187C108.494 109.679 91.6604 76.0605 103.564 69.7851Z" fill="black"/>
<path d="M116.717 176.067C116.717 176.067 117.862 197.434 113.629 201.119C113.629 201.119 102.323 186.128 102.672 176.067H116.717Z" fill="white"/>
<path d="M113.622 201.816C113.573 201.816 113.573 201.816 113.523 201.816C113.324 201.816 113.124 201.667 113.025 201.517C112.577 200.92 101.57 186.177 101.918 176.017C101.918 175.619 102.267 175.32 102.665 175.32H116.71C117.109 175.32 117.457 175.619 117.457 176.017C117.557 178.258 118.503 197.832 114.12 201.667C113.971 201.766 113.822 201.816 113.622 201.816ZM103.412 176.814C103.612 185.181 111.531 196.836 113.672 199.923C116.262 196.088 116.262 182.741 115.963 176.814H103.412Z" fill="black"/>
<path d="M99.1935 174.624C99.1935 174.624 93.6652 191.259 88.5851 195.044C83.505 198.829 72.5977 178.708 65.5254 177.612C58.503 176.516 49.0898 192.902 49.0898 192.902C49.0898 192.902 53.0742 171.735 59.3496 167.751L99.1935 174.624Z" fill="white"/>
<path d="M87.1767 196.238C84.0888 196.238 80.2538 191.955 76.2196 187.423C72.3846 183.14 68.4002 178.757 65.4617 178.308C60.0828 177.512 52.3133 188.817 49.7732 193.2C49.574 193.499 49.2253 193.648 48.8767 193.549C48.5281 193.399 48.3289 193.051 48.3787 192.702C48.5281 191.806 52.5125 171.186 58.9373 167.102C59.0867 167.003 59.2859 166.953 59.4852 167.003L99.329 173.876C99.5283 173.926 99.7275 174.025 99.8271 174.224C99.9267 174.424 99.9765 174.623 99.8769 174.822C99.6279 175.519 94.1992 191.706 89.0194 195.591C88.4716 196.089 87.8241 196.238 87.1767 196.238ZM64.9139 176.814C65.1629 176.814 65.4119 176.814 65.661 176.864C69.1473 177.412 73.2811 181.994 77.3153 186.476C81.3495 190.959 85.9315 196.089 88.1728 194.445C92.3564 191.308 97.038 178.607 98.2333 175.221L59.535 168.547C55.4012 171.535 52.2136 182.741 50.7693 188.917C53.8572 184.285 59.7342 176.814 64.9139 176.814Z" fill="black"/>
<path d="M168.006 82.6837C168.404 81.9366 168.952 81.1895 169.799 80.5421L178.863 72.1251C178.863 72.1251 180.059 76.2091 178.614 78.5997C181.403 78.6993 183.595 79.1475 183.595 79.1475C183.595 79.1475 187.729 75.5118 188.775 74.8643C189.82 74.2169 191.165 73.2208 192.56 73.2706C193.954 73.2706 195.349 74.3663 195.349 74.3663L187.38 84.4766L172.887 88.461L169.898 113.363L159.34 103.602L168.006 82.6837Z" fill="white"/>
<path d="M169.906 114.11C169.706 114.11 169.557 114.061 169.408 113.911L158.849 104.149C158.6 103.95 158.55 103.602 158.65 103.303L167.316 82.3847V82.3349C167.764 81.4384 168.461 80.6415 169.308 79.994L178.323 71.577C178.522 71.3778 178.771 71.328 179.02 71.4276C179.269 71.4774 179.468 71.6766 179.518 71.9257C179.568 72.0751 180.464 75.3124 179.667 77.9022C181.361 78.0019 182.705 78.2509 183.303 78.3505C184.299 77.454 187.387 74.8143 188.284 74.2167C188.433 74.1171 188.582 74.0175 188.732 73.9676C189.778 73.3202 191.073 72.5233 192.467 72.5233C194.111 72.5233 195.605 73.7186 195.704 73.7684C195.854 73.868 195.953 74.0673 196.003 74.2665C196.003 74.4657 195.953 74.6649 195.854 74.8143L187.885 84.9247C187.785 85.0741 187.636 85.1239 187.487 85.1737L173.491 89.0087L170.553 113.413C170.503 113.712 170.354 113.911 170.055 114.011C170.055 114.11 169.955 114.11 169.906 114.11ZM160.194 103.402L169.308 111.819L172.147 88.3613C172.197 88.0624 172.396 87.8134 172.695 87.7138L186.939 83.7792L194.21 74.5155C193.762 74.2665 193.115 74.0175 192.517 74.0175C192.517 74.0175 192.517 74.0175 192.467 74.0175C191.521 74.0175 190.475 74.6649 189.578 75.2128C189.429 75.3124 189.28 75.412 189.13 75.5116C188.333 76.0097 185.196 78.6991 184.05 79.6952C183.851 79.8446 183.652 79.8944 183.403 79.8446C183.403 79.8446 181.211 79.3964 178.572 79.2968C178.323 79.2968 178.074 79.1474 177.924 78.8983C177.775 78.6493 177.825 78.4003 177.924 78.1513C178.721 76.8065 178.572 74.8143 178.372 73.5194L170.254 81.0399L170.204 81.0898C169.507 81.6376 168.959 82.2353 168.611 82.9325L160.194 103.402Z" fill="black"/>
<path d="M157.507 98.123L183.754 123.274L169.908 135.228L147.695 112.865L157.507 98.123Z" fill="white"/>
<path d="M169.902 135.976C169.703 135.976 169.504 135.926 169.354 135.777L147.191 113.464C146.942 113.215 146.892 112.817 147.092 112.518L156.903 97.7755C157.003 97.5763 157.202 97.4767 157.451 97.4269C157.65 97.4269 157.899 97.4767 158.049 97.6261L184.296 122.778C184.445 122.927 184.545 123.126 184.545 123.325C184.545 123.525 184.445 123.724 184.296 123.873L170.4 135.777C170.251 135.876 170.052 135.976 169.902 135.976ZM148.636 112.767L169.902 134.183L182.652 123.226L157.65 99.2199L148.636 112.767Z" fill="black"/>
<path d="M179.853 134.13L149.621 105.891C149.621 105.891 145.537 110.971 139.66 111.021C133.783 111.071 120.834 93.2407 120.834 93.2407L117.746 129.748C117.746 129.797 136.572 162.071 179.853 134.13Z" fill="#FFDD2D"/>
<path d="M120.844 93.2935C120.844 93.2935 113.024 85.9722 77.3142 92.895C77.3142 92.895 75.3718 113.813 68.1999 132.291C61.028 150.768 52.362 162.174 53.6569 174.525C57.4919 172.782 61.7253 172.135 65.9089 172.732L115.913 179.406C119.25 179.854 122.388 177.663 123.085 174.376C124.031 169.744 124.828 161.526 124.28 146.834C123.882 138.217 127.517 107.587 120.844 93.2935Z" fill="#FFDD2D"/>
<path d="M56.8526 140.258L65.1202 155.199L73.5372 150.567L87.9806 154.602C87.9806 154.602 85.5402 157.789 78.5675 154.95L89.2257 160.628C89.2257 160.628 85.9884 162.72 79.6134 158.636L85.6896 163.566C85.6896 163.566 80.7589 162.072 78.1691 161.823C75.5294 161.524 75.5294 161.524 75.5294 161.524C75.5294 161.524 72.6407 161.624 70.2999 162.471C67.9591 163.268 64.7217 163.815 61.3848 162.62C58.0479 161.425 58.0479 161.425 58.0479 161.425L47.7383 145.736L56.8526 140.258Z" fill="white"/>
<path d="M85.6798 164.365C85.63 164.365 85.5304 164.365 85.4806 164.315C85.4308 164.315 80.5997 162.87 78.0597 162.572L75.5196 162.273C75.1212 162.273 72.5811 162.472 70.5889 163.169C68.7462 163.817 65.0606 164.713 61.1758 163.319L57.8389 162.123C57.6895 162.074 57.5401 161.974 57.4405 161.825L47.1309 146.136C47.0313 145.987 46.9815 145.738 47.0313 145.538C47.0811 145.339 47.1807 145.19 47.3799 145.04L56.4942 139.512C56.6436 139.412 56.8926 139.363 57.0918 139.412C57.2911 139.462 57.4405 139.612 57.5401 139.761L65.459 154.055L73.2286 149.772C73.378 149.672 73.5772 149.672 73.7765 149.722L88.2199 153.756C88.4689 153.806 88.6681 154.005 88.7179 154.254C88.8175 154.503 88.7677 154.752 88.6183 154.951C88.5187 155.051 87.174 156.744 83.837 156.744H83.7872L89.6144 159.882C89.8634 160.032 90.0128 160.231 90.0128 160.53C90.0128 160.779 89.9132 161.028 89.6642 161.177C89.5646 161.227 87.8214 162.323 84.4845 161.526L86.2277 162.92C86.5265 163.169 86.5763 163.518 86.4269 163.867C86.2277 164.215 85.9786 164.365 85.6798 164.365ZM58.5362 160.828L61.6241 161.924C65.1104 163.169 68.3975 162.372 70.0411 161.775C72.4317 160.928 75.3702 160.828 75.4698 160.779C75.5196 160.779 75.5196 160.779 75.5694 160.779L78.2091 161.077C79.4044 161.227 80.9982 161.575 82.4425 161.924L79.1056 159.235C78.8067 158.986 78.7569 158.537 78.9562 158.239C79.2052 157.94 79.6534 157.84 79.9523 158.039C83.2892 160.181 85.6798 160.48 87.1242 160.38L78.1593 155.599C77.8106 155.4 77.6612 155.001 77.8106 154.603C77.9601 154.254 78.4083 154.055 78.7569 154.204C82.6915 155.798 84.9825 155.4 86.2277 154.852L73.5772 151.316L65.4092 155.798C65.0606 155.997 64.6124 155.848 64.4131 155.499L56.544 141.255L48.7246 145.987L58.5362 160.828Z" fill="black"/>
<path d="M56.836 129.401L61.0196 139.81L36.8145 155.648C36.8145 155.648 31.7842 141.852 31.5352 136.324L56.836 129.401Z" fill="white"/>
<path d="M36.8233 156.444C36.7237 156.444 36.6738 156.444 36.5742 156.394C36.375 156.344 36.1758 156.145 36.126 155.946C35.9268 155.398 31.0459 142 30.7969 136.372C30.7969 136.024 30.9961 135.725 31.3447 135.625L56.6456 128.703C56.9942 128.603 57.3926 128.802 57.5421 129.151L61.7257 139.56C61.8751 139.909 61.7257 140.257 61.4268 140.456L37.2217 156.294C37.1221 156.394 36.9727 156.444 36.8233 156.444ZM32.3408 136.92C32.7891 141.751 36.1758 151.563 37.2217 154.551L60.1319 139.56L56.3966 130.346L32.3408 136.92Z" fill="black"/>
<path d="M80.1554 115.207L64.168 121.931C60.7813 123.325 59.0381 127.111 60.1338 130.597L60.4825 131.742L28.6074 143.596C28.6074 143.596 24.1748 128.655 31.4463 115.257C38.7178 101.86 77.2667 92.9445 77.2667 92.9445L80.1554 115.207Z" fill="#FFDD2D"/>
<path d="M108.582 72.1772L105.096 87.6665L114.957 91.1528C114.957 91.1528 101.809 99.022 82.6836 91.9497L92.7442 86.5708L99.4678 67.6948L108.582 72.1772Z" fill="white"/>
<path d="M98.6251 95.6343C93.9434 95.6343 88.4649 94.8374 82.3887 92.5962C82.0898 92.4966 81.9404 92.2476 81.8906 91.9488C81.8906 91.6499 82.04 91.4009 82.2891 91.2515L92.1006 86.022L98.7247 67.3951C98.7745 67.1959 98.9737 67.0465 99.1231 66.9469C99.3223 66.8472 99.5215 66.897 99.7208 66.9469L108.835 71.4791C109.134 71.6285 109.333 71.9771 109.233 72.3258L105.897 87.1675L115.11 90.4546C115.359 90.5542 115.559 90.8033 115.609 91.1021C115.658 91.4009 115.509 91.6499 115.26 91.7994C114.961 91.9986 108.686 95.6343 98.6251 95.6343ZM84.5303 91.7994C98.6251 96.481 109.233 92.9449 113.068 91.3013L104.9 88.4126C104.552 88.2632 104.353 87.9146 104.402 87.566L107.739 72.6744L99.8702 68.7896L93.4454 86.7691C93.3955 86.9683 93.2461 87.0679 93.0967 87.1675L84.5303 91.7994Z" fill="black"/>
<path d="M98.7807 72.1773C98.7807 72.1773 95.0453 73.2232 94.3978 69.9859C93.7504 66.7486 96.8383 67.2467 96.8383 67.2467C96.8383 67.2467 94.1488 60.025 99.3783 59.8756C104.608 59.6763 108.542 58.1324 108.542 58.1324C108.542 58.1324 111.68 65.0553 112.377 70.6832C112.776 74.0699 112.328 77.0084 109.738 77.6061C102.665 79.3492 98.7807 72.1773 98.7807 72.1773Z" fill="white"/>
<path d="M107.543 78.6016C102.513 78.6016 99.3256 74.418 98.4291 72.9736C97.682 73.0732 96.3373 73.123 95.2416 72.4756C94.3949 71.9775 93.8968 71.1806 93.6478 70.0849C93.3988 68.8398 93.598 67.8935 94.1957 67.246C94.6439 66.748 95.2914 66.5488 95.7894 66.499C95.391 65.0546 94.9427 62.415 96.0883 60.6718C96.7855 59.6757 97.8314 59.1278 99.3256 59.078C104.356 58.8788 108.241 57.3847 108.241 57.3847C108.589 57.2352 109.037 57.4345 109.187 57.7831C109.336 58.0819 112.374 64.9052 113.072 70.5332C113.769 76.1113 111.677 77.8545 109.834 78.3027C109.087 78.502 108.29 78.6016 107.543 78.6016ZM99.475 71.8281C99.6244 72.0771 103.161 78.4522 109.585 76.8584C111.428 76.4102 112.125 74.3682 111.677 70.7324C111.129 66.2499 108.938 60.8212 108.191 59.0282C106.846 59.4765 103.509 60.4228 99.4252 60.5722C98.4789 60.622 97.7816 60.9208 97.3832 61.5185C96.3871 62.9628 97.1342 65.9511 97.5326 66.9472C97.6322 67.1962 97.5824 67.4951 97.433 67.6943C97.2836 67.8935 96.9847 67.9931 96.7357 67.9433C96.4867 67.8935 95.6898 67.8935 95.3412 68.2919C94.9926 68.6406 95.0424 69.3379 95.142 69.8359C95.2914 70.4834 95.5902 70.9814 96.0385 71.2304C97.0843 71.8779 98.6283 71.4795 98.6283 71.4795C98.9271 71.33 99.2758 71.5293 99.475 71.8281Z" fill="black"/>
<path d="M124.38 135.926C123.932 135.926 123.633 135.578 123.633 135.129L124.33 114.51C124.33 114.112 124.679 113.763 125.077 113.813C125.476 113.813 125.824 114.161 125.774 114.56L125.077 135.179C125.127 135.627 124.778 135.926 124.38 135.926Z" fill="black"/>
<path d="M165.627 5.7515C165.332 5.7515 165.079 5.54081 164.995 5.28797C164.911 4.95086 165.122 4.61375 165.459 4.52948L167.313 4.06595C167.65 3.98167 167.987 4.19237 168.071 4.52948C168.156 4.86658 167.945 5.2037 167.608 5.28797L165.754 5.7515C165.711 5.7515 165.669 5.7515 165.627 5.7515Z" fill="black"/>
<path d="M156.651 7.98176C156.356 7.98176 156.103 7.77106 156.019 7.51824C155.934 7.18113 156.145 6.84403 156.482 6.75975L158.336 6.29623C158.673 6.21196 159.01 6.42265 159.095 6.75975C159.179 7.09686 158.968 7.43396 158.631 7.51824L156.777 7.98176C156.777 7.98176 156.735 7.98176 156.651 7.98176Z" fill="black"/>
<path d="M163.438 12.0706C163.143 12.0706 162.891 11.8599 162.806 11.6071L162.343 9.75301C162.259 9.41591 162.469 9.07881 162.806 8.99454C163.143 8.91026 163.481 9.12095 163.565 9.45805L164.028 11.3121C164.113 11.6492 163.902 11.9863 163.565 12.0706C163.565 12.0706 163.481 12.0706 163.438 12.0706Z" fill="black"/>
<path d="M161.204 3.0947C160.909 3.0947 160.656 2.88401 160.572 2.63118L160.108 0.777075C160.024 0.439966 160.235 0.102861 160.572 0.0185839C160.909 -0.0656935 161.246 0.144996 161.33 0.482106L161.794 2.33621C161.878 2.67332 161.668 3.01043 161.33 3.0947C161.288 3.0947 161.246 3.0947 161.204 3.0947Z" fill="black"/>
<path d="M169.627 280.751C169.332 280.751 169.079 280.541 168.995 280.288C168.911 279.951 169.122 279.614 169.459 279.529L171.313 279.066C171.65 278.982 171.987 279.192 172.071 279.529C172.156 279.867 171.945 280.204 171.608 280.288L169.754 280.751C169.711 280.751 169.669 280.751 169.627 280.751Z" fill="black"/>
<path d="M160.651 282.982C160.356 282.982 160.103 282.771 160.019 282.518C159.934 282.181 160.145 281.844 160.482 281.76L162.336 281.296C162.673 281.212 163.01 281.423 163.095 281.76C163.179 282.097 162.968 282.434 162.631 282.518L160.777 282.982C160.777 282.982 160.735 282.982 160.651 282.982Z" fill="black"/>
<path d="M167.438 287.071C167.143 287.071 166.891 286.86 166.806 286.607L166.343 284.753C166.259 284.416 166.469 284.079 166.806 283.995C167.143 283.91 167.481 284.121 167.565 284.458L168.028 286.312C168.113 286.649 167.902 286.986 167.565 287.071C167.565 287.071 167.481 287.071 167.438 287.071Z" fill="black"/>
<path d="M165.204 278.095C164.909 278.095 164.656 277.884 164.572 277.631L164.108 275.777C164.024 275.44 164.235 275.103 164.572 275.019C164.909 274.934 165.246 275.145 165.33 275.482L165.794 277.336C165.878 277.673 165.668 278.01 165.33 278.095C165.288 278.095 165.246 278.095 165.204 278.095Z" fill="black"/>
<path d="M19.7489 56.4642C18.9774 56.0689 18.3534 55.465 17.9411 54.6856C17.4019 53.6788 17.3001 52.5309 17.65 51.452C17.9999 50.3732 18.7355 49.4921 19.7102 48.9363C20.7171 48.3971 21.865 48.2953 22.9438 48.6452C24.0226 48.9951 24.9203 49.6986 25.4595 50.7054C25.9988 51.7123 26.1005 52.8602 25.7506 53.939C25.4007 55.0178 24.6651 55.899 23.6904 56.4547C22.6836 56.994 21.5357 57.0957 20.4569 56.7458C20.2154 56.6627 19.9739 56.5795 19.7489 56.4642ZM23.109 49.9068C22.9483 49.8245 22.7876 49.7421 22.6104 49.6919C21.8052 49.4416 20.9482 49.5301 20.2174 49.9267C19.4865 50.3233 18.9148 50.9638 18.6967 51.7855C18.4464 52.5907 18.5349 53.4477 18.9315 54.1785C19.3281 54.9093 19.9686 55.481 20.7903 55.6991C21.5955 55.9494 22.4525 55.8609 23.1833 55.4643C23.9141 55.0677 24.4858 54.4272 24.704 53.6056C24.9542 52.8004 24.8658 51.9434 24.4692 51.2126C24.1517 50.6441 23.6876 50.2033 23.109 49.9068Z" fill="black"/>
<path d="M33.5815 49.5102C33.0672 49.2467 32.6352 48.8224 32.3499 48.2704C31.969 47.5882 31.9284 46.7962 32.1457 46.0553C32.363 45.3144 32.8696 44.7217 33.5518 44.3408C34.234 43.9599 35.026 43.9192 35.7669 44.1366C36.5078 44.3539 37.1005 44.8605 37.4814 45.5427C37.8623 46.2249 37.903 47.0169 37.6856 47.7578C37.4683 48.4987 36.9617 49.0913 36.2795 49.4723C35.5973 49.8532 34.8054 49.8938 34.0644 49.6765C33.8708 49.6585 33.7422 49.5926 33.5815 49.5102ZM35.7392 45.2994C35.6428 45.2499 35.5464 45.2005 35.4335 45.1832C34.9826 45.0334 34.4651 45.0929 34.0268 45.3147C33.5885 45.5365 33.2779 45.905 33.1437 46.4044C32.9939 46.8552 33.0534 47.3727 33.2752 47.8111C33.497 48.2494 33.8655 48.56 34.3649 48.6941C34.8157 48.844 35.3332 48.7845 35.7716 48.5627C36.2099 48.3409 36.5205 47.9724 36.6546 47.473C36.8045 47.0221 36.745 46.5046 36.5232 46.0663C36.3648 45.7417 36.0928 45.4805 35.7392 45.2994Z" fill="black"/>
</svg>
