<svg width="197" height="338" viewBox="0 0 197 338" fill="none" xmlns="http://www.w3.org/2000/svg">
<path d="M181.993 337.316H22.542C15.6735 337.316 10.1534 331.754 10.1956 324.886L12.471 14.1584C12.5132 7.28991 18.1175 1.72767 24.9861 1.72767L176.22 0C193.623 0 196.826 7.33205 196.784 14.2006L194.55 324.886C194.508 331.754 188.862 337.316 181.993 337.316Z" fill="#1E3685"/>
<path d="M172.435 337.317H12.9835C6.11493 337.317 0.59482 331.755 0.636958 324.844L2.786 13.1481C2.82814 6.27955 8.43253 0.675171 15.3011 0.675171H174.752C181.621 0.675171 187.141 6.23742 187.099 13.1481L184.95 324.887C184.907 331.755 179.303 337.317 172.435 337.317Z" fill="#99B9FF"/>
<path d="M9.74219 325.305L11.7648 27.6827C11.7648 26.0814 13.0711 24.8173 14.6724 24.8173H174.966C176.567 24.8173 177.832 26.1235 177.832 27.6827L175.809 325.305C175.809 326.906 174.503 328.17 172.901 328.17H12.6076C11.0063 328.17 9.74219 326.864 9.74219 325.305Z" fill="white"/>
<path d="M94.893 16.5612C92.3226 16.5612 90.2578 14.4543 90.2578 11.8839C90.2578 9.31345 92.3647 7.20654 94.9351 7.20654C97.5055 7.20654 99.5702 9.31345 99.5702 11.8839C99.5702 14.4543 97.4634 16.5612 94.893 16.5612Z" fill="black"/>
<path d="M4.34118 334.452C4.17262 334.452 4.00407 334.409 3.91979 334.283C1.34936 331.797 -0.041208 328.468 0.000930326 324.886L0.0852056 315.11C0.0852056 314.773 0.380174 314.478 0.71728 314.478C1.05439 314.478 1.34935 314.773 1.34935 315.11L1.26508 324.886C1.22294 328.131 2.48709 331.123 4.80469 333.398C5.05752 333.651 5.05752 334.03 4.80469 334.283C4.67828 334.409 4.50973 334.452 4.34118 334.452Z" fill="black"/>
<path d="M172.426 337.948H50.7727C50.4356 337.948 50.1406 337.653 50.1406 337.316C50.1406 336.979 50.4356 336.684 50.7727 336.684H172.426C178.957 336.684 184.267 331.374 184.309 324.843L185.489 151.571C185.489 151.234 185.784 150.939 186.121 150.939C186.458 150.939 186.753 151.234 186.753 151.571L185.573 324.885C185.531 332.091 179.631 337.948 172.426 337.948Z" fill="black"/>
<path d="M186.337 123.971C186 123.971 185.705 123.676 185.705 123.339L186.464 13.1477C186.506 9.98734 185.284 6.99553 183.05 4.7622C180.817 2.52888 177.867 1.30687 174.749 1.30687H15.256C8.72458 1.30687 3.41517 6.61629 3.37303 13.1477L2.95165 77.4085C2.95165 77.7456 2.65668 78.0406 2.31957 78.0406C1.98247 78.0406 1.6875 77.7456 1.6875 77.4085L2.10888 13.1477C2.15102 5.94207 8.05037 0.0427246 15.256 0.0427246H174.707C178.204 0.0427246 181.449 1.39115 183.935 3.8773C186.379 6.36346 187.728 9.65024 187.728 13.1477L186.969 123.339C186.969 123.718 186.674 123.971 186.337 123.971Z" fill="black"/>
<path d="M45.4289 329.184C45.0918 329.184 44.7969 328.889 44.7969 328.552C44.7969 328.215 45.0918 327.92 45.4289 327.92L172.897 327.541C174.119 327.541 175.13 326.529 175.172 325.307L176.352 152.035C176.352 151.698 176.647 151.403 176.984 151.403C177.322 151.403 177.616 151.698 177.616 152.035L176.437 325.307C176.437 327.246 174.835 328.805 172.897 328.805L45.4289 329.184Z" fill="black"/>
<path d="M177.23 119.756C177.23 119.756 177.188 119.756 177.23 119.756C176.893 119.756 176.598 119.461 176.598 119.124L177.23 27.6421C177.23 27.0522 177.02 26.4623 176.598 26.0409C176.177 25.6195 175.629 25.3667 175.039 25.3667H14.661C13.439 25.3667 12.4277 26.378 12.3856 27.6L12.0063 82.8432C12.0063 83.1803 11.7114 83.4752 11.3743 83.4752C11.0372 83.4752 10.7422 83.1803 10.7422 82.8432L11.1214 27.6C11.1214 25.6617 12.7227 24.1025 14.661 24.1025H174.955C175.882 24.1025 176.767 24.4818 177.441 25.1139C178.115 25.7881 178.452 26.673 178.452 27.6L177.82 119.082C177.862 119.503 177.567 119.756 177.23 119.756Z" fill="black"/>
<path d="M93.3423 168.387C72.1997 168.166 55.1789 150.729 55.3998 129.515C55.6209 108.278 73.0012 91.1791 94.1438 91.3992L94.7658 91.4057L94.6399 103.506L94.0178 103.499C79.5095 103.348 67.5829 115.075 67.4312 129.641C67.2798 144.182 78.9599 156.137 93.4683 156.288L94.0903 156.294L93.9647 168.356L93.5466 168.351C93.4939 168.371 93.4251 168.387 93.3423 168.387Z" fill="#1771E6"/>
<path d="M97.1569 156.084L97.5928 156.026C100.53 155.646 103.355 154.751 105.988 153.366L106.368 153.167L113.669 162.909L113.176 163.194C108.362 165.99 103.118 167.672 97.5883 168.195L97.0303 168.249L97.1569 156.084ZM109.144 151.452L109.556 151.148C111.369 149.817 113.026 148.24 114.483 146.463L114.739 146.15L125.625 151.641L125.286 152.122C122.948 155.424 120.1 158.351 116.82 160.824L116.417 161.128L109.144 151.452ZM116.615 143.442L116.879 142.98C118.736 139.736 119.893 136.039 120.228 132.291L120.269 131.824L132.367 131.95L132.332 132.483C131.968 138.117 130.378 143.5 127.604 148.483L127.367 148.908L116.615 143.442ZM120.299 128.556L120.271 128.085C120.116 125.509 119.541 122.91 118.562 120.361L118.395 119.924L129.282 114.693L129.486 115.187C131.183 119.296 132.156 123.656 132.379 128.145L132.405 128.682L120.299 128.556ZM116.736 116.603C115.404 114.326 113.733 112.253 111.771 110.441L111.428 110.124L118.849 100.615L119.249 100.963C122.611 103.885 125.421 107.35 127.598 111.261L127.859 111.73L116.971 117.004L116.736 116.603ZM108.485 107.849C105.356 105.787 101.776 104.403 98.135 103.848L97.7015 103.782L97.8281 91.6163L98.3849 91.6798C104.614 92.3936 110.655 94.6785 115.856 98.2889L116.295 98.5941L108.873 108.105L108.485 107.849Z" fill="#F8B716"/>
<path d="M93.6339 151.467C81.7782 151.343 72.2335 141.575 72.3572 129.692C72.4812 117.786 82.2274 108.201 94.0831 108.324L94.588 108.33L94.6595 108.836L94.5902 115.489L94.0853 115.483C86.0909 115.4 79.5822 121.807 79.4993 129.766C79.4167 137.702 85.7908 144.226 93.7085 144.308L94.2133 144.313L94.2848 144.82L94.2156 151.473L93.6339 151.467Z" fill="#1771E6"/>
<path d="M93.9818 140.733C88.0545 140.671 83.2823 135.769 83.3444 129.807C83.4065 123.842 88.2787 119.039 94.2071 119.101L94.7119 119.106L94.744 119.613L94.7076 123.114L94.2027 123.109C90.4413 123.07 87.3802 126.093 87.3411 129.848C87.3022 133.58 90.2999 136.647 94.024 136.686L94.5289 136.691L94.561 137.198L94.5241 140.739L93.9818 140.733Z" fill="#1771E6"/>
<path d="M97.7266 108.646L98.3262 108.768C108.415 110.819 115.658 119.809 115.55 130.143C115.443 140.455 108.013 149.274 97.8843 151.113L97.2833 151.222L97.7266 108.646Z" fill="#F8B716"/>
<path d="M93.9312 134.312C91.5118 134.287 89.5653 132.296 89.5905 129.871C89.616 127.425 91.6038 125.454 94.0232 125.48L94.5281 125.485L94.5995 125.992L94.5128 134.318L93.9312 134.312Z" fill="#1771E6"/>
</svg>
