<svg width="120" height="40" viewBox="0 0 120 40" fill="none" xmlns="http://www.w3.org/2000/svg">
<path fill-rule="evenodd" clip-rule="evenodd" d="M112.047 0H7.29412C1.03529 0 0 2.16471 0 7.31765V32.7412C0 37.8824 2.14118 40 7.28235 40H112.047C117.2 40 119.412 37.8706 119.412 32.7294V7.31765C119.412 2.16471 117.2 0 112.047 0Z" fill="black"/>
<path fill-rule="evenodd" clip-rule="evenodd" d="M31.1298 24.8942C30.5298 26.2236 30.2357 26.8236 29.471 28C28.3886 29.6471 26.871 31.6942 24.9769 31.7059C23.2945 31.7177 22.871 30.6118 20.5886 30.6236C18.318 30.6353 17.8357 31.7177 16.1651 31.7059C14.2828 31.6942 12.8357 29.8353 11.7533 28.1883C8.72981 23.5883 8.41216 18.1883 10.2828 15.3177C11.6122 13.2824 13.6945 12.0824 15.6592 12.0824C17.6592 12.0824 18.918 13.1765 20.5651 13.1765C22.1651 13.1765 23.1416 12.0824 25.4592 12.0824C27.2122 12.0824 29.0592 13.0353 30.3769 14.6824C26.0592 17.0706 26.7651 23.2471 31.1298 24.8942Z" fill="white"/>
<path fill-rule="evenodd" clip-rule="evenodd" d="M23.7187 10.2706C24.554 9.18827 25.201 7.67062 24.9657 6.11768C23.5892 6.21179 21.9892 7.08238 21.0481 8.22356C20.201 9.25885 19.4951 10.7883 19.7657 12.2824C21.2598 12.3177 22.8128 11.4236 23.7187 10.2706Z" fill="white"/>
<path fill-rule="evenodd" clip-rule="evenodd" d="M108.752 27.0588H102.681C102.705 27.8823 102.999 28.6 103.564 29.0823C104.069 29.5059 104.74 29.7059 105.552 29.7059C106.458 29.7059 107.269 29.5529 108.011 29.2588L108.328 30.6588C107.469 31.0353 106.446 31.2117 105.269 31.2117C103.858 31.2117 102.752 30.8 101.94 29.9647C101.14 29.1294 100.728 28.0235 100.728 26.6235C100.728 25.247 101.105 24.1059 101.858 23.1882C102.646 22.2117 103.716 21.7294 105.046 21.7294C106.364 21.7294 107.352 22.2117 108.022 23.1882C108.564 23.9647 108.834 24.9647 108.834 26.0941C108.822 26.4588 108.799 26.8235 108.752 27.0588ZM100.116 23.7176C99.9988 23.6823 99.6812 23.6706 99.4576 23.6706C98.74 23.6706 98.187 23.9412 97.7988 24.4706C97.4576 24.9412 97.2812 25.5412 97.2812 26.2706V30.9412H95.2812V24.8C95.2812 23.7529 95.2341 22.8235 95.1988 21.8823H96.9635L97.0341 23.7647H97.0929C97.3047 23.1765 97.6459 22.647 98.1047 22.2823C98.5518 21.9529 99.0576 21.7765 99.5871 21.7765C99.7753 21.7765 99.9871 21.7647 100.105 21.7882V23.7176H100.116ZM92.7988 29.8706C91.9635 30.7882 90.8459 31.2588 89.4576 31.2588C88.1165 31.2588 87.0459 30.8117 86.2576 29.9294C85.4694 29.047 85.0694 27.9176 85.0694 26.5765C85.0694 25.1647 85.4812 24.0117 86.2929 23.1059C87.1165 22.2 88.2106 21.7529 89.5988 21.7529C90.94 21.7529 92.0106 22.1882 92.8223 23.0823C93.5988 23.9412 93.987 25.0588 93.987 26.4117C93.9988 27.8235 93.5988 28.9647 92.7988 29.8706ZM84.4694 23.5294H82.3518V27.8823C82.3518 29.0117 82.7047 29.5647 83.4929 29.5647C83.8576 29.5647 84.1282 29.5412 84.3635 29.4706L84.4106 31C84.0106 31.1529 83.4812 31.2235 82.8341 31.2235C82.0341 31.2235 81.387 30.9882 80.94 30.4941C80.4812 30.0117 80.2459 29.1882 80.2459 28.0353V23.5294H78.9517V21.8823H80.2459V20.2706L82.3635 19.6706V21.8823H84.4812V23.5294H84.4694ZM77.3517 30.1294C76.5282 30.8706 75.3753 31.2353 73.9047 31.2353C72.54 31.2353 71.4576 30.9765 70.6341 30.447L71.1047 28.7647C71.987 29.2823 72.9635 29.5529 74.0223 29.5529C74.787 29.5529 75.3753 29.3765 75.8106 29.0353C76.2341 28.6941 76.4459 28.2353 76.4459 27.647C76.4459 27.1412 76.2694 26.7059 75.9282 26.3529C75.5753 26 74.9988 25.6823 74.187 25.3765C71.9753 24.5529 70.8694 23.3529 70.8694 21.7647C70.8694 20.7294 71.2576 19.8706 72.0341 19.2117C72.8106 18.5529 73.8459 18.2235 75.14 18.2235C76.2929 18.2235 77.2459 18.4235 78.0106 18.8235L77.5047 20.4706C76.787 20.0823 75.987 19.8941 75.0812 19.8941C74.3635 19.8941 73.8106 20.0706 73.4106 20.4117C73.0694 20.7294 72.9047 21.1059 72.9047 21.5529C72.9047 22.047 73.0929 22.4588 73.4812 22.7882C73.8223 23.0823 74.4341 23.4117 75.3165 23.7647C76.4106 24.2 77.1988 24.7176 77.7165 25.3059C78.2223 25.8941 78.4812 26.6235 78.4812 27.4941C78.4694 28.5765 78.0929 29.4588 77.3517 30.1294ZM65.6576 30.0588C64.9047 30.8588 63.9635 31.2588 62.8459 31.2588C61.6459 31.2588 60.8341 30.8235 60.2459 29.9647V34.8235H58.2459V24.9294C58.2459 23.9529 58.2106 23.0588 58.1635 21.8823H59.94L60.0576 23.4117H60.0929C60.7753 22.3529 61.7988 21.7647 63.1635 21.7647C64.2341 21.7647 65.14 22.1765 65.8576 23.0353C66.5753 23.8823 66.94 25 66.94 26.3882C66.9165 27.9412 66.5047 29.1529 65.6576 30.0588ZM55.6459 30.0588C54.8929 30.8588 53.9517 31.2588 52.8341 31.2588C51.6223 31.2588 50.8223 30.8235 50.2341 29.9647V34.8235H48.2341V24.9294C48.2341 23.9529 48.187 23.0588 48.14 21.8823H49.9165L50.0341 23.4117H50.0694C50.7517 22.3529 51.7753 21.7647 53.1517 21.7647C54.2223 21.7647 55.1165 22.1765 55.8459 23.0353C56.5635 23.8823 56.9282 25 56.9282 26.3882C56.9165 27.9412 56.4929 29.1529 55.6459 30.0588ZM44.8223 30.9412L43.6459 27.2941H39.5282L38.3988 30.9412H36.3047L40.3635 18.3529H42.8812L46.9753 30.9412H44.8223ZM104.881 23.1294C104.222 23.1294 103.681 23.4706 103.269 24.0117C102.928 24.447 102.728 24.9294 102.669 25.6353H106.881C106.893 24.9294 106.764 24.4588 106.493 24.0235C106.152 23.4706 105.611 23.1294 104.881 23.1294ZM41.5753 20.1176H41.54C41.4106 20.7059 41.2106 21.4941 40.94 22.5412L39.8929 25.8823H43.2812L42.2223 22.5412C42.1047 22.2 41.8812 21.2941 41.5753 20.1176ZM62.4929 23.3647C61.987 23.3647 61.54 23.5294 61.14 23.8588C60.7282 24.2 60.4576 24.6235 60.34 25.1647C60.2812 25.4117 60.2459 25.6235 60.2459 25.7882V27.2941C60.2459 27.9529 60.4576 28.5176 60.8576 28.9765C61.2576 29.4235 61.7988 29.6588 62.4459 29.6588C63.2106 29.6588 63.8106 29.3647 64.2341 28.7765C64.6576 28.1882 64.8694 27.4117 64.8694 26.447C64.8694 25.5647 64.6694 24.8353 64.2694 24.2588C63.8223 23.6706 63.2341 23.3647 62.4929 23.3647ZM89.5282 23.2353C88.7165 23.2353 88.1047 23.6 87.6812 24.3176C87.3165 24.9176 87.14 25.6353 87.14 26.5059C87.14 27.3412 87.3165 28.0588 87.6812 28.6588C88.1165 29.3765 88.7282 29.7412 89.5165 29.7412C90.2812 29.7412 90.8929 29.3765 91.3282 28.6353C91.7047 28.0353 91.8929 27.3059 91.8929 26.4706C91.8929 25.6353 91.7165 24.9176 91.3518 24.3176C90.9282 23.5882 90.3165 23.2353 89.5282 23.2353ZM52.4812 23.3647C51.987 23.3647 51.5282 23.5294 51.1282 23.8588C50.7165 24.2 50.4576 24.6235 50.3282 25.1647C50.2694 25.4117 50.2341 25.6235 50.2341 25.7882V27.2941C50.2341 27.9529 50.4341 28.5176 50.8459 28.9765C51.2459 29.4235 51.7753 29.6588 52.4341 29.6588C53.1988 29.6588 53.7988 29.3647 54.2223 28.7765C54.6459 28.1882 54.8576 27.4117 54.8576 26.447C54.8576 25.5647 54.6576 24.8353 54.2576 24.2588C53.8106 23.6706 53.2223 23.3647 52.4812 23.3647Z" fill="white"/>
<path d="M42.0929 15.0354C41.8223 15.1766 41.2341 15.3178 40.4812 15.3178C38.5047 15.3178 37.3047 14.0825 37.3047 12.1884C37.3047 10.1413 38.7282 8.90601 40.6341 8.90601C41.387 8.90601 41.9165 9.05895 42.1517 9.18836L41.9047 10.0942C41.6106 9.96483 41.1988 9.85895 40.6812 9.85895C39.4106 9.85895 38.5047 10.6589 38.5047 12.1531C38.5047 13.5178 39.3047 14.4001 40.6694 14.4001C41.1282 14.4001 41.6106 14.306 41.9047 14.1648L42.0929 15.0354Z" fill="white"/>
<path d="M44.1607 10.7294V12.5882H44.3254L45.7136 10.7177H47.0548L45.2666 12.7059C45.8901 12.8 46.2666 13.2824 46.5725 14.0118C46.7136 14.3412 46.8784 14.8471 47.0784 15.2353H45.9019C45.7842 15.0471 45.6548 14.7059 45.4901 14.2706C45.2548 13.6588 44.9136 13.3647 44.3136 13.3647H44.1607V15.2353H43.0195V10.7294H44.1607Z" fill="white"/>
<path d="M50.3275 15.2237L50.2569 14.7295H50.2334C49.951 15.0825 49.4804 15.3295 48.904 15.3295C47.9981 15.3295 47.4922 14.6707 47.4922 13.9884C47.4922 12.8472 48.504 12.2825 50.1628 12.2942V12.2237C50.1628 11.9295 50.0451 11.4354 49.2451 11.4354C48.7981 11.4354 48.3392 11.5766 48.0334 11.7648L47.8098 11.0237C48.1392 10.8237 48.7275 10.6237 49.4334 10.6237C50.8687 10.6237 51.2922 11.5413 51.2922 12.5178V14.1413C51.2922 14.5531 51.3157 14.9413 51.351 15.2237H50.3275ZM50.1745 13.0237C49.3745 13.0001 48.6098 13.1766 48.6098 13.859C48.6098 14.306 48.8922 14.506 49.2569 14.506C49.704 14.506 50.0451 14.2119 50.1392 13.8825C50.1628 13.8001 50.1745 13.706 50.1745 13.6354V13.0237Z" fill="white"/>
<path d="M53.4341 10.7295V12.1413C53.4341 12.6824 53.6224 12.9883 54.2224 12.9883C54.5047 12.9883 54.7989 12.8824 54.9871 12.7413V10.7295H56.1283V15.2236H54.9871V13.4942H54.9636C54.6812 13.6824 54.2106 13.8001 53.7871 13.8001C52.8694 13.8001 52.293 13.306 52.293 12.2589V10.7295H53.4341Z" fill="white"/>
<path d="M58.4104 10.7295V12.3413C58.4104 13.0471 58.3869 13.5295 58.3516 14.1648H58.3751C58.6104 13.6354 58.7516 13.306 58.9869 12.8354L60.0928 10.7295H61.4692V15.2236H60.3869V13.6118C60.3869 12.8942 60.4104 12.5648 60.4575 11.706H60.4222C60.1986 12.2471 60.0575 12.5648 59.8339 13.0001C59.481 13.6707 59.081 14.4824 58.6928 15.2118H57.3398V10.7295H58.4104Z" fill="white"/>
<path d="M62.668 10.7884C62.9974 10.7296 63.6797 10.6825 64.3033 10.6825C65.0562 10.6825 66.4327 10.7884 66.4327 11.8237C66.4327 12.4001 65.9856 12.7178 65.515 12.8237V12.8472C66.1856 12.9531 66.6444 13.3178 66.6444 13.9413C66.6444 15.1766 65.0209 15.2943 64.115 15.2943C63.5503 15.2943 62.9503 15.259 62.6797 15.2354V10.7884H62.668ZM63.7621 14.5413C63.9503 14.5648 64.0797 14.5648 64.315 14.5648C64.8327 14.5648 65.4562 14.4237 65.4562 13.8943C65.4562 13.3884 64.9621 13.2237 64.2444 13.2237H63.7621V14.5413ZM63.7738 12.5413H64.2444C64.8209 12.5413 65.3033 12.3766 65.3033 11.9531C65.3033 11.5884 64.9856 11.4001 64.315 11.4001C64.0915 11.4001 63.9503 11.4237 63.7738 11.4354V12.5413Z" fill="white"/>
<path d="M70.1048 15.2237L70.0342 14.7295H70.0107C69.7284 15.0825 69.2578 15.3295 68.6813 15.3295C67.7754 15.3295 67.2695 14.6707 67.2695 13.9884C67.2695 12.8472 68.2813 12.2825 69.9401 12.2942V12.2237C69.9401 11.9295 69.8225 11.4354 69.0225 11.4354C68.5754 11.4354 68.1166 11.5766 67.8107 11.7648L67.5872 11.0237C67.9166 10.8237 68.5048 10.6237 69.2107 10.6237C70.646 10.6237 71.0695 11.5413 71.0695 12.5178V14.1413C71.0695 14.5531 71.0931 14.9413 71.1284 15.2237H70.1048ZM69.9637 13.0237C69.1637 13.0001 68.3989 13.1766 68.3989 13.859C68.3989 14.306 68.6813 14.506 69.046 14.506C69.4931 14.506 69.8342 14.2119 69.9284 13.8825C69.9519 13.8001 69.9637 13.706 69.9637 13.6354V13.0237Z" fill="white"/>
<path d="M73.3401 10.7295V12.3412C73.3401 13.0471 73.3166 13.5295 73.2813 14.1648H73.3048C73.5401 13.6353 73.6813 13.3059 73.9166 12.8353L75.0225 10.7295H76.3989V15.2236H75.3166V13.6118C75.3166 12.8942 75.3401 12.5648 75.3872 11.7059H75.3519C75.1284 12.2471 74.9872 12.5648 74.7637 13.0001C74.4107 13.6706 74.0107 14.4824 73.6225 15.2118H72.2695V10.7295H73.3401ZM73.8107 8.89417C73.8342 9.29417 73.9989 9.56475 74.3048 9.56475C74.6342 9.56475 74.7989 9.2824 74.846 8.89417H75.5989C75.5519 9.69417 75.0578 10.1177 74.2931 10.1177C73.4578 10.1177 73.0931 9.61181 73.0578 8.89417H73.8107Z" fill="white"/>
<path d="M80.9057 10.7294V11.6118H79.5527V15.2353H78.4115V11.6H77.0586V10.7177H80.9057V10.7294Z" fill="white"/>
<path d="M82.2581 13.2941C82.2817 14.1058 82.9287 14.4588 83.6464 14.4588C84.1758 14.4588 84.5523 14.3882 84.8934 14.2588L85.0581 15.047C84.6699 15.2 84.1405 15.3294 83.4934 15.3294C82.0346 15.3294 81.1758 14.4353 81.1758 13.0588C81.1758 11.8117 81.9287 10.6353 83.3758 10.6353C84.8346 10.6353 85.317 11.8353 85.317 12.8235C85.317 13.0353 85.2934 13.2 85.2817 13.3058H82.2581V13.2941ZM84.2346 12.5058C84.2464 12.0941 84.0581 11.4117 83.3052 11.4117C82.5993 11.4117 82.3052 12.047 82.2581 12.5058H84.2346Z" fill="white"/>
<path d="M88.1289 10.7884C88.4583 10.7296 89.1407 10.6825 89.7642 10.6825C90.5171 10.6825 91.8936 10.7884 91.8936 11.8237C91.8936 12.4001 91.4466 12.7178 90.976 12.8237V12.8472C91.6466 12.9531 92.1054 13.3178 92.1054 13.9413C92.1054 15.1766 90.4819 15.2943 89.576 15.2943C89.0113 15.2943 88.4113 15.259 88.1407 15.2354V10.7884H88.1289ZM89.223 14.5413C89.4113 14.5648 89.5407 14.5648 89.776 14.5648C90.2936 14.5648 90.9171 14.4237 90.9171 13.8943C90.9171 13.3884 90.423 13.2237 89.7054 13.2237H89.2113V14.5413H89.223ZM89.2348 12.5413H89.7054C90.2819 12.5413 90.7642 12.3766 90.7642 11.9531C90.7642 11.5884 90.4466 11.4001 89.776 11.4001C89.5524 11.4001 89.4113 11.4237 89.2348 11.4354V12.5413Z" fill="white"/>
</svg>
