<svg width="120" height="40" viewBox="0 0 120 40" fill="none" xmlns="http://www.w3.org/2000/svg">
<path fill-rule="evenodd" clip-rule="evenodd" d="M112.047 0H7.29412C1.03529 0 0 2.16471 0 7.31765V32.7412C0 37.8824 2.14118 40 7.28235 40H112.047C117.2 40 119.412 37.8706 119.412 32.7294V7.31765C119.412 2.16471 117.2 0 112.047 0Z" fill="black"/>
<path d="M59.0338 22.9294C56.8455 22.9294 55.1044 24.5765 55.1044 26.8589C55.1044 29.0471 56.8338 30.7883 59.0338 30.7883C61.2338 30.7883 62.9632 29.1412 62.9632 26.8589C62.9514 24.4824 61.222 22.9294 59.0338 22.9294ZM59.0338 29.1412C57.8455 29.1412 56.8455 28.1412 56.8455 26.7647C56.8455 25.4 57.8455 24.3883 59.0338 24.3883C60.222 24.3883 61.222 25.3059 61.222 26.7647C61.222 28.1294 60.2102 29.1412 59.0338 29.1412ZM50.5397 22.9294C48.3514 22.9294 46.6103 24.5765 46.6103 26.8589C46.6103 29.0471 48.3397 30.7883 50.5397 30.7883C52.7397 30.7883 54.4691 29.1412 54.4691 26.8589C54.4691 24.4824 52.7279 22.9294 50.5397 22.9294ZM50.5397 29.1412C49.3514 29.1412 48.3514 28.1412 48.3514 26.7647C48.3514 25.4 49.3514 24.3883 50.5397 24.3883C51.7279 24.3883 52.7279 25.3059 52.7279 26.7647C52.7279 28.1294 51.7279 29.1412 50.5397 29.1412ZM40.4102 24.1177V25.7647H44.3397C44.2455 26.6824 43.8808 27.4118 43.422 27.8589C42.8691 28.4118 41.9632 29.0471 40.4102 29.0471C37.9514 29.0471 36.1161 27.1294 36.1161 24.6706C36.1161 22.2118 38.0338 20.2942 40.4102 20.2942C41.6926 20.2942 42.6926 20.8471 43.422 21.4824L44.6103 20.2942C43.6103 19.3765 42.3279 18.6471 40.5044 18.6471C37.222 18.6471 34.3867 21.3883 34.3867 24.6706C34.3867 27.953 37.2102 30.6942 40.5044 30.6942C42.3279 30.6942 43.6102 30.1412 44.7044 28.9647C45.7985 27.8706 46.1632 26.3177 46.1632 25.1294C46.1632 24.7647 46.1632 24.4 46.0691 24.1294L40.4102 24.1177ZM81.8455 25.3883C81.4808 24.4706 80.5632 22.9294 78.5632 22.9294C76.5514 22.9294 74.9161 24.4824 74.9161 26.8589C74.9161 29.0471 76.5632 30.7883 78.7514 30.7883C80.4808 30.7883 81.575 29.6942 81.9514 29.0589L80.6691 28.1412C80.2103 28.7765 79.6691 29.2353 78.7514 29.2353C77.8338 29.2353 77.2926 28.8706 76.8338 28.0471L82.0338 25.8589L81.8455 25.3883ZM76.5514 26.6706C76.5514 25.2118 77.7397 24.3883 78.5632 24.3883C79.1985 24.3883 79.8455 24.753 80.022 25.2118L76.5514 26.6706ZM72.2573 30.4118H73.9985V19H72.2691V30.4118H72.2573ZM69.5279 23.753C69.0691 23.2942 68.3397 22.8353 67.4338 22.8353C65.5161 22.8353 63.6926 24.5647 63.6926 26.7647C63.6926 28.9647 65.422 30.6 67.4338 30.6C68.3514 30.6 69.0808 30.1412 69.4455 29.6824H69.5397V30.2353C69.5397 31.6942 68.7161 32.5177 67.4455 32.5177C66.4455 32.5177 65.7161 31.7883 65.5279 31.153L64.0691 31.7883C64.5279 32.7883 65.622 34.0706 67.5397 34.0706C69.5514 34.0706 71.1867 32.8824 71.1867 30.0589V23.1177H69.5397L69.5279 23.753ZM67.5161 29.1412C66.3279 29.1412 65.3279 28.1412 65.3279 26.7647C65.3279 25.4 66.3279 24.3883 67.5161 24.3883C68.7044 24.3883 69.6103 25.3883 69.6103 26.7647C69.6103 28.1294 68.7044 29.1412 67.5161 29.1412ZM89.7867 19H85.6808V30.4118H87.4103V26.1177H89.7867C91.7044 26.1177 93.5279 24.753 93.5279 22.553C93.5279 20.353 91.7044 19 89.7867 19ZM89.8808 24.4824H87.4103V20.553H89.8808C91.1632 20.553 91.8926 21.6471 91.8926 22.4706C91.7867 23.4824 91.0573 24.4824 89.8808 24.4824ZM100.375 22.8353C99.0926 22.8353 97.822 23.3883 97.3632 24.5647L98.9161 25.2C99.2808 24.5647 99.8338 24.3765 100.469 24.3765C101.387 24.3765 102.198 24.9294 102.293 25.8353V25.9294C102.022 25.7412 101.293 25.4706 100.563 25.4706C98.9161 25.4706 97.2808 26.3883 97.2808 28.0236C97.2808 29.5765 98.6455 30.5765 100.104 30.5765C101.293 30.5765 101.834 30.0236 102.293 29.4824H102.387V30.4H104.034V26.0236C103.834 24.0236 102.293 22.8353 100.375 22.8353ZM100.187 29.1412C99.6338 29.1412 98.822 28.8706 98.822 28.1412C98.822 27.2236 99.822 26.953 100.646 26.953C101.375 26.953 101.74 27.1412 102.198 27.3177C102.01 28.4 101.104 29.1412 100.187 29.1412ZM109.775 23.1177L107.857 28.0471H107.763L105.751 23.1177H103.928L106.94 30.0589L105.21 33.8824H106.94L111.598 23.1177H109.775ZM94.4338 30.4118H96.1632V19H94.4338V30.4118Z" fill="white"/>
<path d="M39.2494 13.9059C38.7788 14.4471 38.2259 14.7059 37.5553 14.7059C36.9553 14.7059 36.4494 14.5059 36.0376 14.0942C35.6259 13.6942 35.4259 13.153 35.4259 12.5059C35.4259 11.8471 35.6376 11.3177 36.0376 10.9177C36.4494 10.5177 36.9553 10.3059 37.5553 10.3059C38.2023 10.3059 38.6965 10.5295 39.0729 11L39.1553 11.1059L39.8494 10.4353L39.7671 10.353C39.2023 9.69416 38.4494 9.36475 37.5435 9.36475C36.6612 9.36475 35.9082 9.67063 35.3082 10.2706C34.7082 10.8706 34.4023 11.6236 34.4023 12.5177C34.4023 13.4118 34.7082 14.1647 35.3082 14.7647C35.9082 15.3647 36.6612 15.6706 37.5435 15.6706C38.0259 15.6706 38.4847 15.5765 38.8965 15.3765C39.3082 15.1883 39.6612 14.9177 39.9318 14.5883L40.0023 14.5059L39.32 13.8236L39.2494 13.9059Z" fill="white"/>
<path d="M47.3898 9.52942L45.2251 15.2706L43.0487 12.1529L45.1781 9.69413V9.52942H44.0016L41.531 12.3177V9.52942H40.5898V15.5294H41.531V13.7765L42.3193 12.8941L44.1898 15.5294H45.1075H45.284H46.1898L46.7545 14H49.0251L49.5898 15.5294H50.6722L48.4016 9.52942H47.3898ZM48.684 13.0588H47.0957L47.8957 10.8588L48.684 13.0588Z" fill="white"/>
<path d="M54.0007 11.8353C53.7654 12.1765 53.3419 12.3529 52.8477 12.3529C52.5066 12.3529 52.2242 12.2588 52.0477 12.0824C51.8595 11.9059 51.7654 11.6471 51.7654 11.3059V9.52942H50.8242V11.4471C50.8242 12.0118 51.0007 12.4588 51.3772 12.8C51.7536 13.1294 52.2125 13.2941 52.7654 13.2941C53.2713 13.2941 53.6948 13.1529 54.036 12.8588L54.0125 13.0471V15.5294H55.0713V9.52942H54.0125V11.8353H54.0007Z" fill="white"/>
<path d="M56.7068 13.7647V13.0118V9.52942H55.7656V15.5294H56.7303L59.5303 11.0588V11.8V15.5294H60.4715V9.52942H59.3892L56.7068 13.7647Z" fill="white"/>
<path d="M64.7552 12.4C64.9317 12.2941 65.0729 12.1529 65.1788 11.9882C65.3317 11.7529 65.4141 11.4941 65.4141 11.1882C65.4141 10.7059 65.2376 10.3059 64.8729 9.98824C64.5199 9.6706 64.0964 9.52942 63.6141 9.52942H61.4141V15.5294H63.7435C64.2494 15.5294 64.6846 15.3647 65.0611 15.0353C65.4376 14.7059 65.6258 14.2706 65.6258 13.7647C65.6258 13.4235 65.5199 13.1294 65.3199 12.8706C65.167 12.6706 64.9788 12.5059 64.7552 12.4ZM64.2141 11.7529C64.0611 11.9177 63.8729 12 63.6258 12H62.3552V10.4706H63.6611C63.8964 10.4706 64.0847 10.5294 64.2258 10.6941C64.367 10.8588 64.4376 11.0235 64.4376 11.2235C64.4376 11.4118 64.367 11.5882 64.2141 11.7529ZM64.3788 14.3294C64.2258 14.5059 64.0258 14.5882 63.767 14.5882H62.3552V12.9412H63.7435C64.0141 12.9412 64.2141 13.0118 64.3788 13.1882C64.5435 13.3647 64.6258 13.5412 64.6258 13.7529C64.6141 13.9647 64.5435 14.1412 64.3788 14.3294Z" fill="white"/>
<path d="M67.9581 9.52942L65.6875 15.5294H66.7699L67.3346 14H69.6051L70.1699 15.5294H71.2522L68.9816 9.52942H67.9581ZM69.264 13.0588H67.6757L68.4757 10.8588L69.264 13.0588Z" fill="white"/>
<path d="M73.9654 9.29412C74.2713 9.29412 74.5183 9.18824 74.7419 8.96471C74.9654 8.74118 75.0595 8.47059 75.0595 8.15294V8H74.236V8.15294C74.236 8.24706 74.2242 8.32941 74.1654 8.4C74.1066 8.47059 74.0478 8.49412 73.9536 8.49412C73.8478 8.49412 73.7889 8.45882 73.7301 8.4C73.6713 8.32941 73.6478 8.24706 73.6478 8.15294V8H72.8242V8.15294C72.8242 8.47059 72.9301 8.74118 73.1654 8.96471C73.4007 9.18824 73.6595 9.29412 73.9654 9.29412Z" fill="white"/>
<path d="M72.5779 13.7647L72.5896 13.0118V9.52942H71.6484V15.5294H72.5896L75.4131 11.0588V11.8V15.5294H76.3543V9.52942H75.2484L72.5779 13.7647Z" fill="white"/>
<path d="M76.8242 10.4706H78.4713V15.5294H79.5301V10.4706H81.0595V9.52942H76.8242V10.4706Z" fill="white"/>
<path d="M81.6484 15.5294H85.2955V14.5882H82.7073V12.9412H85.0602V12H82.7073V10.4706H85.2955V9.52942H81.6484V15.5294Z" fill="white"/>
<path d="M91.7769 12.8588C91.624 12.6588 91.4358 12.5059 91.224 12.4C91.4005 12.2941 91.5416 12.1529 91.6475 11.9882C91.8005 11.7529 91.8828 11.4941 91.8828 11.1882C91.8828 10.7059 91.7063 10.3059 91.3416 9.98824C90.9887 9.6706 90.5652 9.52942 90.0828 9.52942H87.8828V15.5294H90.2005C90.7063 15.5294 91.1416 15.3647 91.5181 15.0353C91.8946 14.7059 92.0828 14.2706 92.0828 13.7647C92.071 13.4235 91.9652 13.1177 91.7769 12.8588ZM90.671 11.7529C90.5181 11.9177 90.3299 12 90.0828 12H88.824V10.4706H90.1181C90.3534 10.4706 90.5416 10.5294 90.6828 10.6941C90.824 10.8588 90.8946 11.0235 90.8946 11.2235C90.8946 11.4118 90.824 11.5882 90.671 11.7529ZM90.8357 14.3294C90.6828 14.5059 90.4828 14.5882 90.224 14.5882H88.824V12.9412H90.2005C90.471 12.9412 90.671 13.0118 90.8357 13.1882C91.0005 13.3647 91.0828 13.5412 91.0828 13.7529C91.071 13.9647 91.0005 14.1412 90.8357 14.3294Z" fill="white"/>
<path fill-rule="evenodd" clip-rule="evenodd" d="M25.4972 16.4824L11.2031 8.25891L22.4972 19.4824L25.4972 16.4824Z" fill="white"/>
<path fill-rule="evenodd" clip-rule="evenodd" d="M9.88327 8.34131C9.82445 8.43543 9.76562 8.55307 9.76562 8.68249V31.9531C9.76562 32.0237 9.80092 32.0942 9.82445 32.1648L21.7774 20.1884L9.88327 8.34131Z" fill="white"/>
<path fill-rule="evenodd" clip-rule="evenodd" d="M22.495 20.8707L10.7773 32.6119C10.8126 32.6001 10.8479 32.5884 10.8832 32.5648L25.695 24.0472L22.495 20.8707Z" fill="white"/>
<path fill-rule="evenodd" clip-rule="evenodd" d="M31.1051 19.7061L26.3757 16.9884L23.1875 20.1766L26.564 23.5413L31.1051 20.9296C31.5757 20.659 31.5757 19.9766 31.1051 19.7061Z" fill="white"/>
</svg>
