<svg width="120" height="120" viewBox="0 0 120 120" fill="none" xmlns="http://www.w3.org/2000/svg">
<path d="M84.3898 2.9948C79.5405 -3.08646 62.9219 1.14683 51.3557 6.40896C17.6139 21.7497 -7.14359 61.2582 1.86689 74.5217C6.74238 81.7038 19.9009 78.827 21.4475 85.118C23.3675 92.9424 3.79349 100.557 5.30725 108.689C6.84067 116.9 28.6493 119.083 31.9914 119.384C41.6703 120.262 74.2128 123.224 97.6204 100.256C128.564 69.8886 122.162 15.1835 109.672 10.2949C103.374 7.83098 93.2757 17.1495 87.9415 12.4575C85.0123 9.8952 86.7882 5.99611 84.3898 2.9948Z" fill="#CADDFF"/>
<path d="M24.6262 74.371C24.3575 74.063 24.0561 73.7681 23.7415 73.4929C23.427 73.2177 23.0993 72.9621 22.7585 72.7328C22.077 72.2675 21.33 71.9005 20.5633 71.6908C20.1766 71.586 19.7835 71.5139 19.3903 71.4877C18.9905 71.4615 18.6039 71.4877 18.2042 71.5401C17.4047 71.658 16.6118 71.8874 15.9434 72.2609C15.2749 72.6345 14.7507 73.1718 14.5541 73.8337C14.3575 74.4955 14.4361 75.2754 14.7179 75.9503C14.9997 76.6253 15.5108 77.202 16.1334 77.4641C16.7559 77.7459 17.4702 77.6869 18.1321 77.3658C18.7874 77.0447 19.3968 76.5073 19.8031 75.8848C20.2094 75.2754 20.406 74.5283 20.406 73.7616C20.406 72.9883 20.2225 72.2085 19.9145 71.4746C19.6065 70.7406 19.1609 70.0591 18.6105 69.489C17.5226 68.3291 15.9368 67.7065 14.3182 67.7196C13.5122 67.7262 12.693 67.8769 11.9263 68.1587C11.1596 68.447 10.4257 68.8533 9.77691 69.371C9.6524 69.4693 9.47547 69.4496 9.37717 69.3251C9.28543 69.2072 9.29854 69.0434 9.40994 68.9385C10.7206 67.7262 12.4702 66.9726 14.2985 66.8677C14.5279 66.8546 14.7572 66.8612 14.9866 66.8612L15.3274 66.8874C15.4388 66.9005 15.5567 66.907 15.6681 66.9267C15.8975 66.966 16.1268 66.9988 16.3431 67.0643L16.6773 67.1495L17.005 67.2675C17.444 67.4182 17.8569 67.641 18.2566 67.8769C18.6498 68.1259 19.0102 68.4274 19.3444 68.7485C20.0063 69.4038 20.5371 70.1705 20.9171 71.0158C21.2972 71.8612 21.5266 72.7852 21.5462 73.7354C21.5528 74.2138 21.5004 74.6921 21.3824 75.1705C21.2644 75.6423 21.0613 76.1076 20.7926 76.5205C20.524 76.9333 20.2094 77.2937 19.849 77.6148C19.4886 77.9359 19.0954 78.2177 18.6498 78.434C18.2042 78.6502 17.7061 78.8009 17.1884 78.8337C16.6707 78.8665 16.1268 78.7747 15.655 78.565C15.1766 78.3553 14.7572 78.0342 14.4165 77.6607C14.0757 77.2872 13.8136 76.8547 13.6236 76.4025C13.25 75.4982 13.1386 74.4562 13.4532 73.4733C13.5318 73.2308 13.6432 72.9883 13.7743 72.7721C13.9053 72.5493 14.0626 72.3461 14.2396 72.1626C14.5869 71.7957 14.9932 71.5073 15.4191 71.2845C16.271 70.8455 17.1688 70.6292 18.0797 70.5244C18.9971 70.4195 19.9604 70.5244 20.8254 70.8192C21.7035 71.1076 22.4964 71.5663 23.2042 72.1168C23.9119 72.6672 24.541 73.2963 25.0718 74.0237C25.1635 74.1482 25.1373 74.3252 25.0128 74.4169C24.8883 74.5021 24.7245 74.4824 24.6262 74.371Z" fill="black"/>
<path d="M93.8242 48.0932L98.4835 34.856C98.9815 33.4405 100.928 33.2898 101.635 34.607C103.778 38.5847 106.288 46.1207 101.662 55.0526L93.8242 48.0932Z" fill="#5479F7"/>
<path d="M101.664 55.2688C101.612 55.2688 101.559 55.2491 101.52 55.2163L93.6825 48.257C93.6169 48.198 93.5907 48.1063 93.6235 48.0211L98.2827 34.7838C98.5449 34.0433 99.1871 33.5519 99.9669 33.4863C100.747 33.4274 101.461 33.814 101.828 34.5021C103.873 38.2963 106.586 46.0224 101.854 55.1508C101.821 55.2098 101.769 55.2491 101.703 55.2622C101.69 55.2688 101.677 55.2688 101.664 55.2688ZM94.0822 48.0276L101.605 54.7052C106.068 45.8586 103.44 38.3946 101.454 34.7118C101.166 34.181 100.616 33.873 100.006 33.9254C99.3968 33.9713 98.8987 34.3579 98.6956 34.9346L94.0822 48.0276Z" fill="black"/>
<path d="M49.1235 100.223C49.7853 96.5335 47.3279 93.0014 43.6385 92.3395L43.2519 92.2674C39.5625 91.6056 36.0304 94.063 35.3686 97.7523L33.9007 105.898C33.2388 109.587 35.6962 113.119 39.3856 113.781L39.7722 113.853C43.4616 114.515 46.9937 112.058 47.6556 108.368L49.1235 100.223Z" fill="#5479F7"/>
<path d="M40.9851 114.181C40.5657 114.181 40.1528 114.142 39.7334 114.07L39.3468 113.997C35.5394 113.316 33.0034 109.666 33.6849 105.859L35.1463 97.7131C35.4739 95.8717 36.5027 94.2662 38.0427 93.1981C39.5827 92.1299 41.4438 91.7236 43.2852 92.0513L43.6718 92.1234C45.5133 92.451 47.1188 93.4799 48.1869 95.0198C49.2551 96.5598 49.6614 98.4209 49.3337 100.262L49.1175 100.223L49.3337 100.262L47.8724 108.408C47.5447 110.249 46.5159 111.855 44.9759 112.923C43.7898 113.748 42.4071 114.181 40.9851 114.181ZM42.0336 92.3724C40.7033 92.3724 39.4058 92.7787 38.2917 93.5519C36.8501 94.5546 35.8868 96.0618 35.5722 97.7852L34.1109 105.931C33.4687 109.502 35.854 112.923 39.4189 113.565L39.8055 113.637C41.5355 113.945 43.2787 113.565 44.7203 112.562C46.162 111.56 47.1253 110.053 47.4399 108.329L48.9012 100.184C49.2092 98.4536 48.8291 96.7105 47.8265 95.2688C46.8239 93.8272 45.3167 92.8639 43.5932 92.5493L43.2066 92.4772C42.8199 92.4117 42.4267 92.3724 42.0336 92.3724Z" fill="black"/>
<path d="M89.5398 92.3395L89.9265 92.2674C93.6158 91.6056 97.1479 94.063 97.8098 97.7523L99.2711 105.898C99.933 109.587 97.4756 113.119 93.7862 113.781L93.3996 113.853C89.7102 114.515 86.1781 112.058 85.5163 108.368L84.0549 100.223C83.3865 96.5269 85.8439 93.0014 89.5398 92.3395Z" fill="#5479F7"/>
<path d="M92.187 114.181C90.7715 114.181 89.3888 113.748 88.2027 112.923C86.6627 111.855 85.6339 110.249 85.3062 108.408L83.8449 100.262C83.5172 98.4208 83.9235 96.5597 84.9917 95.0197C86.0598 93.4797 87.6654 92.4509 89.5068 92.1233L89.8934 92.0512C91.7348 91.717 93.5959 92.1298 95.1359 93.198C96.6759 94.2661 97.7047 95.8716 98.0324 97.713L99.4937 105.859C99.8214 107.7 99.4151 109.561 98.3469 111.101C97.2788 112.641 95.6732 113.67 93.8318 113.997L93.4452 114.07C93.0192 114.142 92.5998 114.181 92.187 114.181ZM89.5723 92.5492C87.8423 92.8572 86.3416 93.8271 85.339 95.2687C84.3364 96.7104 83.9563 98.4535 84.2643 100.184L85.7256 108.329C86.0336 110.059 87.0035 111.56 88.4452 112.562C89.8869 113.565 91.63 113.945 93.36 113.637L93.7466 113.565C97.3181 112.923 99.6968 109.502 99.0546 105.931L97.5933 97.7851C97.2853 96.0551 96.3155 94.5544 94.8738 93.5518C93.4321 92.5492 91.689 92.1691 89.9589 92.4771L89.5723 92.5492Z" fill="black"/>
<path d="M93.5439 46.7693L92.5019 35.3735C92.4036 34.2792 91.2306 33.6042 90.2477 34.0891C88.2293 35.0787 85.3001 37.4312 84.1664 42.903C81.5976 42.2805 78.9174 41.9463 76.1586 41.9463H56.9187C38.2949 41.9463 23.2031 57.0446 23.2031 75.6619C23.2031 94.2857 38.3014 109.377 56.9187 109.377H76.152C94.7759 109.377 109.868 94.2792 109.868 75.6619C109.868 63.4011 103.328 52.6737 93.5439 46.7693Z" fill="white"/>
<path d="M76.1513 109.659H56.918C47.8354 109.659 39.2968 106.121 32.8747 99.6986C26.4527 93.2766 22.9141 84.7379 22.9141 75.6553C22.9141 66.5728 26.4527 58.0341 32.8747 51.6121C39.2968 45.1901 47.8354 41.6514 56.918 41.6514H76.1513C78.7791 41.6514 81.3937 41.9528 83.9429 42.5492C85.1159 37.2739 87.9337 34.8952 90.1159 33.827C90.6664 33.5584 91.2954 33.5715 91.8328 33.8795C92.3702 34.1809 92.724 34.7248 92.783 35.3408L93.8118 46.5924C98.6873 49.561 102.77 53.7418 105.62 58.6829C108.582 63.8205 110.155 69.6855 110.155 75.6553C110.155 84.7379 106.617 93.2766 100.195 99.6986C93.7725 106.127 85.2339 109.659 76.1513 109.659ZM56.918 42.2281C38.4842 42.2281 23.4842 57.2281 23.4842 75.6619C23.4842 94.0957 38.4842 109.096 56.918 109.096H76.1513C94.5851 109.096 109.585 94.0957 109.585 75.6619C109.585 63.8401 103.53 53.1259 93.3924 47.0118C93.3138 46.966 93.2679 46.8873 93.2548 46.7956L92.2129 35.3998C92.1736 34.9673 91.9311 34.5937 91.551 34.384C91.1775 34.1743 90.745 34.1612 90.3584 34.3513C88.2548 35.3867 85.5156 37.713 84.4278 42.9686C84.4147 43.0407 84.3688 43.1062 84.3033 43.1521C84.2378 43.1914 84.1591 43.2045 84.0871 43.1848C81.4986 42.5557 78.8249 42.2346 76.1447 42.2346H56.918V42.2281Z" fill="black"/>
<path d="M76.426 99.8493H56.6422C40.7051 99.8493 27.2779 89.0892 23.2215 74.443C23.2084 74.8493 23.1953 75.2556 23.1953 75.6619C23.1953 94.2858 38.2936 109.378 56.9109 109.378H76.1442C94.7681 109.378 109.86 94.2792 109.86 75.6619C109.86 75.2491 109.853 74.8428 109.84 74.4365C105.797 89.0892 92.3696 99.8493 76.426 99.8493Z" fill="#CADDFF"/>
<path d="M76.1513 109.659H56.918C47.8354 109.659 39.2968 106.121 32.8747 99.6986C26.4527 93.2766 22.9141 84.7379 22.9141 75.6553C22.9141 66.5728 26.4527 58.0341 32.8747 51.6121C39.2968 45.1901 47.8354 41.6514 56.918 41.6514H76.1513C78.7791 41.6514 81.3937 41.9528 83.9429 42.5492C85.1159 37.2739 87.9337 34.8952 90.1159 33.827C90.6664 33.5584 91.2954 33.5715 91.8328 33.8795C92.3702 34.1809 92.724 34.7248 92.783 35.3408L93.8118 46.5924C98.6873 49.561 102.77 53.7418 105.62 58.6829C108.582 63.8205 110.155 69.6855 110.155 75.6553C110.155 84.7379 106.617 93.2766 100.195 99.6986C93.7725 106.127 85.2339 109.659 76.1513 109.659ZM56.918 42.2281C38.4842 42.2281 23.4842 57.2281 23.4842 75.6619C23.4842 94.0957 38.4842 109.096 56.918 109.096H76.1513C94.5851 109.096 109.585 94.0957 109.585 75.6619C109.585 63.8401 103.53 53.1259 93.3924 47.0118C93.3138 46.966 93.2679 46.8873 93.2548 46.7956L92.2129 35.3998C92.1736 34.9673 91.9311 34.5937 91.551 34.384C91.1775 34.1743 90.745 34.1612 90.3584 34.3513C88.2548 35.3867 85.5156 37.713 84.4278 42.9686C84.4147 43.0407 84.3688 43.1062 84.3033 43.1521C84.2378 43.1914 84.1591 43.2045 84.0871 43.1848C81.4986 42.5557 78.8249 42.2346 76.1447 42.2346H56.918V42.2281Z" fill="black"/>
<path d="M80.2493 45.9831C80.2493 45.3212 79.712 44.7838 79.0501 44.7838H51.9531C51.2913 44.7838 50.7539 45.3212 50.7539 45.9831C50.7539 46.6449 51.2913 47.1823 51.9531 47.1823H79.0435C79.712 47.1823 80.2493 46.6449 80.2493 45.9831Z" fill="black"/>
<path d="M111.339 81.4091C111.339 78.2636 110.769 75.3999 109.832 73.2243V69.1221H105.421C102.158 69.1221 99.5039 74.6201 99.5039 81.4025C99.5039 88.185 102.151 93.683 105.421 93.683H109.832V89.5808C110.769 87.4183 111.339 84.5546 111.339 81.4091Z" fill="#CADDFF"/>
<path d="M109.832 93.9715H105.422C103.725 93.9715 102.152 92.6346 100.985 90.2165C99.8518 87.8574 99.2227 84.7316 99.2227 81.4092C99.2227 78.0868 99.8452 74.961 100.985 72.6019C102.152 70.1772 103.725 68.847 105.422 68.847H109.832C109.989 68.847 110.114 68.9715 110.114 69.1287V73.172C111.084 75.4525 111.621 78.3751 111.621 81.4092C111.621 84.4433 111.084 87.366 110.114 89.6464V93.6897C110.114 93.847 109.989 93.9715 109.832 93.9715ZM105.422 69.4105C102.316 69.4105 99.7928 74.7906 99.7928 81.4092C99.7928 88.0278 102.322 93.4079 105.422 93.4079H109.55V89.594C109.55 89.5547 109.557 89.5154 109.577 89.4826C110.533 87.2611 111.058 84.3974 111.058 81.4092C111.058 78.421 110.533 75.5573 109.577 73.3358C109.563 73.303 109.55 73.2637 109.55 73.2244V69.4105H105.422Z" fill="black"/>
<path d="M109.831 93.6899C113.1 93.6899 115.749 88.1918 115.749 81.4094C115.749 74.6271 113.1 69.129 109.831 69.129C106.563 69.129 103.914 74.6271 103.914 81.4094C103.914 88.1918 106.563 93.6899 109.831 93.6899Z" fill="white"/>
<path d="M109.832 93.9715C108.135 93.9715 106.562 92.6346 105.396 90.2165C104.262 87.8574 103.633 84.7316 103.633 81.4092C103.633 78.0868 104.255 74.961 105.396 72.6019C106.562 70.1772 108.135 68.847 109.832 68.847C111.529 68.847 113.102 70.1838 114.268 72.6019C115.402 74.961 116.031 78.0868 116.031 81.4092C116.031 84.7316 115.409 87.8574 114.268 90.2165C113.102 92.6412 111.529 93.9715 109.832 93.9715ZM109.832 69.4105C106.726 69.4105 104.203 74.7906 104.203 81.4092C104.203 88.0278 106.732 93.4079 109.832 93.4079C112.938 93.4079 115.461 88.0278 115.461 81.4092C115.461 74.7906 112.938 69.4105 109.832 69.4105Z" fill="black"/>
<path d="M108.047 83.762C108.586 83.762 109.023 82.6941 109.023 81.3767C109.023 80.0593 108.586 78.9914 108.047 78.9914C107.507 78.9914 107.07 80.0593 107.07 81.3767C107.07 82.6941 107.507 83.762 108.047 83.762Z" fill="#5479F7"/>
<path d="M108.048 83.978C107.275 83.978 106.855 82.6346 106.855 81.3764C106.855 80.1117 107.275 78.7749 108.048 78.7749C108.821 78.7749 109.241 80.1183 109.241 81.3764C109.241 82.6346 108.821 83.978 108.048 83.978ZM108.048 79.2074C107.734 79.2074 107.288 80.0331 107.288 81.3764C107.288 82.7198 107.727 83.5455 108.048 83.5455C108.363 83.5455 108.808 82.7198 108.808 81.3764C108.808 80.0331 108.363 79.2074 108.048 79.2074Z" fill="black"/>
<path d="M113.871 81.3767C113.871 82.6939 113.432 83.762 112.894 83.762C112.357 83.762 111.918 82.6939 111.918 81.3767C111.918 80.0595 112.357 78.9914 112.894 78.9914C113.432 78.9914 113.871 80.0595 113.871 81.3767Z" fill="#5479F7"/>
<path d="M112.896 83.978C112.123 83.978 111.703 82.6346 111.703 81.3764C111.703 80.1117 112.123 78.7749 112.896 78.7749C113.669 78.7749 114.088 80.1183 114.088 81.3764C114.088 82.6346 113.669 83.978 112.896 83.978ZM112.896 79.2074C112.581 79.2074 112.136 80.0331 112.136 81.3764C112.136 82.7198 112.575 83.5455 112.896 83.5455C113.217 83.5455 113.656 82.7198 113.656 81.3764C113.656 80.0331 113.21 79.2074 112.896 79.2074Z" fill="black"/>
<path d="M96.2473 68.6165C96.2494 67.3498 95.2243 66.3212 93.9575 66.3191C92.6908 66.317 91.6622 67.3421 91.6601 68.6088C91.658 69.8755 92.6831 70.9041 93.9499 70.9062C95.2166 70.9084 96.2452 69.8832 96.2473 68.6165Z" fill="black"/>
<path d="M93.9557 67.9491C93.9557 68.3292 93.6477 68.6437 93.261 68.6437C92.881 68.6437 92.5664 68.3357 92.5664 67.9491C92.5664 67.569 92.8744 67.2545 93.261 67.2545C93.6477 67.261 93.9557 67.569 93.9557 67.9491Z" fill="white"/>
<path d="M88.597 37.9359C88.597 37.9359 89.9207 44.2662 90.7399 48.3553C91.5328 52.3527 85.5629 52.0906 85.2024 46.0814C84.9665 42.1692 88.597 37.9359 88.597 37.9359Z" fill="#5479F7"/>
<path d="M52.1365 16.1861C52.3986 16.9528 52.6673 17.7261 52.9294 18.4928C51.396 21.1468 48.8731 24.7706 44.8364 27.9816C41.5598 30.5898 40.7079 30.2031 38.4078 32.1035C32.2807 37.1494 35.1181 42.8047 29.3645 50.1966C25.5113 55.1442 19.1614 59.8689 15.0919 58.329C14.1221 57.962 13.0605 57.156 12.3658 56.0813C11.8875 55.3342 10.9635 53.4993 12.0382 49.1809C12.9163 45.6488 14.4497 43.2045 16.4222 40.2425C20.7931 33.6894 23.0801 30.4784 23.9451 29.7313C29.1548 25.2162 32.9229 26.6514 42.0513 22.3722C46.5926 20.2359 50.0002 17.844 52.1365 16.1861Z" fill="black"/>
<path d="M10.4591 83.5779L9.14844 87.6932L12.2939 88.0209L14.5875 83.3616L10.4591 83.5779Z" fill="white"/>
<path d="M12.2954 88.237C12.2888 88.237 12.2823 88.237 12.2757 88.237L9.13022 87.9028C9.06469 87.8962 9.00571 87.8569 8.97295 87.8045C8.94018 87.7521 8.92708 87.68 8.94674 87.621L10.2574 83.5122C10.2836 83.427 10.3622 83.3681 10.4539 83.3615L14.5824 83.1453C14.661 83.1453 14.7331 83.178 14.7724 83.2436C14.8118 83.3091 14.8183 83.3877 14.7855 83.4598L12.492 88.1256C12.4526 88.1911 12.3806 88.237 12.2954 88.237ZM9.43822 87.5031L12.1643 87.7914L14.2285 83.5974L10.6243 83.7875L9.43822 87.5031Z" fill="black"/>
<path d="M7.42912 90.4913C7.56018 89.8294 7.83541 88.8071 8.40553 87.6014C8.58901 87.2147 9.01496 86.9723 9.47368 86.9854L12.2456 87.0771L13.5628 85.5306C13.5628 85.5306 18.4776 87.4572 19.9848 90.3209C20.2207 90.7665 19.8603 91.2776 19.3164 91.2776H8.15651C7.69779 91.2776 7.35048 90.9041 7.42912 90.4913Z" fill="black"/>
<path d="M18.4847 90.3144C18.4322 90.3144 18.3798 90.2947 18.3405 90.2554C16.1256 88.2043 13.2881 86.9134 13.2618 86.9003C13.1504 86.8479 13.1046 86.7233 13.1504 86.6119C13.2029 86.5005 13.3274 86.4547 13.4388 86.5005C13.465 86.5137 16.3746 87.8374 18.6354 89.9343C18.7206 90.013 18.7271 90.1506 18.6485 90.2423C18.5961 90.2947 18.5436 90.3144 18.4847 90.3144Z" fill="white"/>
<path d="M8.15651 91.2775H19.3164C19.7882 91.2775 20.1224 90.8843 20.0438 90.4911H7.42912C7.35048 90.904 7.69779 91.2775 8.15651 91.2775Z" fill="black"/>
<path d="M19.1392 90.7076H7.96625C7.8483 90.7076 7.75 90.6093 7.75 90.4914C7.75 90.3734 7.8483 90.2751 7.96625 90.2751H19.1392C19.2572 90.2751 19.3555 90.3734 19.3555 90.4914C19.3555 90.6093 19.2572 90.7076 19.1392 90.7076Z" fill="white"/>
<path d="M34.2012 70.4653L32.8906 74.5806L36.0296 74.9083L38.3232 70.249L34.2012 70.4653Z" fill="white"/>
<path d="M36.0297 75.1243C36.0232 75.1243 36.0166 75.1243 36.0101 75.1243L32.8646 74.7901C32.7991 74.7835 32.7401 74.7442 32.7073 74.6918C32.6746 74.6394 32.6615 74.5673 32.6811 74.5083L33.9917 70.3995C34.0179 70.3143 34.0966 70.2553 34.1883 70.2488L38.3167 70.0325C38.3954 70.0325 38.4674 70.0653 38.5068 70.1308C38.5461 70.1964 38.5526 70.275 38.5199 70.3471L36.2263 75.0129C36.187 75.0784 36.1149 75.1243 36.0297 75.1243ZM33.1726 74.3903L35.8987 74.6787L37.9629 70.4847L34.3587 70.6747L33.1726 74.3903Z" fill="black"/>
<path d="M31.1635 77.3787C31.2946 76.7168 31.5698 75.6945 32.1399 74.4887C32.3234 74.1021 32.7493 73.8597 33.208 73.8728L35.98 73.9645L37.2972 72.418C37.2972 72.418 42.212 74.3446 43.7192 77.2083C43.9551 77.6539 43.5947 78.165 43.0508 78.165H31.8909C31.4322 78.165 31.0849 77.7915 31.1635 77.3787Z" fill="black"/>
<path d="M42.2112 77.2019C42.1588 77.2019 42.1064 77.1822 42.067 77.1429C39.8521 75.0918 37.0146 73.8008 36.9884 73.7877C36.877 73.7353 36.8311 73.6107 36.877 73.4993C36.9294 73.3879 37.0539 73.3421 37.1653 73.3879C37.1916 73.401 40.1011 74.7248 42.3619 76.8218C42.4471 76.9005 42.4537 77.0381 42.375 77.1298C42.3292 77.1822 42.2702 77.2019 42.2112 77.2019Z" fill="white"/>
<path d="M31.8909 78.1649H43.0508C43.5226 78.1649 43.8568 77.7717 43.7782 77.3785H31.1635C31.0849 77.7914 31.4322 78.1649 31.8909 78.1649Z" fill="black"/>
<path d="M43.1087 77.595H32.2241C32.1061 77.595 32.0078 77.4967 32.0078 77.3788C32.0078 77.2608 32.1061 77.1625 32.2241 77.1625H43.1153C43.2332 77.1625 43.3315 77.2608 43.3315 77.3788C43.3315 77.4967 43.2332 77.595 43.1087 77.595Z" fill="white"/>
<path d="M9.58594 84.3315H14.9005C14.9005 84.3315 23.7603 71.7037 26.4536 56.3629L34.9791 57.5818C34.9791 57.5818 32.0433 63.8269 33.7078 71.4023H38.1377C39.2845 68.8072 41.8336 62.9422 43.8717 57.1559C44.219 56.1729 44.7563 54.5674 44.0879 53.0209C43.7078 52.1428 42.9542 51.3171 39.1731 49.7836C35.89 48.4534 32.2727 47.0314 27.0958 46.8479C25.523 46.7889 24.7367 46.7627 23.6685 46.9658C19.658 47.7325 17.0499 50.5962 15.8245 52.1886C15.8245 52.1886 13.3933 69.2528 9.58594 84.3315Z" fill="#FFDD2D"/>
<path d="M26.5044 56.2842C26.4913 56.2842 26.4782 56.2842 26.4651 56.2842C26.3471 56.2646 26.2685 56.1532 26.2882 56.0352L26.9566 52.1689C26.9762 52.0509 27.0876 51.9723 27.2056 51.992C27.3235 52.0116 27.4022 52.123 27.3825 52.241L26.7141 56.1073C26.701 56.2056 26.6093 56.2842 26.5044 56.2842Z" fill="black"/>
<path d="M29.317 26.0747C29.2319 26.2647 29.0877 26.5072 28.8321 26.6186C28.4848 26.7759 28.1047 26.5924 27.3577 26.0747C25.9619 25.0983 25.2607 24.6068 25.2214 23.9581C25.2082 23.7484 25.2279 23.2962 25.6866 22.713C25.6408 22.6737 25.5883 22.6278 25.5425 22.5688C25.4638 22.4771 25.3721 22.3329 25.3262 22.156L25.7653 22.2149L25.5294 21.6186L26.0405 21.7169C26.0405 21.7169 26.722 19.8165 28.9107 18.7615C30.6932 17.903 31.7876 18.3027 32.1873 19.1415C32.456 19.7051 32.2528 21.5596 30.6932 21.7562C29.1336 21.9594 28.4586 24.7379 29.317 26.0747Z" fill="black"/>
<path d="M32.819 25.1771L32.1178 23.8271C32.3668 23.6174 32.4193 23.1915 32.4193 23.1915C31.4691 22.949 30.7417 21.3697 30.7417 21.3697C30.7417 21.3697 30.165 21.9529 29.3983 21.9333C28.6316 21.9071 27.9697 21.9202 27.8649 22.5558C27.7338 23.3225 28.8282 24.0892 28.8282 24.0892L28.6316 24.5938C28.6316 24.5938 27.4586 24.0958 27.57 24.8756C27.6814 25.6554 28.7299 25.5571 28.7299 25.5571L28.8216 25.6227L27.6552 28.0735L31.954 28.8009L31.1217 27.8507L31.3577 26.3435C31.9409 26.16 32.393 25.911 32.6814 25.7275C32.8649 25.6096 32.9304 25.3671 32.819 25.1771Z" fill="white"/>
<path d="M31.9525 29.0236C31.9394 29.0236 31.9263 29.0236 31.9132 29.0236L27.6144 28.2962C27.5489 28.2831 27.4899 28.2438 27.4571 28.1848C27.4243 28.1259 27.4243 28.0538 27.4506 27.9948L28.5056 25.7864C28.0534 25.7602 27.4374 25.5636 27.3457 24.9149C27.2998 24.6003 27.4243 24.4365 27.5357 24.3513C27.7979 24.1482 28.2304 24.2399 28.499 24.3251L28.558 24.1678C28.2435 23.9188 27.5226 23.2438 27.6406 22.5295C27.7848 21.6711 28.7153 21.7039 29.3968 21.7235C30.0587 21.7432 30.5764 21.232 30.5829 21.2255C30.6354 21.1731 30.7074 21.1534 30.773 21.1665C30.8451 21.1796 30.904 21.2255 30.9302 21.291C31.1203 21.7039 31.769 22.8179 32.4637 22.9948C32.5685 23.021 32.6406 23.1193 32.6275 23.2307C32.6209 23.2766 32.5751 23.6174 32.3785 23.8795L33.0076 25.0918C33.1648 25.3801 33.0731 25.7471 32.7913 25.924C32.5226 26.0944 32.0901 26.3369 31.5462 26.5204L31.3431 27.7982L32.1032 28.6763C32.1622 28.7484 32.1753 28.8467 32.1295 28.9253C32.1032 28.9778 32.0246 29.0236 31.9525 29.0236ZM27.9748 27.9096L31.3955 28.4928L30.963 27.9948C30.9237 27.9489 30.904 27.8834 30.9106 27.8179L31.1465 26.3107C31.1596 26.232 31.2186 26.1599 31.2972 26.1403C31.8608 25.9634 32.2998 25.7209 32.5685 25.5505C32.6537 25.4915 32.6865 25.3801 32.634 25.2884V25.2818L31.9329 23.9319C31.887 23.8402 31.9067 23.7288 31.9853 23.6632C32.077 23.5846 32.136 23.4535 32.1688 23.3356C31.461 23.0341 30.9106 22.1495 30.6747 21.7104C30.4125 21.9004 29.9473 22.1626 29.3903 22.1495C28.5384 22.1232 28.1452 22.1822 28.0731 22.5885C27.9879 23.1062 28.676 23.7156 28.9447 23.9057C29.0233 23.9647 29.0561 24.0695 29.0233 24.1613L28.8267 24.6658C28.807 24.7183 28.7612 24.7641 28.7087 24.7838C28.6563 24.8035 28.5908 24.8035 28.5384 24.7838C28.2697 24.6724 27.8962 24.6003 27.7979 24.679C27.7651 24.7052 27.7717 24.7969 27.7782 24.8362C27.8568 25.3998 28.6694 25.3343 28.7087 25.3343C28.7612 25.3277 28.8136 25.3474 28.8529 25.3736L28.9447 25.4391C29.0298 25.4981 29.0561 25.616 29.0102 25.7078L27.9748 27.9096Z" fill="black"/>
<path d="M30.8779 26.6185C30.6551 26.6185 30.4389 26.5792 30.2292 26.5071C30.1178 26.4678 30.0588 26.3433 30.0981 26.2319C30.1374 26.1205 30.262 26.0615 30.3734 26.1008C30.6551 26.2057 30.9697 26.2122 31.3039 26.1336C31.4218 26.1074 31.5398 26.1795 31.566 26.2909C31.5922 26.4088 31.5201 26.5268 31.4087 26.553C31.2318 26.5923 31.0549 26.6185 30.8779 26.6185Z" fill="black"/>
<path d="M14.3236 54.5937C14.2974 54.5937 14.2646 54.5872 14.2384 54.5741C14.127 54.5282 14.0811 54.3971 14.127 54.2857C14.1532 54.2202 16.9842 48.0341 26.0077 45.8716C26.1257 45.8454 26.2437 45.9174 26.2699 46.0288C26.2961 46.1468 26.224 46.2648 26.1126 46.291C17.3053 48.4011 14.5464 54.4037 14.5202 54.4627C14.4874 54.5478 14.4088 54.5937 14.3236 54.5937Z" fill="white"/>
<path d="M80.3309 40.1678C87.952 32.5468 87.952 20.1907 80.3309 12.5696C72.7099 4.94861 60.3537 4.94861 52.7327 12.5696C45.1117 20.1907 45.1117 32.5468 52.7327 40.1678C60.3537 47.7889 72.7099 47.7889 80.3309 40.1678Z" fill="black"/>
<path d="M80.756 39.1795C88.1519 31.7837 88.1519 19.7926 80.756 12.3968C73.3602 5.00097 61.3692 5.00097 53.9734 12.3968C46.5775 19.7926 46.5775 31.7837 53.9734 39.1795C61.3692 46.5753 73.3602 46.5753 80.756 39.1795Z" fill="#99B9FF"/>
<path d="M67.3656 44.9478C56.802 44.9478 48.2109 36.3567 48.2109 25.7931C48.2109 15.2295 56.802 6.63846 67.3656 6.63846C77.9292 6.63846 86.5203 15.2295 86.5203 25.7931C86.5203 36.3501 77.9292 44.9478 67.3656 44.9478ZM67.3656 7.07096C57.0445 7.07096 48.6434 15.472 48.6434 25.7931C48.6434 36.1142 57.0445 44.5153 67.3656 44.5153C77.6867 44.5153 86.0878 36.1142 86.0878 25.7931C86.0878 15.4655 77.6867 7.07096 67.3656 7.07096Z" fill="black"/>
<path d="M78.5968 37.0248C84.8026 30.819 84.8026 20.7573 78.5968 14.5515C72.3909 8.34562 62.3292 8.34562 56.1234 14.5515C49.9176 20.7573 49.9176 30.819 56.1234 37.0248C62.3292 43.2307 72.3909 43.2307 78.5968 37.0248Z" fill="white"/>
<path d="M80.7293 34.6134C80.69 34.6134 80.6507 34.6003 80.6113 34.5806C80.513 34.5151 80.4803 34.384 80.5458 34.2792C81.3584 33.021 81.9875 31.6514 82.4069 30.2228C82.4396 30.1049 82.5641 30.0459 82.6756 30.0786C82.7935 30.1114 82.859 30.2359 82.8197 30.3473C82.3872 31.8218 81.745 33.2241 80.9062 34.5216C80.8735 34.5806 80.8014 34.6134 80.7293 34.6134Z" fill="black"/>
<path d="M81.6703 19.0761C81.5917 19.0761 81.513 19.0302 81.4737 18.9516C78.8263 13.4994 73.42 10.1115 67.3649 10.1115C62.3911 10.1115 57.6598 12.5099 54.7109 16.5269C54.6389 16.6252 54.5012 16.6449 54.4095 16.5728C54.3112 16.5007 54.2915 16.3631 54.3636 16.2714C57.3911 12.1429 62.2535 9.67896 67.3649 9.67896C70.4449 9.67896 73.4462 10.5505 76.0281 12.2019C78.5445 13.8074 80.5628 16.0748 81.8669 18.7615C81.9193 18.8664 81.8735 18.9975 81.7686 19.0499C81.7358 19.0695 81.7031 19.0761 81.6703 19.0761Z" fill="black"/>
<path d="M67.3652 41.9006C58.4793 41.9006 51.2578 34.6725 51.2578 25.7931C51.2578 23.0343 51.9655 20.3082 53.3089 17.9163C53.3679 17.8115 53.499 17.7721 53.6038 17.8311C53.7087 17.8901 53.748 18.0212 53.689 18.126C52.3849 20.4523 51.6903 23.0998 51.6903 25.7865C51.6903 34.43 58.7217 41.4615 67.3652 41.4615C67.4832 41.4615 67.5815 41.5598 67.5815 41.6777C67.5815 41.8023 67.4832 41.9006 67.3652 41.9006Z" fill="black"/>
<path d="M56.1777 26.8676L55.9025 26.2254C55.8697 26.1533 55.8173 26.0944 55.7452 26.0616C55.5683 25.9699 55.352 26.0747 55.3062 26.2713L54.8081 28.4076L54.6705 28.5125C54.4674 28.6763 54.1725 28.6042 54.0545 28.3748L53.563 27.3657C53.5106 27.2543 53.3664 27.2281 53.2747 27.3001L53.1633 29.7969C53.1633 29.7969 52.816 30.4063 52.082 31.2058C52.2852 31.6842 52.7177 32.1756 53.6286 32.405C53.871 31.9397 54.1004 31.4482 54.3232 30.9174C54.3232 30.9174 56.2564 29.561 56.4136 29.0498C56.5709 28.5452 56.4071 26.9463 56.1777 26.8676Z" fill="white"/>
<path d="M53.6266 32.6279C53.6069 32.6279 53.5938 32.6279 53.5742 32.6213C52.5257 32.3592 52.0735 31.7563 51.8769 31.2976C51.8442 31.219 51.8573 31.1272 51.9162 31.0683C52.5126 30.4195 52.8533 29.8887 52.9451 29.7445L53.0565 27.3068C53.0565 27.2412 53.0892 27.1888 53.1351 27.1495C53.2334 27.0709 53.3579 27.0446 53.4759 27.0709C53.5938 27.0971 53.6987 27.1757 53.7511 27.2871L54.2426 28.2963C54.2688 28.3487 54.3147 28.3815 54.3671 28.3946C54.3999 28.4011 54.4654 28.4077 54.5244 28.3553L54.5964 28.2963L55.0748 26.2321C55.1141 26.0748 55.219 25.9437 55.3632 25.8716C55.5073 25.7996 55.6777 25.8061 55.8219 25.8782C55.9398 25.9372 56.0316 26.0355 56.084 26.1534L56.3461 26.7498C56.7 27.1495 56.7196 28.755 56.6082 29.1285C56.4444 29.6593 54.911 30.7734 54.485 31.0748C54.2753 31.5663 54.046 32.0578 53.8035 32.5165C53.7839 32.582 53.7052 32.6279 53.6266 32.6279ZM52.3356 31.2517C52.5584 31.6777 52.9516 31.9791 53.5152 32.1561C53.7314 31.7301 53.9346 31.2911 54.1246 30.8454C54.1377 30.8061 54.1639 30.7734 54.1967 30.7537C55.1141 30.1049 56.1168 29.2727 56.2019 28.9975C56.3396 28.5584 56.1888 27.274 56.0578 27.0578C56.025 27.0315 55.9922 26.9988 55.9791 26.9595L55.7039 26.3173C55.6908 26.291 55.6711 26.2714 55.6515 26.2583C55.6187 26.2386 55.586 26.2517 55.5729 26.2583C55.5597 26.2648 55.5335 26.2845 55.5204 26.3238L55.0224 28.4601C55.0093 28.506 54.9831 28.5519 54.9438 28.5781L54.8061 28.6829C54.6554 28.8009 54.4654 28.8467 54.2819 28.8009C54.0984 28.7616 53.9411 28.637 53.8625 28.4667L53.4759 27.6737L53.3776 29.8035C53.3776 29.8363 53.3645 29.869 53.3514 29.9018C53.3383 29.9346 53.0106 30.4981 52.3356 31.2517Z" fill="black"/>
<path d="M55.5521 29.1744C55.5258 29.1744 55.4996 29.1678 55.4734 29.1613C55.362 29.1154 55.3096 28.9909 55.3489 28.8795L55.6635 28.0866L55.6831 26.2255C55.6831 26.1075 55.7814 26.0092 55.8994 26.0092C56.0173 26.0092 56.1156 26.1075 56.1156 26.2255L56.0959 28.1259C56.0959 28.1521 56.0894 28.1783 56.0828 28.2045L55.7552 29.0302C55.7159 29.122 55.6372 29.1744 55.5521 29.1744Z" fill="black"/>
<path d="M29.4411 31.1928C30.6796 31.1862 31.597 31.6515 32.0164 31.8546C32.7831 32.2085 33.871 32.6672 35.1947 33.0866C36.525 33.506 39.6115 34.4824 42.7242 34.3317C47.2851 34.1154 50.7124 31.5466 52.3113 30.1377C53.0977 30.6554 53.884 31.1731 54.6704 31.6842C53.9627 33.1063 52.5669 35.4392 50.0374 37.4837C46.8133 40.0918 43.5367 40.7799 41.4725 41.219C37.8356 41.9857 35.1357 41.6515 31.9181 41.2583C28.0846 40.7865 26.9313 40.0591 26.2039 39.4038C25.9024 39.1351 23.7071 37.1495 24.2117 34.7576C24.7032 32.4247 27.4555 31.1993 29.4411 31.1928Z" fill="black"/>
<path d="M34.9141 33.126C34.901 33.126 34.8879 33.126 34.8813 33.126C34.0229 32.9818 33.4265 32.7 32.7319 32.3658C32.1159 32.0709 31.4147 31.7302 30.3924 31.4484C28.3413 30.8783 26.703 31.835 26.6834 31.8481C26.5785 31.9071 26.4475 31.8743 26.3885 31.7695C26.3295 31.6646 26.3623 31.5336 26.4671 31.4746C26.5392 31.4287 28.2889 30.413 30.5104 31.0355C31.572 31.3304 32.2928 31.6777 32.9219 31.9792C33.5838 32.3003 34.1539 32.5755 34.9534 32.7066C35.0714 32.7262 35.15 32.8376 35.1303 32.9556C35.1107 33.0539 35.0189 33.126 34.9141 33.126Z" fill="white"/>
<path d="M31.7248 40.6161C31.7182 40.6161 31.7117 40.6161 31.7117 40.6161C25.6435 40.1967 24.6016 37.1692 24.5623 37.0381C24.5229 36.9267 24.5885 36.8022 24.6999 36.7629C24.8113 36.7301 24.9358 36.7891 24.9751 36.9005C24.9817 36.9267 25.9974 39.7773 31.7444 40.1771C31.8624 40.1836 31.9541 40.2885 31.9476 40.4064C31.9345 40.531 31.8362 40.6161 31.7248 40.6161Z" fill="white"/>
<path d="M66.2258 65.0392C66.0685 65.0392 65.9375 64.9082 65.9375 64.7509V61.0418C65.9375 60.8845 66.0685 60.7534 66.2258 60.7534C66.3831 60.7534 66.5141 60.8845 66.5141 61.0418V64.7509C66.5141 64.9082 66.3831 65.0392 66.2258 65.0392Z" fill="black"/>
<path d="M53.4937 115.538H27.301C26.4294 115.538 25.7217 114.83 25.7217 113.958V111.239C25.7217 110.688 25.2761 110.236 24.7191 110.236H19.9222C19.0506 110.236 18.3429 109.528 18.3429 108.657V102.228C18.3429 101.678 17.8973 101.226 17.3403 101.226H5.85273C4.98117 101.226 4.27344 100.518 4.27344 99.6464V92.5625C4.27344 91.6909 4.98117 90.9832 5.85273 90.9832H21.1214C21.6719 90.9832 22.124 90.5376 22.124 89.9806V85.4262C22.124 84.5546 22.8318 83.8469 23.7033 83.8469H28.3429C28.8934 83.8469 29.3455 83.4013 29.3455 82.8443V79.4432C29.3455 78.5717 30.0533 77.8639 30.9248 77.8639H47.5107C48.0612 77.8639 48.5133 77.4183 48.5133 76.8613V72.7525C48.5133 71.881 49.2211 71.1732 50.0926 71.1732H65.1647C65.5972 71.1732 65.9511 70.8194 65.9511 70.3869V66.3174C65.9511 66.1601 66.0821 66.0291 66.2394 66.0291C66.3967 66.0291 66.5278 66.1601 66.5278 66.3174V70.4C66.5278 71.1536 65.9118 71.7696 65.1582 71.7696H50.0861C49.5356 71.7696 49.0834 72.2152 49.0834 72.7722V76.881C49.0834 77.7525 48.3757 78.4603 47.5041 78.4603H30.9117C30.3613 78.4603 29.9091 78.9059 29.9091 79.4629V82.8639C29.9091 83.7355 29.2014 84.4432 28.3298 84.4432H23.6902C23.1398 84.4432 22.6876 84.8888 22.6876 85.4459V90.0003C22.6876 90.8718 21.9799 91.5795 21.1083 91.5795H5.83963C5.28917 91.5795 4.837 92.0252 4.837 92.5822V99.6661C4.837 100.217 5.28261 100.669 5.83963 100.669H17.3337C18.2053 100.669 18.913 101.376 18.913 102.248V108.69C18.913 109.24 19.3586 109.692 19.9157 109.692H24.7191C25.5906 109.692 26.2984 110.4 26.2984 111.272V113.991C26.2984 114.542 26.744 114.994 27.301 114.994H53.4937C53.6509 114.994 53.782 115.125 53.782 115.282C53.782 115.413 53.6575 115.538 53.4937 115.538Z" fill="black"/>
<path d="M66.2258 52.2018C66.0685 52.2018 65.9375 52.0708 65.9375 51.9135V49.2726C65.9375 49.1153 66.0685 48.9843 66.2258 48.9843C66.3831 48.9843 66.5141 49.1153 66.5141 49.2726V51.9135C66.5141 52.0773 66.3831 52.2018 66.2258 52.2018Z" fill="black"/>
<path d="M66.2258 59.8757C66.0685 59.8757 65.9375 59.7446 65.9375 59.5873V54.6987C65.9375 54.5415 66.0685 54.4104 66.2258 54.4104C66.3831 54.4104 66.5141 54.5415 66.5141 54.6987V59.5873C66.5141 59.7512 66.3831 59.8757 66.2258 59.8757Z" fill="black"/>
<path d="M107.982 45.1901C107.942 45.1901 107.903 45.1836 107.864 45.1639C107.72 45.0984 107.654 44.928 107.713 44.7838C109.725 40.1967 110.537 35.2819 110.066 30.5571C110.052 30.3999 110.164 30.2557 110.328 30.2426C110.485 30.2295 110.629 30.3409 110.642 30.5047C111.121 35.3212 110.295 40.3409 108.244 45.0198C108.198 45.1246 108.093 45.1901 107.982 45.1901Z" fill="black"/>
<path d="M109.585 26.599C109.454 26.599 109.343 26.5138 109.304 26.3827C108.222 22.3198 106.197 18.578 103.281 15.2687C97.6457 8.85977 89.2512 4.7641 79.6444 3.72216C79.4872 3.7025 79.3692 3.56488 79.3889 3.40105C79.4085 3.24378 79.5461 3.12583 79.71 3.14548C89.4609 4.20053 97.993 8.37484 103.72 14.8886C106.689 18.27 108.76 22.0839 109.867 26.2385C109.906 26.3958 109.815 26.5531 109.664 26.5924C109.638 26.599 109.612 26.599 109.585 26.599Z" fill="black"/>
<path d="M108.591 18.3028C108.493 18.3028 108.395 18.2504 108.342 18.1652C107.458 16.7039 106.429 15.295 105.269 13.9778C96.2126 3.67635 80.2624 -0.465202 64.6333 3.42733C64.4761 3.46665 64.3188 3.3749 64.286 3.21763C64.2467 3.06035 64.345 2.90308 64.4957 2.87032C80.3345 -1.06809 96.5075 3.14555 105.701 13.6043C106.881 14.9476 107.936 16.3828 108.84 17.8703C108.926 18.0079 108.88 18.1849 108.742 18.2701C108.69 18.2897 108.644 18.3028 108.591 18.3028Z" fill="black"/>
<path d="M71.6845 3.93201C71.3437 3.93201 70.9767 3.73541 70.5836 3.33568C70.4721 3.22427 70.4721 3.04079 70.5836 2.92938C70.695 2.81798 70.8784 2.81798 70.9898 2.92938C71.383 3.32257 71.6124 3.36844 71.7172 3.35533C71.8549 3.34223 71.9531 3.20461 72.0973 2.98836C72.2546 2.7459 72.4512 2.44446 72.8313 2.44446C73.1982 2.44446 73.4276 2.73934 73.6111 2.9687C73.7421 3.13253 73.8732 3.30291 73.9977 3.30946C74.1353 3.32257 74.2926 3.11287 74.4302 2.93594C74.6334 2.68037 74.8824 2.35927 75.2756 2.4248C75.5704 2.47722 75.7081 2.71969 75.8064 2.89662C75.8916 3.05389 75.9505 3.14564 76.0554 3.1784C76.1471 3.20461 76.2323 3.1653 76.442 3.04734C76.6321 2.93594 76.868 2.80488 77.1891 2.75245C77.7461 2.66726 78.3883 2.87696 79.0895 3.37499C79.2205 3.46674 79.2533 3.65022 79.1615 3.77473C79.0698 3.90579 78.8863 3.93856 78.7618 3.84682C78.1851 3.44053 77.6805 3.26359 77.2808 3.32257C77.0646 3.35533 76.8942 3.45363 76.7369 3.54537C76.501 3.68299 76.2389 3.83371 75.8981 3.72886C75.5704 3.63056 75.4197 3.36844 75.3149 3.17185C75.2821 3.10632 75.2231 3.00147 75.1904 2.98836C75.1314 2.99491 74.9807 3.18495 74.902 3.2898C74.6858 3.56503 74.4171 3.90579 73.9846 3.87958C73.6045 3.85992 73.3686 3.55848 73.1786 3.32257C73.0672 3.18495 72.9361 3.01457 72.8509 3.01457C72.7854 3.01457 72.6871 3.1653 72.6019 3.29636C72.4446 3.53882 72.2218 3.87958 71.8024 3.92545C71.75 3.92545 71.7172 3.93201 71.6845 3.93201Z" fill="black"/>
<path d="M109.375 46.1601C109.329 46.1601 109.277 46.1536 109.231 46.147C108.851 46.0749 108.582 45.7342 108.641 45.3868C108.667 45.2296 108.752 45.0854 108.89 44.9871C109.047 44.8757 109.244 44.8364 109.447 44.8757C109.827 44.9478 110.096 45.2885 110.037 45.6359C110.011 45.7931 109.925 45.9373 109.788 46.0356C109.663 46.1208 109.526 46.1601 109.375 46.1601ZM109.296 45.3016C109.237 45.3016 109.178 45.3148 109.139 45.3475C109.113 45.3672 109.073 45.3999 109.067 45.4589C109.047 45.5769 109.159 45.6948 109.309 45.7276C109.395 45.7407 109.473 45.7276 109.532 45.6883C109.558 45.6686 109.598 45.6359 109.604 45.5769C109.624 45.4589 109.512 45.341 109.362 45.3082C109.336 45.3016 109.316 45.3016 109.296 45.3016Z" fill="black"/>
<path d="M110.012 44.2859C109.946 44.2859 109.887 44.2597 109.841 44.2072C109.795 44.1483 109.782 44.0762 109.802 44.0041C109.979 43.4405 110.215 42.9097 110.221 42.8835C110.247 42.818 110.306 42.7721 110.378 42.759C110.451 42.7459 110.523 42.7656 110.569 42.8114L111.578 43.7682C111.637 43.8272 111.663 43.9123 111.637 43.9975C111.61 44.0762 111.538 44.1351 111.453 44.1417L110.031 44.2793C110.025 44.2859 110.018 44.2859 110.012 44.2859ZM110.503 43.3488C110.451 43.4798 110.385 43.6437 110.326 43.8206L110.942 43.7616L110.503 43.3488Z" fill="black"/>
<g clip-path="url(#clip0_2131_10048)">
<path d="M69.7202 28.6056C72.867 28.6056 75.407 26.0448 75.4051 22.886C75.4031 19.7322 72.8498 17.1664 69.7133 17.1664H63.9869C63.6916 17.1664 63.4524 17.4071 63.4526 17.7039L63.4572 25.2273H62.2739C61.9786 25.2273 61.7394 25.468 61.7396 25.7649L61.741 28.068C61.7412 28.3649 61.9807 28.6056 62.2759 28.6056H63.4592L63.46 29.8336H62.2767C61.9814 29.8336 61.7422 30.0743 61.7424 30.3712L61.7438 32.6743C61.744 32.9712 61.9835 33.2119 62.2787 33.2119H63.462L63.4631 34.9774C63.4633 35.2743 63.7028 35.515 63.998 35.515H66.2886C66.5838 35.515 66.8231 35.2743 66.8229 34.9774L66.8218 33.2119H70.2956C70.5909 33.2119 70.8301 32.9712 70.8299 32.6743L70.8285 30.3712C70.8283 30.0743 70.5888 29.8336 70.2936 29.8336H66.8197L66.819 28.6056H69.7202ZM66.8141 20.5446H69.7153C70.9992 20.5446 72.0444 21.595 72.0452 22.886C72.046 24.177 71.002 25.2273 69.7181 25.2273H66.8169L66.8141 20.5446Z" fill="#5479F7"/>
</g>
<defs>
<clipPath id="clip0_2131_10048">
<rect width="18.3487" height="18.3486" fill="white" transform="matrix(1 0 0.000607104 1 59.3359 17.1692)"/>
</clipPath>
</defs>
</svg>
