<svg width="120" height="120" viewBox="0 0 120 120" fill="none" xmlns="http://www.w3.org/2000/svg">
<g clip-path="url(#clip0_2131_9828)">
<path d="M5.2017 37.086C2.59358 42.8178 -0.925428 54.865 0.621098 68.5255C2.61323 86.0422 12.1218 98.7911 21.7024 106.549C53.4848 132.31 109.894 117.213 117.6 92.9479C118.996 88.5474 120.385 82.7566 119.9 77.5298C118.36 60.9181 116.696 57.2653 111.25 39.624C106.29 23.5698 112.548 21.5106 107.915 14.3754C97.8557 -1.10174 62.0431 -3.32493 42.0693 4.09883C34.3891 6.9516 14.7364 16.1001 5.2017 37.086Z" fill="#CADDFF"/>
<path d="M96.6658 18.12L96.4889 16.6051L94.8309 16.4346C94.7261 16.0936 94.595 15.7591 94.4377 15.4443L95.519 14.1786L94.6016 12.9523L93.0747 13.6343C92.8126 13.3917 92.5373 13.1752 92.2425 12.9785L92.5439 11.339L91.1415 10.7356L90.1651 12.0866C89.8244 12.0079 89.4705 11.9554 89.1101 11.9358L88.5531 10.3618L87.0393 10.5389L86.8689 12.1981C86.5282 12.303 86.194 12.4342 85.8794 12.5916L84.6147 11.5095L83.3892 12.4276L84.0708 13.9557C83.8283 14.218 83.6055 14.4934 83.4155 14.7885L81.7772 14.4869L81.1743 15.8903L82.5242 16.8674C82.4456 17.2085 82.3932 17.5626 82.3735 17.9233L80.8008 18.4807L80.9777 19.9957L82.6356 20.1662C82.7405 20.5072 82.8716 20.8417 83.0288 21.1564L81.9476 22.4222L82.865 23.6485L84.3919 22.9665C84.654 23.2091 84.9292 23.4321 85.2241 23.6223L84.9227 25.2618L86.325 25.8652L87.3014 24.5142C87.6422 24.5929 87.9961 24.6453 88.3565 24.665L88.9135 26.239L90.4273 26.0619L90.5976 24.4027C90.9384 24.2978 91.2726 24.1666 91.5871 24.0092L92.8519 25.0913L94.0773 24.1732L93.3958 22.6451C93.6383 22.3828 93.8611 22.1074 94.0511 21.8122L95.6894 22.1139L96.2923 20.7105L94.9423 19.7333C95.021 19.3923 95.0734 19.0382 95.093 18.6775L96.6658 18.12ZM89.1887 22.2057C87.0328 22.4615 85.0734 20.9203 84.8178 18.7627C84.5623 16.6051 86.1022 14.6443 88.2582 14.3885C90.4142 14.1327 92.3735 15.6739 92.6291 17.8315C92.8847 19.9891 91.3447 21.95 89.1887 22.2057Z" fill="white"/>
<path d="M88.7487 26.4751L88.1851 24.8683C87.9099 24.8487 87.6412 24.8093 87.3791 24.7503L86.383 26.1275L84.6596 25.3864L84.9676 23.7141C84.7448 23.5567 84.5351 23.3928 84.3319 23.2091L82.7788 23.9043L81.6583 22.4025L82.7657 21.1171C82.6543 20.8745 82.5495 20.6187 82.4643 20.3629L80.7736 20.1858L80.5508 18.3234L82.1563 17.7594C82.1759 17.4839 82.2153 17.215 82.2742 16.9527L80.8981 15.9559L81.6386 14.2311L83.3096 14.5393C83.4604 14.3164 83.6307 14.1065 83.8142 13.9032L83.1196 12.3489L84.6202 11.2275L85.9112 12.3292C86.1537 12.2178 86.4092 12.1128 86.6648 12.0276L86.8417 10.3356L88.7028 10.1126L89.2664 11.7193C89.5416 11.739 89.8103 11.7784 90.0724 11.8374L91.0685 10.4602L92.7919 11.2013L92.4839 12.8736C92.7067 13.0244 92.9164 13.1949 93.1196 13.3785L94.6727 12.6834L95.7932 14.1852L94.6923 15.4771C94.8037 15.7198 94.9086 15.9756 94.9938 16.2313L96.6845 16.4084L96.9073 18.2709L95.3018 18.8349C95.2821 19.1103 95.2428 19.3792 95.1838 19.6415L96.56 20.6384L95.8195 22.3631L94.1484 22.0549C93.9977 22.2779 93.8273 22.4877 93.6438 22.691L94.3385 24.2453L92.8378 25.3667L91.5469 24.265C91.3044 24.3765 91.0488 24.4814 90.7932 24.5667L90.6163 26.2587L88.7487 26.4751ZM87.1956 24.2715L87.3332 24.3043C87.6609 24.383 88.0016 24.4289 88.3489 24.4486L88.4931 24.4552L89.037 26.0029L90.21 25.8652L90.3804 24.2322L90.518 24.1928C90.8522 24.0945 91.1733 23.9633 91.4748 23.8125L91.6058 23.7469L92.8509 24.8093L93.7946 24.101L93.1261 22.6058L93.2244 22.5009C93.4603 22.2517 93.6701 21.9762 93.8601 21.6942L93.9387 21.5762L95.5508 21.8778L96.016 20.7892L94.6923 19.8252L94.7251 19.6874C94.8037 19.3595 94.8496 19.0185 94.8693 18.6709L94.8758 18.5267L96.4223 17.9823L96.2847 16.8084L94.653 16.6379L94.6137 16.5002C94.5154 16.1657 94.3843 15.8444 94.2336 15.5427L94.1681 15.4116L95.2297 14.1655L94.5219 13.2211L93.0278 13.8901L92.923 13.7917C92.674 13.5556 92.3987 13.3458 92.117 13.1556L91.999 13.0769L92.3005 11.4636L91.2126 10.998L90.2493 12.3227L90.1117 12.2899C89.7841 12.2112 89.4433 12.1653 89.096 12.1456L88.9518 12.1391L88.4079 10.5914L87.2349 10.7291L87.0645 12.362L86.9269 12.4014C86.5927 12.4998 86.2716 12.6309 85.9702 12.7818L85.8391 12.8473L84.594 11.7849L83.6504 12.4932L84.3188 13.9884L84.2205 14.0934C83.9846 14.3426 83.7749 14.618 83.5849 14.9L83.5062 15.0181L81.8942 14.7164L81.4289 15.805L82.7526 16.7691L82.7199 16.9068C82.6412 17.2347 82.5953 17.5757 82.5757 17.9233L82.5691 18.0676L81.0226 18.6119L81.1602 19.7858L82.7919 19.9563L82.8313 20.094C82.9296 20.4285 83.0606 20.7498 83.2113 21.0515L83.2769 21.1827L82.2153 22.4287L82.923 23.3731L84.4171 22.7042L84.522 22.8025C84.771 23.0386 85.0462 23.2485 85.328 23.4387L85.4459 23.5174L85.1445 25.1307L86.2323 25.5963L87.1956 24.2715ZM88.7159 22.4484C87.7919 22.4484 86.8942 22.1402 86.1537 21.5565C85.2821 20.8679 84.7316 19.8842 84.6006 18.7824C84.4695 17.6807 84.7775 16.592 85.459 15.7263C86.1471 14.8541 87.1301 14.3032 88.231 14.1721C89.3319 14.0409 90.4197 14.3491 91.2847 15.0312C92.1563 15.7198 92.7067 16.7035 92.8378 17.8053C92.9689 18.907 92.6609 19.9957 91.9794 20.8613C91.2913 21.7336 90.3083 22.2844 89.2074 22.4156C89.0501 22.4418 88.8798 22.4484 88.7159 22.4484ZM88.7356 14.5787C88.5849 14.5787 88.4407 14.5852 88.29 14.6049C87.307 14.723 86.4223 15.2148 85.8064 15.9952C85.1904 16.7756 84.9151 17.7462 85.0331 18.7365C85.151 19.7202 85.6425 20.6056 86.4223 21.222C87.2022 21.8385 88.172 22.1074 89.1615 21.9959C90.1445 21.8778 91.0292 21.386 91.6451 20.6056C92.2611 19.8252 92.5364 18.8546 92.4184 17.8643C92.3005 16.8806 91.809 15.9952 91.0292 15.3788C90.3607 14.8541 89.5613 14.5787 88.7356 14.5787Z" fill="#5479F7"/>
<path d="M79.7841 11.2537L79.2861 9.12885L76.9073 9.14853C76.7042 8.67634 76.4683 8.23039 76.193 7.81067L77.5233 5.84325L76.0292 4.25619L73.9781 5.46288C73.5718 5.16121 73.1393 4.89232 72.6872 4.66279L72.8575 2.28876L70.7737 1.65918L69.6007 3.73154C69.1026 3.67252 68.598 3.6594 68.0803 3.68563L67.0384 1.54114L64.9152 2.03955L64.9349 4.42014C64.463 4.62344 64.0174 4.85953 63.598 5.13497L61.6321 3.80368L60.0463 5.29893L61.252 7.35161C60.9506 7.75821 60.6819 8.19104 60.4526 8.64355L58.0803 8.47304L57.4512 10.5585L59.522 11.7324C59.463 12.2308 59.4499 12.7358 59.4761 13.2539L57.3398 14.2835L57.8379 16.4083L60.2166 16.3887C60.4198 16.8608 60.6557 17.3068 60.9309 17.7265L59.6007 19.6939L61.0948 21.281L63.1459 20.0743C63.5522 20.376 63.9847 20.6449 64.4368 20.8744L64.2664 23.2484L66.3503 23.878L67.5233 21.8056C68.0214 21.8647 68.5259 21.8778 69.0436 21.8516L70.0856 23.996L72.2088 23.4976L72.1891 21.117C72.6609 20.9137 73.1066 20.6777 73.5259 20.4022L75.4919 21.7335L77.0777 20.2383L75.872 18.1856C76.1734 17.779 76.4421 17.3461 76.6714 16.8936L79.0436 17.0641L79.6727 14.9787L77.602 13.8048C77.6609 13.3064 77.674 12.8014 77.6478 12.2833L79.7841 11.2537ZM69.8431 18.2315C66.8287 18.9398 63.8077 17.0707 63.1 14.0474C62.3923 11.0307 64.2599 8.00742 67.2809 7.29914C70.2953 6.59087 73.3162 8.45993 74.024 11.4832C74.7317 14.5065 72.8575 17.5232 69.8431 18.2315Z" fill="white"/>
<path d="M69.9601 24.2518L68.9051 22.0811C68.4791 22.0942 68.0532 22.0877 67.6403 22.0418L66.4542 24.1404L64.0361 23.4124L64.2065 21.0056C63.833 20.8088 63.4726 20.5859 63.1318 20.3367L61.0545 21.563L59.3244 19.7202L60.6744 17.7265C60.4516 17.3724 60.255 16.9986 60.0781 16.6051L57.6665 16.6248L57.0898 14.1655L59.2589 13.1096C59.2393 12.6834 59.2524 12.2571 59.2982 11.8439L57.2012 10.6569L57.9286 8.23698L60.3336 8.40749C60.5302 8.03368 60.753 7.67298 61.002 7.33196L59.7766 5.25305L61.618 3.52171L63.6102 4.87268C63.964 4.6497 64.3376 4.45296 64.7308 4.27589L64.7111 1.86251L67.1685 1.2854L68.2236 3.45613C68.6495 3.44301 69.0755 3.44957 69.4883 3.49548L70.6744 1.39689L73.0925 2.12484L72.9221 4.53166C73.2957 4.7284 73.6561 4.95137 73.9968 5.20058L76.0742 3.97422L77.8042 5.81704L76.4542 7.8107C76.6771 8.16484 76.8737 8.53865 77.0506 8.93214L79.4621 8.91246L80.0388 11.3717L77.8697 12.4276C77.8894 12.8539 77.8763 13.2802 77.8304 13.6933L79.9274 14.8803L79.2 17.3003L76.795 17.1298C76.5984 17.5036 76.3756 17.8643 76.1266 18.2053L77.352 20.2842L75.5106 22.0155L73.5185 20.6646C73.1646 20.8875 72.7911 21.0843 72.3979 21.2614L72.4175 23.6747L69.9601 24.2518ZM69.1672 21.6352L70.196 23.7534L71.9785 23.3337L71.9588 20.9794L72.0899 20.9203C72.5486 20.7236 72.9877 20.4875 73.394 20.2186L73.5119 20.1399L75.4582 21.4581L76.795 20.2055L75.6023 18.179L75.6875 18.061C75.9824 17.6675 76.2446 17.2412 76.4674 16.8018L76.5329 16.6707L78.8789 16.8412L79.4097 15.0836L77.3651 13.9294L77.3848 13.7851C77.4372 13.2998 77.4569 12.8014 77.4307 12.303L77.4241 12.1587L79.5408 11.1291L79.1214 9.3453L76.7688 9.36497L76.7098 9.23381C76.5132 8.77474 76.2773 8.33535 76.0086 7.92875L75.93 7.8107L77.2472 5.86295L75.989 4.5251L73.9641 5.71867L73.8461 5.63342C73.4529 5.3383 73.027 5.07598 72.5879 4.853L72.4569 4.78742L72.6272 2.43962L70.871 1.90842L69.7242 3.9611L69.5801 3.94143C69.0951 3.88241 68.5971 3.86929 68.099 3.89552L67.9549 3.90208L66.926 1.78382L65.1436 2.20353L65.1633 4.55789L65.0322 4.61691C64.5735 4.81365 64.1344 5.04975 63.7281 5.31863L63.6102 5.39733L61.6639 4.07915L60.3271 5.33174L61.5197 7.35819L61.4345 7.47624C61.1397 7.86973 60.8775 8.296 60.6547 8.73539L60.5892 8.86656L58.2432 8.69605L57.7124 10.4536L59.757 11.6078L59.7373 11.7521C59.6783 12.2374 59.6652 12.7358 59.6914 13.2342L59.698 13.3785L57.5813 14.4081L58.0007 16.1919L60.3533 16.1723L60.4123 16.3034C60.6089 16.7625 60.8448 17.2019 61.1134 17.6085L61.1921 17.7265L59.8749 19.6743L61.1266 21.0121L63.1515 19.8186L63.2694 19.9038C63.6626 20.1989 64.0886 20.4613 64.5276 20.6842L64.6587 20.7498L64.4883 23.0976L66.2445 23.6288L67.3979 21.5827L67.542 21.6024C68.027 21.6614 68.525 21.6745 69.023 21.6483L69.1672 21.6352ZM68.5578 18.5988C65.9169 18.5988 63.5184 16.7822 62.8893 14.0999C62.1554 10.9717 64.1017 7.82382 67.2275 7.08931C68.7413 6.73518 70.3074 6.99094 71.6246 7.8107C72.9483 8.63047 73.8723 9.91585 74.2262 11.4308C74.9601 14.559 73.0139 17.7069 69.888 18.4414C69.449 18.5529 69.0034 18.5988 68.5578 18.5988ZM68.5709 7.37131C68.158 7.37131 67.7386 7.41722 67.3258 7.51559C64.4293 8.19763 62.6272 11.1029 63.3087 14.0015C63.9903 16.9002 66.8933 18.7037 69.7897 18.0217C72.6862 17.3396 74.4883 14.4344 73.8068 11.5357C73.4791 10.1323 72.6207 8.9387 71.3953 8.18451C70.5368 7.64675 69.5604 7.37131 68.5709 7.37131Z" fill="#5479F7"/>
<path d="M101.69 103.382C101.585 103.382 101.487 103.303 101.474 103.192L101.33 102.077C101.316 101.959 101.395 101.847 101.52 101.834C101.638 101.821 101.749 101.9 101.762 102.024L101.907 103.139C101.92 103.257 101.841 103.369 101.723 103.382C101.71 103.382 101.703 103.382 101.69 103.382Z" fill="black"/>
<path d="M102.03 105.972C101.925 105.972 101.827 105.894 101.814 105.782L101.669 104.667C101.656 104.549 101.735 104.438 101.853 104.425C101.971 104.411 102.083 104.49 102.096 104.615L102.24 105.73C102.253 105.848 102.174 105.959 102.05 105.972C102.05 105.972 102.043 105.972 102.03 105.972Z" fill="black"/>
<path d="M99.9403 104.366C99.8355 104.366 99.7372 104.287 99.7241 104.175C99.711 104.057 99.7896 103.946 99.9076 103.933L101.022 103.788C101.14 103.775 101.251 103.854 101.264 103.972C101.277 104.09 101.198 104.202 101.074 104.215L99.96 104.359C99.96 104.359 99.9469 104.366 99.9403 104.366Z" fill="black"/>
<path d="M102.53 104.024C102.425 104.024 102.327 103.946 102.314 103.834C102.301 103.716 102.379 103.605 102.504 103.592L103.618 103.447C103.736 103.434 103.847 103.513 103.86 103.631C103.874 103.749 103.795 103.861 103.677 103.874L102.563 104.018C102.55 104.024 102.537 104.024 102.53 104.024Z" fill="black"/>
<path d="M96.8275 108.209C96.644 108.209 96.454 108.176 96.2705 108.097C95.9101 107.946 95.6349 107.671 95.4841 107.31C95.3334 106.949 95.3334 106.556 95.4841 106.195C95.6349 105.835 95.9101 105.559 96.2705 105.408C96.6309 105.257 97.0241 105.257 97.3845 105.408C98.125 105.716 98.4789 106.569 98.1709 107.304C97.935 107.874 97.3911 108.209 96.8275 108.209ZM96.8275 105.736C96.6965 105.736 96.5654 105.762 96.4409 105.815C96.1919 105.92 95.9953 106.117 95.8904 106.366C95.7856 106.615 95.7856 106.897 95.8904 107.146C95.9953 107.395 96.1919 107.592 96.4409 107.697C96.9586 107.913 97.5549 107.664 97.7712 107.146C97.9874 106.628 97.7384 106.031 97.2207 105.815C97.0896 105.762 96.9586 105.736 96.8275 105.736Z" fill="black"/>
<path d="M13.1774 31.4396C13.0593 31.4396 12.9609 31.3412 12.9609 31.2231V30.1017C12.9609 29.9836 13.0593 29.8853 13.1774 29.8853C13.2954 29.8853 13.3938 29.9836 13.3938 30.1017V31.2166C13.3938 31.3412 13.2954 31.4396 13.1774 31.4396Z" fill="black"/>
<path d="M13.1774 34.0497C13.0593 34.0497 12.9609 33.9513 12.9609 33.8333V32.7118C12.9609 32.5938 13.0593 32.4954 13.1774 32.4954C13.2954 32.4954 13.3938 32.5938 13.3938 32.7118V33.8333C13.3938 33.9513 13.2954 34.0497 13.1774 34.0497Z" fill="black"/>
<path d="M12.4306 32.1806H11.31C11.192 32.1806 11.0938 32.0822 11.0938 31.9642C11.0938 31.8461 11.192 31.7477 11.31 31.7477H12.4306C12.5485 31.7477 12.6468 31.8461 12.6468 31.9642C12.6468 32.0822 12.5485 32.1806 12.4306 32.1806Z" fill="black"/>
<path d="M15.036 32.1806H13.9155C13.7975 32.1806 13.6992 32.0822 13.6992 31.9642C13.6992 31.8461 13.7975 31.7477 13.9155 31.7477H15.036C15.154 31.7477 15.2523 31.8461 15.2523 31.9642C15.2523 32.0822 15.1605 32.1806 15.036 32.1806Z" fill="black"/>
<path d="M52.0164 5.29897C51.7674 5.29897 51.5184 5.23338 51.2955 5.10222C50.6009 4.70218 50.365 3.81028 50.7647 3.11512C50.9613 2.78065 51.2693 2.538 51.6494 2.43963C52.0229 2.34126 52.4161 2.39373 52.7503 2.58391C53.445 2.98396 53.6809 3.87586 53.2811 4.57102C53.0059 5.03664 52.521 5.29897 52.0164 5.29897ZM52.0229 2.82656C51.9378 2.82656 51.846 2.83968 51.7608 2.85935C51.4987 2.93149 51.2759 3.09544 51.1448 3.33154C50.863 3.81683 51.0334 4.43985 51.5184 4.72185C52.0033 5.00385 52.6258 4.83334 52.9076 4.34804C53.1894 3.86274 53.019 3.23972 52.5341 2.95772C52.3703 2.87247 52.1999 2.82656 52.0229 2.82656Z" fill="black"/>
<path d="M18.1842 25.5963C18.1384 25.5963 18.0859 25.5832 18.0466 25.5504C17.9549 25.4782 17.9352 25.3405 18.0139 25.2421C22.4044 19.7399 27.8107 15.3525 33.6495 12.5654C33.7543 12.5129 33.8854 12.5588 33.9378 12.6703C33.9902 12.7752 33.9444 12.9064 33.833 12.9588C28.0532 15.7198 22.6993 20.0612 18.3481 25.5176C18.3087 25.57 18.2498 25.5963 18.1842 25.5963Z" fill="black"/>
<path d="M18.7428 21.7073C18.6969 21.7073 18.6445 21.6876 18.6052 21.6548C18.5134 21.5761 18.5003 21.4384 18.579 21.3466C22.7533 16.3428 27.6026 12.4538 32.9761 9.77813C33.6249 9.45679 34.2867 9.14856 34.9486 8.86656C35.06 8.82065 35.1845 8.87312 35.2304 8.97805C35.2762 9.08953 35.2238 9.21414 35.119 9.26004C34.4702 9.54204 33.8149 9.84371 33.1727 10.1651C27.8516 12.8145 23.0482 16.6641 18.9132 21.6221C18.8673 21.6811 18.8083 21.7073 18.7428 21.7073Z" fill="black"/>
<path d="M44.8849 77.2544C43.1156 77.0314 41.7919 75.523 41.7919 73.7392L41.5625 25.0716L42.4275 23.196C42.4275 23.196 44.0002 22.1467 44.8259 21.6745C45.324 21.3925 45.9137 21.2613 46.5297 21.34L116.694 30.2984C118.463 30.5214 119.787 32.0297 119.787 33.8135V82.0549C119.701 85.0126 115.73 86.7964 115.73 86.7964L44.8849 77.2544Z" fill="#99B9FF"/>
<path d="M115.755 87.0194L115.696 87.0128L44.8575 77.4708C42.9898 77.2347 41.5809 75.6279 41.5809 73.7458L41.3516 25.0323L42.2624 23.0583L42.3149 23.0255C42.3804 22.9796 43.9073 21.9631 44.7264 21.4974C45.29 21.1761 45.9256 21.0515 46.5678 21.1367L116.725 30.0885C118.593 30.3246 120.008 31.9314 120.008 33.8135V82.0549C119.923 85.1241 115.991 86.921 115.821 86.9931L115.755 87.0194ZM41.7775 25.1241L42.0069 73.7392C42.0069 75.4115 43.252 76.8281 44.9099 77.0379L115.683 86.5734C116.155 86.3504 119.484 84.6519 119.556 82.0483V33.8135C119.556 32.1478 118.311 30.7247 116.653 30.5148L46.5088 21.5565C45.9584 21.4843 45.4145 21.5958 44.9361 21.8647C44.2087 22.2779 42.8784 23.1632 42.6032 23.3403L41.7775 25.1241Z" fill="#5479F7"/>
<path d="M114.167 87.0981L43.5905 78.0872C41.8147 77.8577 40.4844 76.3494 40.4844 74.5524V26.016C40.4844 24.3503 41.9457 23.0583 43.6036 23.2682L114.187 32.279C115.963 32.5085 117.293 34.0169 117.293 35.8138V84.3502C117.286 86.016 115.825 87.3079 114.167 87.0981Z" fill="white"/>
<path d="M111.644 84.8093L46.1195 76.4477C44.4681 76.2379 43.2296 74.8345 43.2296 73.1687L43.1641 13.2736C43.1641 12.0407 44.2388 11.0898 45.4576 11.2406L112.496 19.5563C113.734 19.7071 114.665 20.763 114.658 22.009L114.527 82.2582C114.534 83.8059 113.177 85.0061 111.644 84.8093Z" fill="#99B9FF"/>
<path d="M114.659 25.8783L114.666 22.0156C114.666 20.7696 113.742 19.7137 112.503 19.5629L45.4655 11.2472C44.2466 11.0964 43.1654 12.0473 43.1719 13.2802L43.1785 16.9265L114.659 25.8783Z" fill="#5479F7"/>
<path d="M108.347 40.5487C108.34 40.5487 108.327 40.5487 108.321 40.5487L49.8346 33.125C49.7232 33.1119 49.6445 33.0135 49.6445 32.902L49.9067 20.6581C49.9067 20.599 49.9329 20.54 49.9787 20.5007C50.0246 20.4613 50.0836 20.4416 50.1491 20.4482L108.308 27.6621C108.413 27.6752 108.498 27.767 108.498 27.8785L108.563 40.3323C108.563 40.3979 108.537 40.4569 108.491 40.4963C108.452 40.5291 108.399 40.5487 108.347 40.5487ZM50.077 32.7184L108.124 40.0831L108.059 28.0687L50.3261 20.9138L50.077 32.7184Z" fill="#CADDFF"/>
<path d="M108.114 30.5149C108.107 30.5149 108.094 30.5149 108.088 30.5149L50.0078 23.1436C49.8898 23.1305 49.8046 23.019 49.8177 22.9009C49.8308 22.7829 49.9422 22.6976 50.0602 22.7107L108.14 30.082C108.258 30.0951 108.343 30.2066 108.33 30.3247C108.317 30.4296 108.225 30.5149 108.114 30.5149Z" fill="#CADDFF"/>
<path d="M90.0862 36.0827L52.0391 31.092L52.157 28.9081L90.1976 33.8988L90.0862 36.0827Z" fill="#CADDFF"/>
<path d="M90.1501 32.7446L52.1094 27.7539L52.2208 25.5701L90.268 30.5608L90.1501 32.7446Z" fill="#CADDFF"/>
<path d="M105.669 34.7645L92.707 33.1118L92.825 30.928L105.617 32.5872L105.669 34.7645Z" fill="#CADDFF"/>
<path d="M105.68 38.1551L92.5742 36.4959L92.6922 34.312L105.654 35.9319L105.68 38.1551Z" fill="#CADDFF"/>
<path d="M108.347 82.8025C108.34 82.8025 108.327 82.8025 108.32 82.8025L49.1002 74.7164C48.9888 74.7033 48.9102 74.6049 48.9102 74.5L49.1985 59.2196C49.1985 59.1606 49.2247 59.1016 49.2706 59.0623C49.3164 59.0229 49.3754 59.0032 49.441 59.0098L108.451 66.2958C108.563 66.3089 108.641 66.4008 108.641 66.5122L108.569 82.5861C108.569 82.6517 108.543 82.7107 108.497 82.7501C108.451 82.7894 108.399 82.8025 108.347 82.8025ZM49.3427 74.3164L108.13 82.3435L108.202 66.709L49.6244 59.4689L49.3427 74.3164Z" fill="#CADDFF"/>
<path d="M108.346 69.2797C108.34 69.2797 108.327 69.2797 108.32 69.2797L49.3359 61.7117C49.2179 61.6986 49.1328 61.5871 49.1459 61.4691C49.159 61.351 49.2704 61.2658 49.3883 61.2789L108.373 68.8403C108.49 68.8534 108.576 68.9649 108.563 69.083C108.549 69.201 108.458 69.2797 108.346 69.2797Z" fill="#CADDFF"/>
<path d="M89.6636 74.7362L51.5312 69.7126L51.6033 67.5156L89.7423 72.5392L89.6636 74.7362Z" fill="#CADDFF"/>
<path d="M89.6753 71.3784L51.543 66.3549L51.6151 64.1579L89.754 69.1814L89.6753 71.3784Z" fill="#CADDFF"/>
<path d="M105.609 73.4508L92.457 71.7457L92.5291 69.5487L105.661 71.2669L105.609 73.4508Z" fill="#CADDFF"/>
<path d="M105.665 76.8674L92.3164 75.1558L92.395 72.9588L105.678 74.618L105.665 76.8674Z" fill="#CADDFF"/>
<path d="M89.562 78.1069L51.4297 73.0834L51.5018 70.8799L89.6406 75.9034L89.562 78.1069Z" fill="#CADDFF"/>
<path d="M105.641 80.1858L92.207 78.5266L92.2857 76.3231L105.719 77.9889L105.641 80.1858Z" fill="#CADDFF"/>
<path d="M108.331 63.2595C108.324 63.2595 108.311 63.2595 108.305 63.2595L49.1041 55.6127C48.9927 55.5996 48.9141 55.5078 48.9141 55.3963L49.0779 36.9222C49.0779 36.8632 49.1041 36.8041 49.15 36.7582C49.1958 36.7189 49.2548 36.6992 49.3204 36.7058L108.298 43.6114C108.409 43.6246 108.488 43.7164 108.488 43.8279L108.547 63.043C108.547 63.1086 108.521 63.1676 108.475 63.207C108.436 63.2398 108.383 63.2595 108.331 63.2595ZM49.3531 55.2061L108.115 62.7938L108.056 44.018L49.5104 37.1648L49.3531 55.2061Z" fill="#CADDFF"/>
<path d="M108.272 46.8052C108.266 46.8052 108.253 46.8052 108.246 46.8052L49.2617 39.3684C49.1437 39.3553 49.0585 39.2438 49.0716 39.1257C49.0847 39.0077 49.1961 38.9224 49.3141 38.9355L108.298 46.3724C108.416 46.3855 108.502 46.497 108.488 46.615C108.475 46.7265 108.377 46.8052 108.272 46.8052Z" fill="#CADDFF"/>
<path d="M89.8517 52.1632L51.6211 47.2314L51.6473 45.0673L89.8845 50.0055L89.8517 52.1632Z" fill="#CADDFF"/>
<path d="M89.792 48.8645L51.5547 43.9328L51.5875 41.7686L89.8247 46.7069L89.792 48.8645Z" fill="#CADDFF"/>
<path d="M105.613 50.8646L92.5859 49.2251L92.6187 47.0676L105.646 48.7005L105.613 50.8646Z" fill="#CADDFF"/>
<path d="M105.771 54.2093L92.3633 52.5763L92.396 50.4121L105.692 52.0451L105.771 54.2093Z" fill="#CADDFF"/>
<path d="M89.8154 55.475L51.5781 50.5368L51.6109 48.3792L89.8481 53.3108L89.8154 55.475Z" fill="#CADDFF"/>
<path d="M105.66 57.462L92.3242 55.8881L92.357 53.7239L105.706 55.3372L105.66 57.462Z" fill="#CADDFF"/>
<path d="M89.6173 58.8524L51.3867 53.9142L51.4195 51.75L89.6501 56.6882L89.6173 58.8524Z" fill="#CADDFF"/>
<path d="M105.687 60.8658L92.1289 59.2591L92.1682 57.1014L105.661 58.6885L105.687 60.8658Z" fill="#CADDFF"/>
<path d="M114.666 87.1899C114.541 87.1899 114.417 87.1833 114.286 87.1637L43.7092 78.1594C41.8284 77.9168 40.413 76.31 40.413 74.4082L40.1836 29.4721C40.1836 29.354 40.2819 29.2557 40.3998 29.2557C40.5178 29.2557 40.6161 29.354 40.6161 29.4721L40.8455 74.4082C40.8455 76.087 42.1036 77.5167 43.7681 77.7266L114.351 86.7374C115.079 86.8292 115.806 86.6062 116.357 86.1209C116.907 85.6356 117.222 84.9405 117.222 84.206V35.6695C117.222 35.1776 117.117 34.6989 116.907 34.2529C116.855 34.1415 116.901 34.0169 117.012 33.9644C117.123 33.9119 117.248 33.9578 117.3 34.0693C117.536 34.5743 117.654 35.1121 117.654 35.6695V84.206C117.654 85.0651 117.287 85.8783 116.645 86.4488C116.088 86.9276 115.387 87.1899 114.666 87.1899Z" fill="black"/>
<path d="M73.0264 114.393L0.870399 105.08C0.306834 105.008 -0.0142672 104.536 -0.00771412 104.064C-0.00116104 103.736 0.0250513 101.441 0.0250513 101.441L38.1771 79.6153C40.0906 78.5201 42.5611 78.1004 44.7433 78.3824L115.988 87.5703C116.414 87.6227 116.788 87.9047 116.952 88.3048L117.063 88.5737C117.063 88.5737 117.004 90.4886 117.024 90.9411C117.043 91.2887 116.886 91.6494 116.519 91.8593L79.3239 113.14C77.4235 114.229 75.2085 114.668 73.0264 114.393Z" fill="#99B9FF"/>
<path d="M73.0281 111.835L1.13421 102.536C0.177456 102.411 -0.0715608 101.146 0.767234 100.667L37.7594 79.5235C39.6729 78.4283 41.8878 77.9889 44.07 78.2709L115.964 87.5637C116.921 87.6883 117.17 88.954 116.331 89.4328L79.3387 110.576C77.4252 111.671 75.2102 112.111 73.0281 111.835Z" fill="white"/>
<path d="M87.104 100.096L24.7645 91.9773C23.8995 91.8659 23.6767 90.7247 24.4303 90.2919L39.0895 81.9959C40.813 81.0122 42.8182 80.6121 44.7907 80.8679L107.13 88.9868C107.995 89.0983 108.218 90.2394 107.464 90.6723L92.8051 98.9617C91.0751 99.952 89.0764 100.352 87.104 100.096Z" fill="#CADDFF"/>
<path d="M50.5163 104.864L33.1637 102.621C32.9343 102.595 32.8753 102.287 33.0719 102.169L41.4533 97.5779C41.912 97.3156 42.4494 97.2107 42.9737 97.2763L60.3262 99.5191C60.5556 99.5519 60.6146 99.8536 60.418 99.9716L52.0366 104.562C51.5779 104.825 51.0471 104.93 50.5163 104.864Z" fill="#CADDFF"/>
<path d="M74.2989 112.13C73.8664 112.13 73.4339 112.104 73.0014 112.045L44.2465 108.451C44.1285 108.438 44.0433 108.327 44.0564 108.209C44.0695 108.09 44.1809 108.005 44.2989 108.018L73.0538 111.612C75.177 111.881 77.3723 111.448 79.2268 110.386L116.219 89.2426C116.579 89.0327 116.651 88.672 116.599 88.4097C116.547 88.1408 116.343 87.8326 115.931 87.7801L44.0433 78.4873C41.9201 78.2184 39.7248 78.6513 37.8703 79.7137L36.9398 80.2383C36.8349 80.2973 36.7039 80.258 36.6449 80.1596C36.5859 80.0547 36.6252 79.9235 36.7235 79.8645L37.6541 79.3399C39.5938 78.2316 41.8808 77.779 44.0958 78.061L115.99 87.3538C116.52 87.4194 116.927 87.8064 117.032 88.3244C117.136 88.8491 116.9 89.3541 116.442 89.6229L79.4496 110.766C77.8834 111.665 76.0944 112.13 74.2989 112.13Z" fill="black"/>
<path d="M1.68259 100.195C1.60396 100.195 1.53187 100.155 1.49255 100.083C1.43358 99.9781 1.4729 99.8469 1.57119 99.7879L5.17539 97.7419C5.28024 97.6829 5.4113 97.7222 5.47028 97.8206C5.52926 97.9255 5.48994 98.0566 5.39164 98.1157L1.78744 100.162C1.75468 100.181 1.71536 100.195 1.68259 100.195Z" fill="black"/>
<path d="M91.2363 89.6229C91.2297 89.6229 91.2166 89.6229 91.21 89.6229L65.1289 86.4488C65.0109 86.4357 64.9257 86.3242 64.9388 86.2062C64.9519 86.0881 65.0633 86.0029 65.1813 86.016L91.2625 89.1901C91.3804 89.2032 91.4656 89.3147 91.4525 89.4327C91.4394 89.5376 91.3477 89.6229 91.2363 89.6229Z" fill="#99B9FF"/>
<path d="M79.8373 92.1806C79.8307 92.1806 79.8176 92.1806 79.811 92.1806L72.2422 91.2625C72.1242 91.2494 72.039 91.1379 72.0521 91.0198C72.0652 90.9018 72.1766 90.8165 72.2946 90.8296L79.8635 91.7478C79.9814 91.7609 80.0666 91.8724 80.0535 91.9905C80.0404 92.1019 79.9487 92.1806 79.8373 92.1806Z" fill="#99B9FF"/>
<path d="M52.8371 92.6397C52.8306 92.6397 52.8175 92.6397 52.8109 92.6397L45.2422 91.7216C45.1242 91.7084 45.039 91.597 45.0521 91.4789C45.0652 91.3609 45.1766 91.2756 45.2946 91.2887L52.8634 92.2069C52.9813 92.22 53.0665 92.3315 53.0534 92.4495C53.0403 92.561 52.942 92.6397 52.8371 92.6397Z" fill="#99B9FF"/>
<path d="M23.3984 109.146L25.6134 115.573L28.7064 115.416L26.498 108.307L23.3984 109.146Z" fill="white"/>
<path d="M25.6131 115.796C25.5214 115.796 25.4362 115.737 25.41 115.652L23.195 109.218C23.1754 109.159 23.1819 109.1 23.2081 109.048C23.2343 108.996 23.2868 108.956 23.3457 108.943L26.4453 108.104C26.5567 108.071 26.6747 108.136 26.7075 108.248L28.9158 115.357C28.9355 115.422 28.9224 115.488 28.8896 115.547C28.8503 115.599 28.7913 115.639 28.7258 115.639L25.6328 115.796C25.6197 115.796 25.6131 115.796 25.6131 115.796ZM23.68 109.291L25.7638 115.35L28.4113 115.213L26.347 108.569L23.68 109.291Z" fill="black"/>
<path d="M24.6631 114.832C24.5714 115.475 24.4272 116.662 24.4141 117.731C24.4076 118.4 24.9056 118.964 25.5675 119.049C27.4351 119.292 31.6684 119.554 35.2726 119.226C35.5216 119.206 35.9541 119.023 36.0787 118.4C36.4849 116.314 32.8873 115.809 28.9358 114.294C28.7785 114.235 28.6081 114.268 28.4902 114.386L28.0642 114.799C27.6383 115.213 27.0092 115.331 26.4587 115.101L25.1612 114.544C24.9449 114.452 24.6959 114.59 24.6631 114.832Z" fill="#5479F7"/>
<path d="M31.5191 119.6C29.0879 119.6 26.8271 119.436 25.5427 119.266C24.7694 119.167 24.1927 118.505 24.1993 117.731C24.2124 116.642 24.3631 115.429 24.4483 114.806C24.4745 114.622 24.5794 114.465 24.7366 114.38C24.8939 114.288 25.0839 114.281 25.2478 114.353L26.5453 114.911C27.0105 115.108 27.5479 115.009 27.9149 114.655L28.3408 114.242C28.5178 114.071 28.7864 114.012 29.0158 114.104C29.9332 114.458 30.8179 114.747 31.6763 115.029C34.4483 115.947 36.6436 116.669 36.2897 118.452C36.1586 119.134 35.6672 119.416 35.2936 119.449C34.0682 119.554 32.7707 119.6 31.5191 119.6ZM24.8808 114.858C24.7956 115.475 24.6449 116.669 24.6383 117.731C24.6318 118.288 25.0446 118.761 25.6016 118.833C27.5282 119.082 31.6894 119.331 35.2609 119.01C35.3461 119.003 35.7589 118.938 35.8703 118.361C36.1455 116.951 34.2189 116.314 31.5453 115.436C30.6868 115.154 29.7956 114.858 28.8651 114.504C28.7864 114.478 28.7012 114.491 28.6423 114.55L28.2163 114.963C27.7248 115.442 27.004 115.573 26.3749 115.304L25.0774 114.747C25.0184 114.721 24.9725 114.74 24.9463 114.754C24.9136 114.773 24.8873 114.813 24.8808 114.858Z" fill="black"/>
<path d="M24.4219 117.567C24.4219 117.567 24.4219 117.672 24.4219 117.724C24.4154 118.393 24.9134 118.957 25.5753 119.042C27.4429 119.285 31.6762 119.547 35.2804 119.22C35.5295 119.2 35.962 119.016 36.0865 118.393C36.1258 118.203 36.0996 117.862 36.0996 117.862L35.844 117.875C32.2005 118.059 28.5504 117.967 24.92 117.613L24.4219 117.567Z" fill="white"/>
<path d="M31.5191 119.6C29.0879 119.6 26.8271 119.436 25.5427 119.266C24.7694 119.167 24.1927 118.505 24.1993 117.731V117.567C24.1993 117.508 24.2255 117.449 24.2714 117.41C24.3172 117.37 24.3762 117.351 24.4352 117.357L24.9267 117.403C28.5374 117.757 32.2006 117.842 35.8244 117.665L36.08 117.652C36.198 117.646 36.2963 117.737 36.3094 117.855C36.3094 117.895 36.3356 118.236 36.2897 118.446C36.1586 119.128 35.6672 119.41 35.2936 119.443C34.0682 119.554 32.7707 119.6 31.5191 119.6ZM24.6383 117.81C24.6711 118.334 25.0708 118.767 25.6016 118.833C27.5282 119.082 31.6894 119.331 35.2609 119.01C35.3461 119.003 35.7589 118.938 35.8703 118.36C35.8834 118.295 35.89 118.19 35.89 118.098H35.8572C32.2137 118.282 28.5309 118.19 24.9005 117.836L24.6383 117.81Z" fill="black"/>
<path d="M29.8474 116.76C29.795 116.76 29.736 116.741 29.6967 116.695C29.6115 116.609 29.6115 116.472 29.6967 116.387L31.0794 114.99C31.1646 114.904 31.3022 114.904 31.3874 114.99C31.4726 115.075 31.4726 115.213 31.3874 115.298L30.0047 116.695C29.9588 116.741 29.8998 116.76 29.8474 116.76Z" fill="black"/>
<path d="M31.2024 116.905C31.1499 116.905 31.0975 116.885 31.0516 116.846C30.9664 116.76 30.9599 116.623 31.0451 116.537L32.1526 115.383C32.2378 115.298 32.3754 115.291 32.4606 115.377C32.5457 115.462 32.5523 115.6 32.4671 115.685L31.3596 116.839C31.3203 116.885 31.2613 116.905 31.2024 116.905Z" fill="black"/>
<path d="M10.5 109.901L10.0806 115.416H7.89844L8.18677 110.051L10.5 109.901Z" fill="white"/>
<path d="M10.083 115.632H7.90085C7.84187 115.632 7.78289 115.606 7.74357 115.567C7.70426 115.521 7.67804 115.468 7.6846 115.403L7.97293 110.032C7.97949 109.92 8.06468 109.835 8.17608 109.828L10.4893 109.684C10.5548 109.678 10.6138 109.704 10.6597 109.75C10.7056 109.796 10.7252 109.855 10.7187 109.92L10.2993 115.436C10.2927 115.547 10.1944 115.632 10.083 115.632ZM8.13021 115.2H9.87987L10.2665 110.137L8.39888 110.255L8.13021 115.2Z" fill="black"/>
<path d="M7.78563 119.711C6.79612 119.547 6.23255 118.833 6.20634 118.21C6.1146 116.373 6.59952 114.629 7.50385 113.442C7.60215 113.311 7.79874 113.324 7.88393 113.462L7.91014 113.481C8.06741 113.626 8.29677 113.612 8.4606 113.475C8.59166 113.363 8.76204 113.291 8.94553 113.291L9.2011 113.284C9.48288 113.278 9.76466 113.442 9.91538 113.678C9.98747 113.789 10.1447 113.796 10.2299 113.698L10.3741 113.534C10.4724 113.442 10.6362 113.507 10.6362 113.639L10.7935 118.662C10.7018 119.666 9.08314 119.928 7.78563 119.711Z" fill="#5479F7"/>
<path d="M8.65077 120C8.32967 120 8.02167 119.974 7.74644 119.928C6.63242 119.744 6.01643 118.931 5.98366 118.223C5.89192 116.341 6.37685 114.55 7.32049 113.311C7.41224 113.193 7.54985 113.127 7.69402 113.134C7.83163 113.14 7.95614 113.206 8.03478 113.317L8.04133 113.324C8.11997 113.396 8.23137 113.376 8.30346 113.317C8.47384 113.166 8.69664 113.088 8.926 113.081L9.18157 113.075C9.52889 113.068 9.86965 113.252 10.0662 113.547L10.2039 113.383C10.3087 113.278 10.466 113.252 10.6036 113.304C10.7412 113.357 10.833 113.494 10.833 113.639L10.9902 118.675V118.688C10.964 119.003 10.8133 119.279 10.5381 119.488C10.0728 119.869 9.33885 120 8.65077 120ZM7.68091 113.573C6.78314 114.734 6.33098 116.419 6.41617 118.203C6.44238 118.721 6.94041 119.357 7.81853 119.502C8.80149 119.666 9.81067 119.521 10.2759 119.161C10.4463 119.023 10.5446 118.865 10.5577 118.675L10.407 113.816L10.3742 113.855C10.289 113.953 10.158 114.006 10.0269 113.993C9.89586 113.98 9.78446 113.914 9.71892 113.803C9.60752 113.626 9.39782 113.507 9.19468 113.514L8.93911 113.521C8.8146 113.521 8.69009 113.566 8.59179 113.652C8.34278 113.868 7.98891 113.868 7.753 113.652L7.70713 113.612L7.69402 113.586C7.69402 113.58 7.69402 113.573 7.68091 113.573Z" fill="black"/>
<path d="M10.7365 117.337C10.7103 117.449 10.6644 117.554 10.5989 117.646C10.3761 117.96 9.76667 118.57 8.46261 118.465C6.91608 118.341 6.21491 117.259 6.21491 117.259C6.19525 117.573 6.19525 117.895 6.20835 118.216C6.24112 118.833 6.79813 119.554 7.78764 119.718C9.08515 119.934 10.7038 119.665 10.7758 118.682L10.7365 117.337Z" fill="white"/>
<path d="M8.6528 120C8.3317 120 8.0237 119.974 7.74847 119.928C6.63445 119.744 6.01846 118.931 5.9857 118.223C5.97259 117.895 5.97259 117.567 5.99225 117.239C5.9988 117.147 6.06433 117.069 6.15608 117.042C6.24782 117.016 6.33956 117.055 6.39199 117.134C6.4182 117.173 7.06695 118.131 8.47587 118.242C9.64232 118.341 10.1928 117.823 10.4156 117.514C10.4614 117.449 10.5008 117.37 10.5204 117.278C10.5466 117.173 10.6449 117.108 10.7563 117.114C10.8612 117.128 10.9464 117.213 10.9464 117.324L10.9857 118.669C10.9857 118.675 10.9857 118.682 10.9857 118.695C10.9595 119.01 10.8088 119.285 10.5335 119.495C10.0748 119.869 9.34087 120 8.6528 120ZM6.41165 117.803C6.41165 117.934 6.4182 118.065 6.42475 118.196C6.45097 118.715 6.949 119.351 7.82711 119.495C8.81007 119.659 9.81925 119.515 10.2845 119.154C10.4549 119.016 10.5532 118.859 10.5663 118.669L10.5466 118.033C10.1993 118.367 9.55057 118.767 8.44965 118.675C7.45359 118.597 6.79173 118.151 6.41165 117.803Z" fill="black"/>
<path d="M9.67195 116.157H7.87641C7.75845 116.157 7.66016 116.059 7.66016 115.941C7.66016 115.822 7.75845 115.724 7.87641 115.724H9.67195C9.78991 115.724 9.8882 115.822 9.8882 115.941C9.8882 116.059 9.78991 116.157 9.67195 116.157Z" fill="black"/>
<path d="M9.85946 115.245H8.06391C7.94595 115.245 7.84766 115.147 7.84766 115.029C7.84766 114.911 7.94595 114.813 8.06391 114.813H9.85946C9.97741 114.813 10.0757 114.911 10.0757 115.029C10.0757 115.147 9.97741 115.245 9.85946 115.245Z" fill="black"/>
<path d="M27.4628 112.629C27.9215 112.602 28.2623 112.183 28.1902 111.724C27.7184 108.648 26.1194 98.0762 26.0277 94.6923C25.9228 90.7115 23.3606 74.0474 23.3606 74.0474L20.569 73.8507C20.7525 73.3064 20.8573 73.0112 20.8573 73.0112L10.6804 72.421C5.96215 80.1661 7.32519 107.697 7.548 111.625C7.5611 111.901 7.7708 112.124 8.04603 112.163C9.27801 112.34 10.012 112.327 10.4248 112.274C10.7066 112.242 10.9228 112.006 10.9359 111.724C11.126 106.103 13.6489 96.3187 16.0998 87.9899C18.2164 96.1941 22.9215 109.455 23.9176 112.235C24.029 112.55 24.3304 112.76 24.6712 112.753C25.6083 112.734 26.7158 112.675 27.4628 112.629Z" fill="#FFDD2D"/>
<path d="M24.8913 98.0829H39.8651C40.7629 98.0829 41.4379 97.2566 41.2544 96.3778L38.9805 85.3274C38.7904 84.3961 37.9713 83.7338 37.0211 83.7338H24.1836L24.8913 98.0829Z" fill="#99B9FF"/>
<path d="M39.8665 98.2993H24.8927C24.7748 98.2993 24.683 98.2075 24.6765 98.096L23.9688 83.7403C23.9688 83.6813 23.9884 83.6223 24.0277 83.5829C24.067 83.537 24.126 83.5173 24.185 83.5173H37.029C38.0775 83.5173 38.9884 84.2584 39.1981 85.288L41.472 96.3384C41.5703 96.8237 41.4524 97.3221 41.1378 97.7025C40.8233 98.0763 40.358 98.2993 39.8665 98.2993ZM25.1024 97.8665H39.8665C40.2269 97.8665 40.5677 97.7025 40.7971 97.4205C41.0264 97.1385 41.1182 96.7712 41.0461 96.4171L38.7722 85.3667C38.6018 84.5404 37.8678 83.9436 37.029 83.9436H24.4144L25.1024 97.8665Z" fill="black"/>
<path d="M22.9742 98.0828H25.8772C26.775 98.0828 27.45 97.2565 27.2665 96.3777L24.7632 84.2059C24.7042 83.9305 24.4618 83.7337 24.18 83.7337H23.4329C23.125 83.7337 22.8628 83.9698 22.8432 84.2781L21.8209 96.8302C21.7619 97.5057 22.2927 98.0828 22.9742 98.0828Z" fill="#5479F7"/>
<path d="M25.8791 98.2993H22.9761C22.596 98.2993 22.2225 98.1353 21.9669 97.8533C21.7048 97.5713 21.5737 97.191 21.6065 96.8106L22.6288 84.2584C22.6616 83.8387 23.0154 83.5108 23.4348 83.5108H24.1819C24.5685 83.5108 24.9027 83.7862 24.9748 84.16L27.4781 96.3318C27.5764 96.8171 27.4584 97.3156 27.1439 97.6959C26.8359 98.0763 26.3706 98.2993 25.8791 98.2993ZM23.4348 83.9436C23.2382 83.9436 23.0744 84.0944 23.0613 84.2912L22.039 96.8434C22.0194 97.1057 22.1045 97.3615 22.2815 97.5582C22.4584 97.755 22.7074 97.8599 22.9696 97.8599H25.8726C26.233 97.8599 26.5737 97.6959 26.8031 97.4139C27.0325 97.1319 27.1242 96.7647 27.0521 96.4105L24.5488 84.2387C24.5161 84.0617 24.3588 83.937 24.1819 83.937H23.4348V83.9436Z" fill="black"/>
<path d="M38.3108 89.7475H27.7735C27.3213 89.7475 26.9347 89.4392 26.8298 89.0064L25.7944 84.6387C25.7682 84.5207 25.8403 84.4026 25.9583 84.3764C26.0762 84.3502 26.1942 84.4223 26.2204 84.5404L27.2558 88.908C27.3148 89.1507 27.5244 89.3212 27.7735 89.3212H38.3174C38.4353 89.3212 38.5336 89.4196 38.5336 89.5376C38.5271 89.6491 38.4353 89.7475 38.3108 89.7475Z" fill="black"/>
<path d="M31.4531 89.5311L31.7808 90.8558C31.8332 91.0788 32.0363 91.2362 32.2657 91.2362H34.5855C34.8411 91.2362 35.0246 90.9935 34.9525 90.7509L34.6117 89.5245H31.4531V89.5311Z" fill="white"/>
<path d="M34.5853 91.4526H32.2655C31.9313 91.4526 31.6495 91.2296 31.5709 90.9017L31.2432 89.577C31.2301 89.5114 31.2432 89.4458 31.2825 89.3934C31.3218 89.3409 31.3874 89.3081 31.4529 89.3081H34.6115C34.7098 89.3081 34.795 89.3737 34.8212 89.4655L35.162 90.6919C35.2144 90.8755 35.1751 91.0657 35.0637 91.2165C34.9457 91.3673 34.7754 91.4526 34.5853 91.4526ZM31.7281 89.7475L31.9903 90.8033C32.023 90.9345 32.1344 91.0198 32.2655 91.0198H34.5853C34.6377 91.0198 34.6836 90.9935 34.7164 90.9542C34.7491 90.9148 34.7557 90.8624 34.7426 90.8099L34.4477 89.7475H31.7281V89.7475Z" fill="black"/>
<path d="M26.5313 83.655L26.2626 82.2713C26.1381 81.4056 26.5968 80.9203 27.2587 80.9203H33.3137C33.9756 80.9203 34.5981 81.6089 34.7095 82.2713L34.9782 83.655H34.0084L33.7725 82.4746C33.6873 81.963 33.3727 81.7007 32.8616 81.7007H27.7633C27.2521 81.7007 27.1866 81.963 27.2783 82.4746L27.5143 83.655H26.5313Z" fill="white"/>
<path d="M34.9778 83.8714H34.0079C33.9031 83.8714 33.8179 83.7993 33.7982 83.6944L33.5623 82.5139C33.4902 82.1008 33.2674 81.9171 32.8611 81.9171H27.7628C27.6252 81.9171 27.5335 81.9368 27.4942 81.9762C27.4483 82.0286 27.4417 82.186 27.4876 82.4352L27.7235 83.6091C27.7366 83.6747 27.717 83.7403 27.6776 83.7862C27.6383 83.8387 27.5728 83.8649 27.5073 83.8649H26.5374C26.4326 83.8649 26.3474 83.7927 26.3277 83.6878L26.059 82.3041C25.9673 81.6679 26.1573 81.2941 26.3343 81.0908C26.5571 80.835 26.8847 80.6973 27.2648 80.6973H33.3198C34.1193 80.6973 34.8074 81.504 34.9319 82.2319L35.2006 83.6091C35.2137 83.6747 35.194 83.7403 35.1547 83.7862C35.1023 83.8452 35.0433 83.8714 34.9778 83.8714ZM34.1848 83.4386H34.7156L34.4994 82.3106C34.4077 81.7663 33.8703 81.1367 33.3133 81.1367H27.2582C27.0027 81.1367 26.793 81.222 26.6554 81.3794C26.485 81.5761 26.426 81.8712 26.4784 82.2385L26.7143 83.4386H27.2451L27.0616 82.5205C27.0092 82.2188 26.9896 81.9106 27.1665 81.7007C27.291 81.5564 27.4876 81.4843 27.7628 81.4843H32.8611C33.4837 81.4843 33.8834 81.8253 33.9883 82.4418L34.1848 83.4386Z" fill="black"/>
<path d="M27.6582 80.6908H32.7762C32.9793 80.6908 33.1759 80.8613 33.2152 81.0646L33.2873 81.5106C33.3201 81.7139 33.1825 81.8844 32.9793 81.8844H27.8614C27.6582 81.8844 27.4616 81.7139 27.4223 81.5106L27.3502 81.0646C27.3109 80.8547 27.4551 80.6908 27.6582 80.6908Z" fill="#99B9FF"/>
<path d="M32.9795 82.1008H27.8615C27.547 82.1008 27.2652 81.8581 27.2128 81.5433L27.1407 81.0974C27.1145 80.9334 27.1538 80.776 27.2586 80.658C27.3569 80.5399 27.5076 80.4744 27.6715 80.4744H32.7894C33.104 80.4744 33.3857 80.717 33.4382 81.0318L33.5103 81.4778C33.5365 81.6417 33.4972 81.7991 33.3923 81.9171C33.294 82.0352 33.1433 82.1008 32.9795 82.1008ZM27.6584 80.9072C27.6322 80.9072 27.5994 80.9138 27.5797 80.94C27.5601 80.9597 27.5535 80.9925 27.5601 81.0318L27.6322 81.4778C27.6518 81.5827 27.7567 81.6679 27.855 81.6679H32.9729C32.9991 81.6679 33.0319 81.6614 33.0515 81.6351C33.0712 81.6155 33.0778 81.5827 33.0712 81.5433L32.9991 81.0974C32.9795 80.9925 32.8746 80.9072 32.7763 80.9072H27.6584Z" fill="black"/>
<path d="M25.9051 96.5548C25.8658 96.5548 25.833 96.5483 25.8002 96.5286L23.795 95.3875C23.7295 95.3481 23.6836 95.276 23.6836 95.1973V85.3536C23.6836 85.2356 23.7819 85.1372 23.8998 85.1372C24.0178 85.1372 24.1161 85.2356 24.1161 85.3536V95.0661L26.0165 96.1482C26.1213 96.2072 26.1541 96.3384 26.0951 96.4433C26.0558 96.5155 25.9837 96.5548 25.9051 96.5548Z" fill="#99B9FF"/>
<path d="M32.3143 80.1924C32.2488 79.7923 32.1374 79.307 32.0325 78.9135C31.8949 78.402 32.0456 75.6673 32.0456 75.6673L29.8438 75.0967C29.8438 75.0967 30.3156 77.4249 29.5424 77.9298C27.9827 78.9463 27.832 80.6187 27.832 80.6187L28.6118 80.6121C28.9526 80.6121 29.2737 80.7564 29.49 81.0187C29.6472 81.2154 29.9028 81.845 29.9028 81.845L28.7626 81.8844C28.7626 81.8844 29.0181 83.1239 30.0208 83.1173C30.8661 83.1239 32.6878 82.3828 32.3143 80.1924Z" fill="white"/>
<path d="M30.0195 83.3468C29.0955 83.3468 28.663 82.4286 28.5582 81.9433C28.5451 81.8777 28.5582 81.8122 28.5975 81.7663C28.6368 81.7138 28.6958 81.6876 28.7613 81.681L29.587 81.6548C29.4953 81.458 29.397 81.2482 29.3315 81.1695C29.1611 80.9596 28.9055 80.8416 28.6303 80.8416C28.6303 80.8416 28.6303 80.8416 28.6237 80.8416L27.8439 80.8481C27.7784 80.8481 27.7259 80.8219 27.6801 80.776C27.6408 80.7301 27.6211 80.6711 27.6211 80.612C27.6276 80.5399 27.798 78.8217 29.4298 77.7593C29.9016 77.4511 29.8098 75.9952 29.6395 75.1492C29.6264 75.077 29.646 74.9983 29.705 74.9459C29.7574 74.8934 29.8361 74.8737 29.9081 74.8934L32.11 75.464C32.2083 75.4902 32.2804 75.582 32.2738 75.6869C32.2148 76.769 32.1559 78.5135 32.2542 78.861C32.3656 79.2742 32.4704 79.7595 32.5359 80.1595C32.6867 81.0383 32.5097 81.8122 32.0248 82.3893C31.4743 83.0451 30.629 83.3468 30.0392 83.3468C30.0261 83.3468 30.0261 83.3468 30.0195 83.3468ZM29.0628 82.1007C29.1873 82.4155 29.4691 82.9139 30.0261 82.9074C30.5045 82.9008 31.2253 82.6516 31.684 82.1007C32.0903 81.6154 32.2279 80.9859 32.0969 80.2251C32.0313 79.8382 31.9265 79.3594 31.8216 78.966C31.6971 78.5003 31.7889 76.4805 31.8216 75.8312L30.1178 75.3918C30.2227 76.1001 30.3669 77.6544 29.6591 78.1134C28.5516 78.8348 28.1978 79.9234 28.0864 80.4022H28.6106H28.6172C29.0235 80.4022 29.4035 80.5793 29.6591 80.894C29.8361 81.1105 30.0785 81.7138 30.1047 81.7794C30.1309 81.845 30.1244 81.9171 30.0851 81.9761C30.0458 82.0351 29.9802 82.0745 29.9081 82.0745L29.0628 82.1007Z" fill="black"/>
<path d="M8.84124 53.1992C11.4428 51.5138 13.5464 50.9695 16.5346 50.8383C17.6027 52.668 20.0405 52.8189 20.5188 51.6974C20.5319 51.6712 20.5713 51.704 20.5975 51.7105C22.6551 52.0778 24.4245 52.6877 25.5844 53.4747C25.5909 53.4616 25.5909 53.455 25.5909 53.455C25.5909 53.455 33.2777 57.9998 32.7993 77.5691L28.9133 76.9002C28.9133 76.9002 28.1466 69.096 24.5293 64.4398C24.3851 72.5784 25.1715 78.238 25.2436 79.0709C25.2567 79.2545 25.1191 79.4119 24.9356 79.4119L17.7338 79.5365L16.6984 76.1788L15.3157 79.5824L7.64858 79.707C7.51752 79.707 7.40611 79.5956 7.41922 79.4644C7.51752 78.3364 8.05487 72.8997 8.27767 68.5452C6.5149 71.7324 4.15579 70.1585 4.58174 65.3186C5.08632 59.5212 6.74425 54.5568 8.84124 53.1992Z" fill="black"/>
<path d="M16.6923 76.3952C16.5742 76.3952 16.4759 76.2968 16.4759 76.1788L16.3906 68.7485C16.3906 68.6304 16.4824 68.532 16.607 68.532C16.7251 68.532 16.8235 68.6239 16.8235 68.7485L16.9087 76.1788C16.9153 76.2968 16.8169 76.3952 16.6923 76.3952Z" fill="#CADDFF"/>
<path d="M24.6024 64.1578C24.4974 64.1578 24.4056 64.0791 24.3859 63.9742C23.999 61.4755 23.1727 55.3831 23.8547 52.832C23.8875 52.7139 24.0056 52.6484 24.1236 52.6812C24.2417 52.7139 24.3072 52.832 24.2745 52.95C23.8154 54.6617 24.0121 58.7605 24.8122 63.9086C24.8319 64.0266 24.7466 64.1381 24.6286 64.1578C24.6286 64.1578 24.6155 64.1578 24.6024 64.1578Z" fill="#CADDFF"/>
<path d="M15.4187 51.1728L15.5235 44.936L19.0884 47.3888L19.095 51.1203C19.0818 51.8089 18.5052 52.2024 18.5052 52.2024C17.7909 52.7467 16.7817 52.668 16.0347 52.1631L15.8643 52.045C15.5759 51.8483 15.4056 51.5204 15.4187 51.1728Z" fill="white"/>
<path d="M17.3492 52.7992C16.8643 52.7992 16.3597 52.6484 15.9076 52.3467L15.7372 52.2286C15.3833 51.9926 15.1867 51.5925 15.1998 51.1728L15.3047 44.9361C15.3047 44.8574 15.3506 44.7852 15.4226 44.7459C15.4947 44.7065 15.5799 44.7131 15.6454 44.759L19.2103 47.2117C19.2693 47.2511 19.3021 47.3166 19.3021 47.3888L19.3086 51.1203C19.289 51.9204 18.6468 52.3664 18.6205 52.386C18.2601 52.6615 17.8145 52.7992 17.3492 52.7992ZM15.7306 45.3427L15.6323 51.1793C15.6258 51.4548 15.7568 51.7106 15.9797 51.8679L16.15 51.986C16.8578 52.4647 17.7752 52.4844 18.365 52.0319C18.3781 52.0253 18.8565 51.6843 18.8696 51.1138L18.863 47.5003L15.7306 45.3427Z" fill="black"/>
<path d="M21.6431 41.0274C20.7191 40.8307 21.748 41.9718 18.4452 40.4372C17.1281 39.8273 17.5868 41.5324 17.246 41.375C15.9878 40.7913 15.6405 40.6471 14.9721 40.7192C14.533 40.7651 13.5042 41.4668 13.5566 42.0636C13.7401 44.0048 14.6444 43.6375 14.9655 45.3623C15.1949 46.569 15.4636 46.969 15.8961 47.2051C16.3351 47.4478 16.7742 46.8772 17.2722 47.1002C17.921 47.3953 17.613 48.543 18.2028 49.1266C18.5697 49.4939 19.5199 49.789 21.1779 49.2709C21.4465 49.1857 21.6169 48.9234 21.5842 48.6414C21.5383 48.2807 21.4793 47.8282 21.3941 47.3953C20.9551 45.3492 20.3325 44.8049 20.6602 44.3393C21.1582 43.631 22.5475 44.2933 22.8817 43.6966C23.229 43.0801 22.9079 41.2963 21.6431 41.0274Z" fill="black"/>
<path d="M17.8867 43.8605L18.0768 44.3983C18.1685 44.6541 18.2406 44.9098 18.2996 45.1722C18.4044 45.664 18.6141 46.51 18.7255 46.9822C19.0925 48.5102 21.0977 47.1986 21.0977 47.1986L21.2812 46.8182L21.5368 46.7592C21.5827 46.7461 21.6351 46.7264 21.6678 46.6936C21.7596 46.6084 21.7792 46.4772 21.7268 46.3723C21.4516 45.7952 20.8815 44.4967 20.7701 43.4015C20.7701 43.408 19.3087 42.785 17.8867 43.8605Z" fill="white"/>
<path d="M18.0964 43.9261C18.1489 44.0179 18.1947 44.1032 18.2341 44.195C18.2537 44.2409 18.2734 44.2868 18.2865 44.3261L18.352 44.5098C18.4372 44.759 18.5027 45.0213 18.5552 45.2639C18.6666 45.7558 18.7911 46.2476 18.909 46.7395L18.9549 46.9231C18.968 46.9756 18.9811 47.028 19.0008 47.074C19.0401 47.1723 19.0859 47.251 19.1449 47.3166C19.2629 47.4478 19.4529 47.5002 19.6692 47.4871C20.1017 47.4609 20.5735 47.251 20.9732 47.0084L20.8946 47.0936C20.9536 46.969 21.0191 46.8444 21.0781 46.7198L21.0846 46.7133C21.1108 46.6542 21.1633 46.6215 21.2222 46.6083C21.3009 46.5887 21.3861 46.5821 21.4647 46.5821C21.5237 46.5821 21.5433 46.5887 21.5696 46.5559C21.5892 46.5296 21.5958 46.4837 21.5827 46.4509L21.4844 46.2411C21.3468 45.946 21.2157 45.6443 21.0912 45.3361C20.8487 44.7262 20.6325 44.0966 20.5473 43.4146L20.6783 43.5916C20.5866 43.5588 20.4621 43.5195 20.3507 43.4998C20.2327 43.4736 20.1213 43.4605 20.0034 43.4474C19.7675 43.4277 19.5316 43.4342 19.3022 43.4736C19.0728 43.5064 18.8435 43.5785 18.6272 43.6703C18.5224 43.7162 18.411 43.7687 18.3127 43.8277C18.2603 43.854 18.2144 43.8867 18.162 43.9195L18.1423 43.9327C18.1358 43.9327 18.1423 43.9327 18.1358 43.9327H18.1292C18.1292 43.9392 18.1161 43.9326 18.0964 43.9261ZM17.6836 43.8015C17.7164 43.7556 17.7557 43.7097 17.8015 43.6703C17.8212 43.6507 17.8474 43.631 17.8736 43.6113L17.9064 43.5851L17.9261 43.572C17.985 43.5326 18.0375 43.4933 18.0964 43.4605C18.2144 43.3883 18.3323 43.3293 18.4569 43.2703C18.7059 43.1588 18.968 43.0801 19.2432 43.0408C19.5119 42.9948 19.7871 42.9948 20.0558 43.0211C20.1934 43.0342 20.3245 43.0539 20.4555 43.0867C20.5932 43.1195 20.7111 43.1522 20.8553 43.2113C20.9274 43.2441 20.9798 43.3096 20.9863 43.3883C21.0125 43.6966 21.0715 44.0048 21.1502 44.313C21.2222 44.6212 21.314 44.9295 21.4254 45.2311C21.5302 45.5328 21.6482 45.8345 21.7858 46.123L21.8382 46.2345L21.8644 46.287L21.8775 46.3132C21.8841 46.3263 21.8907 46.3395 21.8972 46.3591C21.9365 46.4772 21.9234 46.6149 21.8644 46.7264C21.8382 46.7788 21.7924 46.8313 21.7399 46.8772C21.6875 46.9166 21.622 46.9494 21.5827 46.9625C21.504 46.9953 21.4319 47.0281 21.3533 47.0477L21.4975 46.9297C21.4385 47.0543 21.3795 47.1854 21.3205 47.31C21.3009 47.3494 21.2747 47.3756 21.2419 47.3953C21.006 47.5461 20.7766 47.6642 20.5276 47.7626C20.2786 47.8609 20.0099 47.9396 19.7216 47.9593C19.5774 47.9659 19.4202 47.9593 19.2694 47.9068C19.1187 47.8609 18.9614 47.7757 18.85 47.6511C18.7321 47.533 18.6534 47.3887 18.601 47.251C18.5748 47.1789 18.5552 47.1067 18.5355 47.0412L18.4896 46.8575C18.3717 46.3657 18.2472 45.8738 18.1358 45.3689C18.0833 45.1131 18.0309 44.8836 17.9588 44.6475L17.8998 44.4704C17.8736 44.3983 17.8474 44.3196 17.8278 44.2474C17.7557 44.1032 17.7164 43.9458 17.6836 43.8015Z" fill="black"/>
<path d="M18.0116 45.6574C18.0116 45.6574 17.5459 44.359 17.0082 44.6934C16.4639 45.0344 17.0082 46.4444 18.0116 45.6574Z" fill="white"/>
<path d="M20.4326 46.3723C20.3736 46.3723 20.3146 46.3658 20.2491 46.3526C20.118 46.3198 20.0066 46.2084 19.9346 46.0378C19.81 45.7427 19.7838 45.2377 20.0984 44.6803C20.1639 44.5688 20.2753 44.4836 20.4195 44.4508C20.5833 44.4114 20.7602 44.4376 20.9175 44.536C21.2386 44.7328 21.1993 45.1722 21.1862 45.3164C21.1403 45.7952 21.0158 46.1034 20.793 46.2674C20.6816 46.333 20.5637 46.3723 20.4326 46.3723ZM20.3736 45.9329C20.4654 45.9526 20.5112 45.9264 20.5374 45.9067C20.603 45.8608 20.7144 45.7165 20.7537 45.2705C20.7733 45.0672 20.7471 44.9361 20.6882 44.8967C20.5768 44.8246 20.4916 44.8705 20.4785 44.8902C20.1639 45.4476 20.3015 45.8542 20.3736 45.9329Z" fill="black"/>
<path d="M20.5523 44.8573C20.5457 44.8573 20.5457 44.8573 20.5523 44.8573L17.5772 44.7786C17.4592 44.7786 17.3609 44.6737 17.3675 44.5557C17.3675 44.4376 17.4658 44.3393 17.5903 44.3458L20.5588 44.4245C20.6768 44.4245 20.7751 44.5294 20.7685 44.6475C20.762 44.759 20.6637 44.8573 20.5523 44.8573Z" fill="black"/>
<path d="M21.6827 46.2607C21.5909 46.2607 21.4991 46.2017 21.4729 46.1033C21.4401 46.005 21.4925 45.9 21.5778 45.8476C21.6565 45.7623 21.8598 45.3229 21.7221 44.9688C21.7024 44.9229 21.6893 44.9163 21.6696 44.9098C21.5647 44.877 21.3614 44.9557 21.2696 45.0082C21.1646 45.0672 21.0335 45.0344 20.9745 44.9295C20.9154 44.8245 20.9482 44.6934 21.0532 44.6343C21.0991 44.6081 21.4925 44.3917 21.8139 44.5032C21.9582 44.5557 22.0631 44.6606 22.1287 44.8114C22.3189 45.2902 22.1156 45.782 22.0434 45.9197C21.9057 46.2017 21.7811 46.2411 21.7417 46.2542C21.7221 46.2542 21.7024 46.2607 21.6827 46.2607Z" fill="black"/>
<path d="M16.3633 55.0158C16.3633 55.0158 17.3135 56.5045 18.1719 56.2421C18.6241 56.1044 19.0631 54.6354 19.2401 54.583C19.8168 54.4124 20.9046 54.1436 21.5795 52.9434C22.2086 51.822 22.071 51.2252 21.9072 50.9498C21.8351 50.8252 21.8351 50.6678 21.9137 50.5432C22.0317 50.3661 22.1496 50.0972 22.0317 49.8218C21.9924 49.7234 21.9924 49.6119 22.0317 49.5201C22.189 49.1463 22.4839 48.2938 21.9137 48.1298C21.7565 48.0839 21.5926 48.1429 21.4943 48.2741C21.3109 48.5233 20.9308 48.9955 20.4655 49.2971C19.8036 49.7169 19.4039 50.012 19.0697 50.2022C18.7814 50.3661 18.6306 48.9364 17.9491 48.3987C17.3397 47.9199 17.13 48.1626 17.071 48.3856C17.012 48.6085 17.3856 48.7004 17.6018 49.7628C17.8508 51.0088 17.5887 52.0581 17.5166 52.6155C17.4183 53.2648 16.3633 55.0158 16.3633 55.0158Z" fill="white"/>
<path d="M17.9548 56.4914C17.0702 56.4914 16.2772 55.2847 16.1789 55.1339C16.1331 55.0617 16.1331 54.9765 16.1789 54.9043C16.4673 54.4256 17.2274 53.0877 17.293 52.5828C17.3061 52.4909 17.3257 52.386 17.3454 52.268C17.4437 51.6843 17.5878 50.8055 17.3847 49.8021C17.2602 49.1988 17.0964 48.943 16.9784 48.7725C16.8932 48.6413 16.8015 48.5102 16.8539 48.3266C16.9063 48.1233 17.0308 47.9855 17.1947 47.9265C17.4306 47.8478 17.7189 47.9462 18.0728 48.2216C18.4922 48.5495 18.7215 49.1398 18.8919 49.566C18.9443 49.6906 19.0033 49.8546 19.0557 49.9464C19.213 49.848 19.3899 49.73 19.6062 49.5857C19.8093 49.448 20.0518 49.2906 20.3467 49.1004C20.7858 48.8184 21.1462 48.3725 21.3166 48.1298C21.4673 47.9265 21.7294 47.8347 21.9719 47.9068C22.1619 47.9659 22.3061 48.0839 22.3913 48.2544C22.5682 48.6348 22.4044 49.1922 22.234 49.5923C22.2143 49.6382 22.2143 49.6841 22.2274 49.7234C22.3519 50.012 22.3061 50.3399 22.0964 50.6547C22.0636 50.7071 22.0636 50.7727 22.0964 50.8317C22.3061 51.1924 22.424 51.8679 21.7687 53.0418C21.0806 54.2682 19.9732 54.5895 19.3768 54.76L19.3506 54.7666C19.2982 54.8387 19.2065 55.0486 19.1278 55.206C18.8329 55.8421 18.5774 56.3405 18.2366 56.4455C18.1383 56.4783 18.0466 56.4914 17.9548 56.4914ZM16.618 55.0092C16.9129 55.429 17.5813 56.1963 18.1055 56.0389C18.289 55.9798 18.5839 55.3437 18.7281 55.0355C18.9378 54.583 19.0164 54.4256 19.1737 54.3797L19.2458 54.36C19.8225 54.196 20.7792 53.914 21.3821 52.8451C21.9653 51.8023 21.8408 51.2843 21.7097 51.0678C21.5918 50.8645 21.5983 50.6219 21.7294 50.4317C21.8605 50.2415 21.8932 50.071 21.8277 49.9202C21.7622 49.7693 21.7622 49.5988 21.8277 49.4414C22.0112 49.0086 22.0767 48.6348 21.9915 48.4577C21.9653 48.3987 21.9194 48.3593 21.8474 48.3397C21.7818 48.32 21.7097 48.3462 21.6639 48.3987C21.4738 48.6676 21.0741 49.1594 20.5761 49.4808C20.2877 49.6644 20.0518 49.8218 19.8487 49.9595C19.58 50.1366 19.3703 50.2809 19.1737 50.3924C19.0951 50.4383 19.0033 50.4448 18.9247 50.4186C18.7281 50.353 18.6429 50.1169 18.4922 49.7365C18.3415 49.3496 18.1383 48.825 17.8107 48.5758C17.4764 48.3134 17.3519 48.3462 17.3388 48.3528C17.3061 48.3659 17.2864 48.4118 17.2799 48.4446C17.293 48.4643 17.3192 48.5102 17.3454 48.5495C17.4699 48.7332 17.673 49.0479 17.8107 49.73C18.0269 50.8121 17.8762 51.7368 17.7713 52.3532C17.7517 52.4647 17.7386 52.5696 17.7255 52.6549C17.6403 53.2451 16.8736 54.5764 16.618 55.0092Z" fill="black"/>
<path d="M19.4958 55.6782L16.619 53.8419C16.619 53.8419 12.7264 60.1377 9.78409 62.2756C8.34897 63.3183 5.56391 62.092 5.56391 62.092C5.56391 62.092 2.89025 72.3685 8.04753 73.8375C16.6386 76.2837 19.4958 55.6782 19.4958 55.6782Z" fill="black"/>
<path d="M9.52883 62.7872C9.4633 62.7872 9.39777 62.7544 9.3519 62.702C9.27982 62.6036 9.29948 62.4724 9.39777 62.4003C12.4843 60.0918 16.3178 53.7436 16.3571 53.678C16.4161 53.5731 16.5537 53.5403 16.652 53.6059C16.7569 53.6649 16.7896 53.8026 16.7241 53.901C16.5668 54.1633 12.8054 60.387 9.65334 62.7479C9.62058 62.7741 9.57471 62.7872 9.52883 62.7872Z" fill="#CADDFF"/>
<path d="M9.27953 74.3556C9.16157 74.3556 9.05017 74.3491 8.93222 74.3425C8.81426 74.3294 8.72252 74.2245 8.73562 74.1064C8.74873 73.9884 8.85358 73.8966 8.97153 73.9097C15.3805 74.4606 18.906 57.5276 19.2533 55.7831L18.1262 55.0617C18.0279 54.9961 17.9951 54.865 18.0607 54.76C18.1262 54.6617 18.2573 54.6289 18.3621 54.6945L19.6138 55.4945C19.6858 55.5405 19.7252 55.6323 19.712 55.7175C19.5613 56.4914 16.1603 74.3556 9.27953 74.3556Z" fill="#CADDFF"/>
<path d="M110.906 54.2747L89.1955 51.5335C88.4091 51.4351 87.7735 51.986 87.7735 52.7664V60.7607C87.7735 60.7869 87.7735 60.8132 87.7735 60.8394L86.3187 86.6915C86.2728 87.4916 86.9216 88.2523 87.7342 88.3572L109.438 91.0985C110.192 91.1969 110.814 90.6853 110.853 89.9443L112.315 63.9807C112.315 63.9545 112.315 63.9283 112.315 63.9021V55.8618C112.321 55.088 111.686 54.3731 110.906 54.2747Z" fill="black"/>
<path d="M109.619 91.328C109.547 91.328 109.482 91.3214 109.41 91.3149L87.7058 88.5736C86.7818 88.4555 86.0479 87.5899 86.1003 86.6783L87.5551 60.8263C87.5551 60.8066 87.5551 60.7804 87.5551 60.7607V52.7664C87.5551 52.3336 87.7255 51.9401 88.0335 51.6646C88.348 51.3826 88.7674 51.2646 89.213 51.3171L110.923 54.0583C111.808 54.1698 112.535 54.9765 112.535 55.8618V63.902C112.535 63.9348 112.535 63.9611 112.535 63.9939L111.074 89.9574C111.048 90.3705 110.871 90.7378 110.563 90.9935C110.301 91.21 109.973 91.328 109.619 91.328ZM89.0099 51.7368C88.7478 51.7368 88.5118 51.822 88.3218 51.986C88.1055 52.1762 87.9876 52.4516 87.9876 52.7598V60.7542C87.9876 60.787 87.9876 60.8132 87.9876 60.846L86.5328 86.698C86.4935 87.3866 87.057 88.049 87.7582 88.1342L109.462 90.8755C109.77 90.9148 110.065 90.8361 110.281 90.6525C110.491 90.4754 110.615 90.2197 110.635 89.9246L112.096 63.9611C112.096 63.9414 112.096 63.9152 112.096 63.8955V55.8618C112.096 55.1929 111.546 54.5764 110.864 54.4912L89.154 51.7499C89.1147 51.7433 89.0623 51.7368 89.0099 51.7368Z" fill="black"/>
<path d="M109.494 54.2158L87.3513 51.4155C86.6894 51.3302 86.1521 51.7958 86.1521 52.4582V60.5706L84.6973 86.5866C84.658 87.2686 85.2084 87.9113 85.8965 87.9966L108.039 90.7969C108.675 90.8756 109.206 90.4493 109.239 89.8197L110.7 63.7447V55.5667C110.693 54.9044 110.156 54.301 109.494 54.2158Z" fill="#5479F7"/>
<path d="M108.183 91.0264C108.124 91.0264 108.065 91.0198 107.999 91.0132L85.8564 88.2129C85.057 88.1146 84.4213 87.3604 84.4672 86.5734L84.5458 85.1569C84.5524 85.0388 84.6572 84.947 84.7752 84.9536C84.8931 84.9601 84.9849 85.065 84.9783 85.1831L84.8997 86.5996C84.8669 87.1702 85.3322 87.708 85.9089 87.7801L108.052 90.5804C108.307 90.6132 108.543 90.5476 108.72 90.3968C108.891 90.2525 108.995 90.0426 109.008 89.8065L110.47 63.7316V55.5667C110.47 55.0158 110.018 54.5109 109.461 54.4387L87.3178 51.6384C87.0556 51.6056 86.8132 51.6778 86.6297 51.8352C86.4528 51.9926 86.361 52.2155 86.361 52.4647V60.5771L85.2732 80.0547C85.2667 80.1727 85.1684 80.2645 85.0439 80.258C84.9259 80.2514 84.8341 80.1465 84.8407 80.0284L85.9285 60.564V52.4647C85.9285 52.0844 86.0792 51.7499 86.3479 51.5073C86.6231 51.2646 86.9901 51.1597 87.3767 51.2056L109.52 54.0059C110.286 54.1043 110.909 54.7994 110.909 55.5667V63.7447L109.448 89.8328C109.428 90.1935 109.271 90.5148 109.008 90.7312C108.779 90.9214 108.491 91.0264 108.183 91.0264Z" fill="black"/>
<path d="M109.363 63.7577C109.356 63.7577 109.343 63.7577 109.337 63.7577L87.4101 60.9902C87.2922 60.9771 87.207 60.8656 87.2201 60.7476C87.2332 60.6296 87.3446 60.5443 87.4625 60.5574L109.389 63.3249C109.507 63.338 109.592 63.4495 109.579 63.5675C109.559 63.679 109.468 63.7577 109.363 63.7577Z" fill="black"/>
<path d="M89.6182 53.9797L107.226 56.2029C107.751 56.2684 108.176 56.7472 108.176 57.2653V60.2033C108.176 60.7214 107.751 61.0886 107.226 61.023L89.6182 58.7999C89.0939 58.7343 88.668 58.2555 88.668 57.7375V54.7994C88.668 54.2814 89.0939 53.9141 89.6182 53.9797Z" fill="white"/>
<path d="M107.344 61.2527C107.292 61.2527 107.246 61.2527 107.194 61.2461L89.5856 59.0229C88.9565 58.9442 88.4453 58.3737 88.4453 57.7441V54.806C88.4453 54.4912 88.5698 54.2158 88.7926 54.0191C89.022 53.8157 89.3234 53.7305 89.638 53.7698L107.246 55.993C107.875 56.0717 108.386 56.6423 108.386 57.2719V60.2099C108.386 60.5247 108.262 60.8002 108.039 60.9969C107.849 61.1674 107.607 61.2527 107.344 61.2527ZM89.4938 54.1896C89.3365 54.1896 89.1924 54.242 89.081 54.3404C88.9499 54.4519 88.8844 54.6158 88.8844 54.806V57.7441C88.8844 58.1572 89.2251 58.5376 89.6445 58.5901L107.253 60.8133C107.449 60.8395 107.626 60.787 107.757 60.669C107.888 60.5575 107.954 60.3936 107.954 60.2034V57.2653C107.954 56.8522 107.613 56.4718 107.194 56.4193L89.5856 54.1961C89.5593 54.1961 89.5266 54.1896 89.4938 54.1896Z" fill="black"/>
<path d="M99.6753 56.6357L106.104 57.4489C106.399 57.4883 106.635 57.7506 106.635 58.0391V59.0425C106.635 59.3311 106.399 59.541 106.104 59.5016L99.6753 58.6884C99.3804 58.6491 99.1445 58.3867 99.1445 58.0982V57.0948C99.1445 56.8062 99.3804 56.6029 99.6753 56.6357Z" fill="#CADDFF"/>
<path d="M94.2417 55.9537L97.302 56.3406C97.5969 56.3799 97.8328 56.6422 97.8328 56.9308V57.9342C97.8328 58.2227 97.5969 58.4326 97.302 58.3932L94.2417 58.0063C93.9468 57.967 93.7109 57.7046 93.7109 57.4161V56.4127C93.7109 56.1176 93.9534 55.9143 94.2417 55.9537Z" fill="#CADDFF"/>
<path d="M96.5512 81.963L96.7282 79.0447C96.7478 78.6971 96.4661 78.3627 96.1122 78.3168L93.0126 77.9233C92.685 77.8839 92.4163 78.1004 92.3966 78.4217L92.2197 81.34C92.2001 81.6876 92.4818 82.022 92.8357 82.0679L95.9353 82.4614C96.2629 82.5073 96.5316 82.2843 96.5512 81.963Z" fill="#99B9FF"/>
<path d="M102.313 82.691L102.49 79.7727C102.51 79.4251 102.228 79.0906 101.874 79.0447L98.7744 78.6512C98.4467 78.6119 98.178 78.8283 98.1584 79.1497L97.9814 82.068C97.9618 82.4156 98.2436 82.7501 98.5974 82.796L101.697 83.1895C102.025 83.2354 102.293 83.0124 102.313 82.691Z" fill="#99B9FF"/>
<path d="M96.2506 87.3735L96.4275 84.3765C96.4472 84.0289 96.1654 83.6944 95.8115 83.6485L92.7119 83.255C92.3842 83.2157 92.1155 83.4321 92.0959 83.7535L91.9189 86.7505C91.8993 87.0981 92.1811 87.4326 92.5349 87.4785L95.6346 87.8719C95.9622 87.9179 96.2309 87.6949 96.2506 87.3735Z" fill="#99B9FF"/>
<path d="M102.008 88.1015L102.185 85.1044C102.205 84.7568 101.923 84.4224 101.569 84.3765L98.4697 83.983C98.142 83.9436 97.8733 84.16 97.8537 84.4814L97.6768 87.4784C97.6571 87.826 97.9389 88.1605 98.2927 88.2064L101.392 88.5999C101.72 88.6458 101.989 88.4228 102.008 88.1015Z" fill="#99B9FF"/>
<path d="M91.0943 75.8247L91.2713 72.9064C91.2909 72.5588 91.0091 72.2243 90.6553 72.1784L87.5556 71.7849C87.228 71.7456 86.9593 71.962 86.9396 72.2833L86.7627 75.2017C86.743 75.5493 87.0248 75.8837 87.3787 75.9297L90.4783 76.3231C90.7994 76.369 91.0747 76.1461 91.0943 75.8247Z" fill="#99B9FF"/>
<path d="M96.852 76.5527L97.029 73.6343C97.0486 73.2867 96.7668 72.9522 96.413 72.9063L93.3134 72.5129C92.9858 72.4735 92.7171 72.6899 92.6974 73.0113L92.5205 75.9296C92.5008 76.2772 92.7826 76.6117 93.1365 76.6576L96.236 77.0511C96.5637 77.097 96.8324 76.874 96.852 76.5527Z" fill="#99B9FF"/>
<path d="M102.614 77.2806L102.791 74.3623C102.81 74.0147 102.529 73.6802 102.175 73.6343L99.0751 73.2408C98.7475 73.2015 98.4788 73.4179 98.4591 73.7392L98.2822 76.6576C98.2626 77.0052 98.5443 77.3396 98.8982 77.3855L101.998 77.779C102.325 77.8249 102.594 77.602 102.614 77.2806Z" fill="#99B9FF"/>
<path d="M108.372 78.0086L108.549 75.0902C108.568 74.7426 108.286 74.4082 107.933 74.3623L104.833 73.9688C104.505 73.9294 104.237 74.1459 104.217 74.4672L104.04 77.3856C104.02 77.7331 104.302 78.0676 104.656 78.1135L107.756 78.507C108.083 78.5529 108.352 78.3299 108.372 78.0086Z" fill="#99B9FF"/>
<path d="M91.3912 70.4143L91.5681 67.4959C91.5878 67.1483 91.306 66.8139 90.9521 66.768L87.8525 66.3745C87.5248 66.3351 87.2562 66.5516 87.2365 66.8729L87.0596 69.7913C87.0399 70.1388 87.3217 70.4733 87.6756 70.5192L90.7752 70.9127C91.1029 70.9586 91.3715 70.7356 91.3912 70.4143Z" fill="#99B9FF"/>
<path d="M97.1529 71.1422L97.3298 68.2239C97.3495 67.8763 97.0677 67.5418 96.7139 67.4959L93.6142 67.1024C93.2866 67.0631 93.0179 67.2795 92.9982 67.6008L92.8213 70.5192C92.8016 70.8668 93.0834 71.2012 93.4373 71.2471L96.5369 71.6406C96.8646 71.6865 97.1332 71.4636 97.1529 71.1422Z" fill="#99B9FF"/>
<path d="M102.911 71.8702L103.088 68.9518C103.107 68.6042 102.825 68.2698 102.472 68.2239L99.372 67.8304C99.0444 67.791 98.7757 68.0075 98.756 68.3288L98.5791 71.2472C98.5594 71.5947 98.8412 71.9292 99.1951 71.9751L102.295 72.3686C102.622 72.4145 102.891 72.1915 102.911 71.8702Z" fill="#99B9FF"/>
<path d="M108.68 72.5981L108.857 69.6798C108.877 69.3322 108.595 68.9977 108.241 68.9518L105.142 68.5583C104.814 68.519 104.545 68.7354 104.526 69.0567L104.349 71.9751C104.329 72.3227 104.611 72.6571 104.965 72.703L108.064 73.0965C108.385 73.1424 108.661 72.9195 108.68 72.5981Z" fill="#99B9FF"/>
<path d="M90.7895 81.2351L90.9664 78.3168C90.9861 77.9692 90.7043 77.6347 90.3505 77.5888L87.2509 77.1953C86.9233 77.156 86.6546 77.3724 86.6349 77.6938L86.458 80.6121C86.4383 80.9597 86.7201 81.2942 87.074 81.3401L90.1735 81.7336C90.4946 81.7795 90.7699 81.5565 90.7895 81.2351Z" fill="#99B9FF"/>
<path d="M90.4887 86.6456L90.6657 83.6485C90.6853 83.3009 90.4036 82.9665 90.0497 82.9206L86.9501 82.5271C86.6225 82.4877 86.3538 82.7041 86.3341 83.0255L86.1572 86.0225C86.1376 86.3701 86.4193 86.7046 86.7732 86.7505L89.8728 87.144C90.1939 87.1899 90.4691 86.9669 90.4887 86.6456Z" fill="#99B9FF"/>
<path d="M107.77 88.8228L108.248 80.4678C108.268 80.1203 107.986 79.7858 107.632 79.7399L104.533 79.3464C104.205 79.3071 103.937 79.5235 103.917 79.8448L103.438 88.1998C103.419 88.5474 103.701 88.8819 104.054 88.9278L107.154 89.3213C107.482 89.3606 107.75 89.1442 107.77 88.8228Z" fill="#CADDFF"/>
<path d="M87.4958 62.5643L87.4303 63.6267C87.4172 63.8693 87.6138 64.1054 87.8628 64.1316L91.3425 64.571C91.5718 64.5973 91.7619 64.4464 91.775 64.2235L91.8405 63.1611C91.8536 62.9184 91.657 62.6823 91.408 62.6561L87.9283 62.2167C87.6924 62.1905 87.5089 62.3413 87.4958 62.5643Z" fill="#99B9FF"/>
<path d="M93.2576 63.2922L93.192 64.3546C93.1789 64.5973 93.3755 64.8334 93.6245 64.8596L97.1042 65.299C97.3336 65.3252 97.5236 65.1744 97.5367 64.9514L97.6022 63.889C97.6153 63.6463 97.4187 63.4102 97.1697 63.384L93.6901 62.9446C93.4607 62.9184 93.2707 63.0692 93.2576 63.2922Z" fill="#99B9FF"/>
<path d="M99.0154 64.0201L98.9498 65.0825C98.9367 65.3252 99.1333 65.5613 99.3823 65.5875L102.862 66.0269C103.091 66.0531 103.281 65.9023 103.295 65.6793L103.36 64.6169C103.373 64.3742 103.177 64.1381 102.928 64.1119L99.4479 63.6725C99.2185 63.6463 99.0285 63.7971 99.0154 64.0201Z" fill="#99B9FF"/>
<path d="M104.777 64.7481L104.712 65.8039C104.698 66.0466 104.895 66.2827 105.144 66.3089L108.624 66.7483C108.853 66.7745 109.043 66.6237 109.056 66.4007L109.122 65.3449C109.135 65.1023 108.938 64.8662 108.689 64.8399L105.21 64.4006C104.98 64.3678 104.79 64.5186 104.777 64.7481Z" fill="#CADDFF"/>
<path d="M76.1842 45.0934C78.2394 43.2098 78.4272 40.0674 76.6037 38.0747C74.7802 36.082 71.6359 35.9936 69.5807 37.8772C67.5255 39.7608 67.3376 42.9032 69.1611 44.8959C70.9846 46.8886 74.1289 46.977 76.1842 45.0934Z" fill="white"/>
<path d="M72.931 46.7526C70.9847 46.7526 69.0974 45.7361 68.1145 43.9523C67.256 42.4046 67.2495 40.5552 68.0883 39.001C68.1472 38.896 68.2783 38.8567 68.3832 38.9157C68.488 38.9747 68.5273 39.1059 68.4683 39.2108C67.7016 40.6274 67.7082 42.3259 68.4946 43.7425C69.7986 46.1034 72.8327 47.0019 75.2508 45.7558C76.4303 45.1459 77.2888 44.1294 77.6689 42.8834C78.0424 41.657 77.8982 40.3651 77.2757 39.2305C75.9716 36.8696 72.9375 35.9711 70.5195 37.2172C70.4146 37.2696 70.2835 37.2303 70.2246 37.1254C70.1721 37.0204 70.2115 36.8893 70.3163 36.8302C72.9441 35.4727 76.2338 36.4564 77.6558 39.0207C78.3373 40.2536 78.488 41.6701 78.0883 43.008C77.6754 44.3655 76.7449 45.4804 75.4539 46.1427C74.6479 46.5559 73.7829 46.7526 72.931 46.7526Z" fill="black"/>
<path d="M88.8857 43.1589C89.3849 41.2305 88.2756 39.2753 86.408 38.7919C84.5405 38.3084 82.6218 39.4798 82.1226 41.4082C81.6234 43.3367 82.7327 45.2919 84.6003 45.7753C86.4679 46.2587 88.3865 45.0873 88.8857 43.1589Z" fill="white"/>
<path d="M85.4454 46.2211C84.9212 46.2211 84.3969 46.1096 83.9055 45.8867C82.9684 45.4604 82.2606 44.68 81.9068 43.6897C81.1859 41.6633 82.2082 39.3876 84.1938 38.6138C85.393 38.1482 86.7233 38.3187 87.7587 39.0728C87.857 39.145 87.8766 39.2761 87.8045 39.3745C87.7325 39.4729 87.6014 39.4926 87.5031 39.4204C86.5857 38.7515 85.4127 38.6007 84.3511 39.0138C82.5883 39.7024 81.6774 41.7288 82.3196 43.5389C82.6342 44.4176 83.2633 45.1128 84.0889 45.4866C84.9081 45.8604 85.819 45.8801 86.6643 45.5522C88.4271 44.8636 89.338 42.8372 88.6958 41.0271C88.6564 40.9156 88.7154 40.791 88.8268 40.7517C88.9382 40.7124 89.0627 40.7714 89.102 40.8829C89.8229 42.9093 88.8006 45.1849 86.815 45.9588C86.376 46.1293 85.9107 46.2211 85.4454 46.2211Z" fill="black"/>
<path d="M83.9983 54.2098C84.334 52.0444 82.9072 50.0256 80.8113 49.7007C78.7155 49.3758 76.7443 50.8678 76.4086 53.0332C76.0729 55.1986 77.4998 57.2173 79.5956 57.5423C81.6915 57.8672 83.6626 56.3752 83.9983 54.2098Z" fill="white"/>
<path d="M80.167 57.9275C79.7279 57.9275 79.2823 57.8554 78.8564 57.7111C77.7882 57.3504 76.9363 56.5765 76.4448 55.5338C75.4422 53.409 76.3072 50.8251 78.378 49.7692C79.6296 49.1331 81.0975 49.1724 82.3033 49.8807C82.4081 49.9397 82.4409 50.0774 82.3819 50.1758C82.3229 50.2807 82.1853 50.3135 82.087 50.2545C81.0058 49.6184 79.6952 49.5856 78.5746 50.1561C76.7135 51.1071 75.9337 53.4352 76.838 55.3502C77.2771 56.2814 78.0438 56.9766 79.0005 57.2979C79.9376 57.6193 80.9468 57.5471 81.838 57.0881C83.6991 56.1371 84.4789 53.809 83.5746 51.894C83.5222 51.7825 83.568 51.6579 83.6794 51.6055C83.7843 51.553 83.9153 51.5989 83.9678 51.7104C84.9704 53.8352 84.1054 56.4191 82.0346 57.475C81.4448 57.7767 80.8092 57.9275 80.167 57.9275Z" fill="black"/>
<g clip-path="url(#clip1_2131_9828)">
<path d="M73.0771 42.4324C73.8748 42.8347 74.8443 42.5135 75.2455 41.7166C75.6462 40.921 75.3253 39.9475 74.5303 39.5466L73.0788 38.8146C73.0039 38.7769 72.9127 38.807 72.875 38.8819L71.9193 40.7799L71.6193 40.6286C71.5445 40.5909 71.4533 40.621 71.4155 40.6959L71.123 41.2769C71.0853 41.3518 71.1154 41.4431 71.1902 41.4809L71.4901 41.6321L71.3341 41.9419L71.0342 41.7907C70.9594 41.7529 70.8681 41.7831 70.8304 41.858L70.5378 42.439C70.5001 42.5139 70.5302 42.6052 70.6051 42.6429L70.905 42.7942L70.6807 43.2396C70.643 43.3145 70.6731 43.4058 70.7479 43.4436L71.3285 43.7363C71.4034 43.7741 71.4946 43.744 71.5323 43.6691L71.7566 43.2237L72.6371 43.6677C72.712 43.7054 72.8032 43.6753 72.8409 43.6004L73.1335 43.0194C73.1712 42.9445 73.1411 42.8532 73.0663 42.8154L72.1857 42.3714L72.3417 42.0616L73.0771 42.4324ZM73.3657 40.028L74.1011 40.3988C74.4265 40.563 74.5579 40.9615 74.3939 41.2872C74.2299 41.6128 73.8317 41.7443 73.5063 41.5802L72.7709 41.2093L73.3657 40.028Z" fill="#5479F7"/>
</g>
<g clip-path="url(#clip2_2131_9828)">
<path d="M86.1781 42.5071C86.6494 42.115 86.7131 41.4165 86.322 40.9456C85.9314 40.4754 85.2315 40.4108 84.7616 40.8016L83.9038 41.5151C83.8596 41.5518 83.8535 41.6176 83.8903 41.6618L84.8219 42.7835L84.6446 42.9309C84.6004 42.9677 84.5943 43.0334 84.6311 43.0777L84.9163 43.4211C84.953 43.4653 85.0187 43.4714 85.0629 43.4346L85.2402 43.2872L85.3922 43.4703L85.215 43.6177C85.1707 43.6545 85.1647 43.7202 85.2014 43.7645L85.4866 44.1078C85.5234 44.1521 85.589 44.1582 85.6333 44.1214L85.8105 43.9739L86.0291 44.2372C86.0659 44.2814 86.1315 44.2875 86.1758 44.2507L86.5189 43.9653C86.5631 43.9285 86.5692 43.8628 86.5324 43.8186L86.3138 43.5553L86.8342 43.1225C86.8784 43.0857 86.8845 43.02 86.8477 42.9757L86.5625 42.6324C86.5258 42.5881 86.4601 42.582 86.4159 42.6188L85.8955 43.0516L85.7435 42.8686L86.1781 42.5071ZM84.7453 41.6667L85.1799 41.3053C85.3723 41.1453 85.6588 41.1717 85.8187 41.3642C85.9785 41.5567 85.9521 41.8434 85.7597 42.0034L85.3252 42.3649L84.7453 41.6667Z" fill="#5479F7"/>
</g>
<g clip-path="url(#clip3_2131_9828)">
<path d="M80.7219 53.8153C81.2641 53.6284 81.5509 53.0383 81.3644 52.4965C81.1783 51.9557 80.5871 51.6672 80.0467 51.8535L79.06 52.1936C79.0091 52.2111 78.9821 52.2666 78.9996 52.3175L79.4437 53.6078L79.2398 53.6781C79.1889 53.6956 79.1619 53.7511 79.1794 53.802L79.3153 54.197C79.3328 54.248 79.3883 54.275 79.4392 54.2575L79.6431 54.1872L79.7155 54.3978L79.5117 54.4681C79.4608 54.4856 79.4337 54.5411 79.4513 54.592L79.5872 54.987C79.6047 55.0379 79.6602 55.065 79.7111 55.0475L79.9149 54.9772L80.0192 55.28C80.0367 55.3309 80.0921 55.3579 80.143 55.3404L80.5377 55.2044C80.5886 55.1868 80.6156 55.1313 80.5981 55.0804L80.4939 54.7776L81.0924 54.5713C81.1433 54.5538 81.1703 54.4983 81.1528 54.4473L81.0169 54.0524C80.9993 54.0014 80.9439 53.9744 80.893 53.9919L80.2945 54.1982L80.222 53.9876L80.7219 53.8153ZM79.7462 52.6052L80.2461 52.4329C80.4673 52.3566 80.7093 52.4747 80.7855 52.6961C80.8617 52.9175 80.7437 53.1597 80.5225 53.236L80.0226 53.4083L79.7462 52.6052Z" fill="#5479F7"/>
</g>
</g>
<defs>
<clipPath id="clip0_2131_9828">
<rect width="120" height="120" fill="white"/>
</clipPath>
<clipPath id="clip1_2131_9828">
<rect width="5.18033" height="5.18266" fill="white" transform="matrix(0.892888 0.450279 -0.449737 0.893161 71.9258 38.2337)"/>
</clipPath>
<clipPath id="clip2_2131_9828">
<rect width="3.55555" height="3.55604" fill="white" transform="matrix(0.76882 -0.639465 0.638896 0.769293 83.2227 42.0813)"/>
</clipPath>
<clipPath id="clip3_2131_9828">
<rect width="3.32588" height="3.32795" fill="white" transform="matrix(0.945409 -0.325885 0.325425 0.945568 78.2734 52.4635)"/>
</clipPath>
</defs>
</svg>
