<svg width="120" height="120" viewBox="0 0 120 120" fill="none" xmlns="http://www.w3.org/2000/svg">
<path d="M47.0804 7.78438C68.8623 -0.687438 92.5821 12.0465 97.6167 25.422C102.651 38.7975 111.752 44.0286 115.431 49.2596C119.111 54.4907 125.304 78.7211 110.396 87.2453C96.9948 94.9119 105.336 109.774 86.7814 114.821C83.2264 115.79 79.5274 116.098 75.8479 115.823C69.6217 115.358 52.5341 113.97 41.7773 114.33C30.4576 114.71 11.157 122.422 3.99459 91.023C3.99459 91.023 1.53292 75.0941 4.57728 61.9477C7.30738 50.1304 12.0278 21.4152 47.0804 7.78438Z" fill="#CADDFF"/>
<path d="M22.5191 95.2522L20.1818 93.3929C19.5206 92.8625 19.1539 92.0442 19.1932 91.1931C19.4224 86.6298 20.1098 71.2443 19.6581 56.1077C19.167 39.5045 19.1081 12.8451 19.1016 8.69428C19.1016 8.39312 19.3438 8.15088 19.645 8.15088L72.3091 9.01508C72.571 9.02163 72.8394 9.06746 73.0817 9.16566L75.5826 10.1084L22.5191 95.2522Z" fill="black"/>
<path d="M36.0978 91.6448L22.5193 95.2522L21.6289 9.74178C21.6289 9.45371 21.8581 9.21802 22.1461 9.21802L75.5827 10.1084L75.0459 79.7358L36.0978 91.6448Z" fill="#5479F7"/>
<path d="M46.4225 93.1244L37.7542 96.2735C37.5447 96.3521 37.3156 96.2342 37.2567 96.0182C35.8818 91.2716 22.6961 44.8075 24.4114 16.7274C24.418 16.5899 24.5293 16.4786 24.6668 16.4786L26.2708 16.4263L46.4225 93.1244Z" fill="white"/>
<path d="M37.6206 96.5157C37.5289 96.5157 37.4307 96.496 37.3456 96.4502C37.195 96.3782 37.0837 96.2407 37.0379 96.077C35.5386 90.9049 22.4708 44.7485 24.1861 16.7143C24.1992 16.4655 24.4022 16.2691 24.651 16.256L26.255 16.2036L26.2681 16.6357L24.664 16.6881C24.6379 16.6881 24.6182 16.7077 24.6182 16.7339C22.9094 44.6962 35.9642 90.787 37.4569 95.9526C37.47 95.9985 37.5027 96.0377 37.542 96.0574C37.5813 96.077 37.6271 96.0836 37.673 96.0639L46.3412 92.9148L46.4918 93.3207L37.8235 96.4698C37.7581 96.5026 37.6861 96.5157 37.6206 96.5157Z" fill="black"/>
<path d="M26.4396 13.454C28.0829 13.8796 53.865 16.7864 76.786 12.4523C76.9366 12.4261 77.0741 12.544 77.0675 12.6946C76.8908 16.7013 75.0314 59.0277 96.6103 80.8096C96.6103 80.8096 97.2323 82.7868 90.8686 88.2797C87.9945 90.761 84.7144 92.437 81.3624 92.4436C77.3687 92.4567 70.9002 92.9412 67.5482 93.9298C57.983 96.7384 53.7078 97.5503 50.0808 97.3539C49.5832 97.3277 49.1184 97.0985 48.7976 96.7122C45.6288 92.9935 28.9602 70.8712 26.1057 13.7224C26.0991 13.5457 26.2628 13.4082 26.4396 13.454Z" fill="white"/>
<path d="M51.097 97.596C50.75 97.596 50.4096 97.5895 50.0757 97.5699C49.5192 97.5371 48.9954 97.2818 48.6354 96.8562C45.3357 92.987 28.7456 70.8057 25.8911 13.7355C25.8845 13.5784 25.95 13.4278 26.0678 13.3296C26.1857 13.2314 26.3428 13.1986 26.4869 13.2379C27.9534 13.6177 53.7878 16.5704 76.7351 12.2362C76.8726 12.21 77.0101 12.2493 77.1148 12.341C77.2196 12.4326 77.2785 12.5636 77.2719 12.7011C76.9315 20.4265 76.2833 59.9901 96.7493 80.6524L96.7886 80.6917L96.8016 80.7441C96.8671 80.9601 97.2796 83.0159 90.9945 88.4433C87.8061 91.1931 84.4736 92.6531 81.3507 92.6596C77.0821 92.6727 70.8166 93.1899 67.5955 94.1327C59.032 96.6533 54.5997 97.596 51.097 97.596ZM26.369 13.6635C26.3625 13.6635 26.3494 13.67 26.3428 13.6766C26.3363 13.6831 26.3232 13.6962 26.3232 13.7224C29.1646 70.6486 45.6827 92.7316 48.9627 96.5813C49.2442 96.9152 49.6632 97.1181 50.0953 97.1443C53.7158 97.3407 58.1089 96.4831 67.4842 93.7268C70.738 92.7709 77.0624 92.2406 81.3573 92.2341C84.3754 92.2275 87.6097 90.8068 90.7195 88.1225C96.3041 83.2974 96.4154 81.2416 96.3957 80.9208C91.4593 75.9189 87.3609 69.4308 84.2183 61.6399C81.665 55.3024 79.7271 48.0745 78.457 40.1461C76.4601 27.6675 76.6565 16.7995 76.8398 12.7011C76.8398 12.6945 76.8398 12.688 76.8333 12.6814C76.8267 12.6749 76.8202 12.6749 76.8202 12.6749C53.8009 17.0286 27.8552 14.0563 26.3821 13.67C26.3821 13.6635 26.3756 13.6635 26.369 13.6635Z" fill="black"/>
<path d="M38.8919 48.0876C37.2944 48.0876 36.3582 48.0679 36.3254 48.0679C36.2076 48.0679 36.1094 47.9632 36.1094 47.8453C36.1094 47.7275 36.2076 47.6293 36.3254 47.6293C36.3254 47.6293 36.3254 47.6293 36.332 47.6293C36.4302 47.6293 46.4864 47.8191 57.433 46.9484C57.5508 46.9418 57.6556 47.0269 57.6687 47.1448C57.6752 47.2626 57.5901 47.3674 57.4723 47.3805C49.8123 47.9959 42.5909 48.0876 38.8919 48.0876Z" fill="black"/>
<path d="M51.689 52.605C51.5712 52.605 51.4795 52.5134 51.473 52.4021C51.4664 52.2842 51.5581 52.1795 51.6759 52.1729C60.4358 51.7081 67.4673 50.8439 72.5739 49.5934C72.6918 49.5672 72.8096 49.6392 72.8358 49.7505C72.862 49.8684 72.79 49.9862 72.6787 50.0124C67.5459 51.2694 60.4882 52.1402 51.7021 52.605C51.6956 52.605 51.6956 52.605 51.689 52.605Z" fill="black"/>
<path d="M38.6967 52.9455C37.6557 52.9455 37.0599 52.9389 37.0403 52.9389C36.9224 52.9389 36.8242 52.8407 36.8242 52.7163C36.8242 52.5985 36.9224 52.5003 37.0468 52.5003C37.0796 52.5003 40.6084 52.5461 45.6103 52.4086C45.7281 52.4086 45.8329 52.5003 45.8329 52.6181C45.8394 52.736 45.7412 52.8407 45.6234 52.8407C42.6576 52.9324 40.209 52.9455 38.6967 52.9455Z" fill="black"/>
<path d="M38.8332 57.8097C38.7154 57.8097 38.6172 57.7115 38.6172 57.5937C38.6172 57.4759 38.7154 57.3776 38.8332 57.3776C39.082 57.3776 63.7904 57.1551 76.485 53.7768C76.6029 53.7441 76.7207 53.8161 76.7535 53.934C76.7862 54.0518 76.7142 54.1697 76.5963 54.2024C63.8493 57.5872 39.0886 57.8097 38.8332 57.8097Z" fill="black"/>
<path d="M42.7086 69.1822C42.5973 69.1822 42.4991 69.097 42.4925 68.9792C42.486 68.8613 42.5776 68.7566 42.6955 68.75C42.8592 68.737 59.0302 67.6698 71.4892 65.4569C71.607 65.4372 71.7183 65.5158 71.7379 65.6336C71.7576 65.7515 71.679 65.8628 71.5612 65.8824C59.0761 68.1019 42.8788 69.1691 42.7151 69.1822C42.7151 69.1822 42.7151 69.1822 42.7086 69.1822Z" fill="black"/>
<path d="M58.3229 72.7112C58.2116 72.7112 58.1199 72.6326 58.1068 72.5213C58.0937 72.4035 58.1788 72.2922 58.2967 72.2791C68.091 71.1202 76.0915 69.5489 81.4339 67.7419C81.5452 67.7027 81.6695 67.7616 81.7088 67.8794C81.7481 67.9907 81.6892 68.1151 81.5713 68.1544C74.7886 70.4524 65.1972 71.9059 58.349 72.7112C58.3425 72.7112 58.3294 72.7112 58.3229 72.7112Z" fill="black"/>
<path d="M43.732 74.0004C43.6142 74.0004 43.5225 73.9088 43.516 73.7975C43.5094 73.6796 43.6011 73.5749 43.7189 73.5683C43.7516 73.5683 47.2805 73.385 52.2562 72.9202C52.374 72.9071 52.4788 72.9987 52.4919 73.1166C52.505 73.2344 52.4133 73.3392 52.2955 73.3523C47.3067 73.8171 43.7778 74.0004 43.7386 74.0004C43.7386 74.0004 43.7386 74.0004 43.732 74.0004Z" fill="black"/>
<path d="M45.8258 78.7407C45.7145 78.7407 45.6163 78.6556 45.6097 78.5378C45.6032 78.4199 45.6883 78.3152 45.8127 78.3086C46.0615 78.289 70.7044 76.469 83.1568 72.2724C83.2681 72.2331 83.3925 72.292 83.4318 72.4099C83.471 72.5212 83.4121 72.6455 83.2943 72.6848C70.7895 76.9011 46.0942 78.7277 45.8454 78.7473C45.8389 78.7408 45.8323 78.7407 45.8258 78.7407Z" fill="black"/>
<path d="M59.4621 24.3613C59.3443 24.3613 59.2461 24.2696 59.2461 24.1452C59.2461 24.0274 59.3378 23.9292 59.4621 23.9226C63.4689 23.8506 68.4774 23.4316 73.2698 23.0126C73.3876 22.9995 73.4924 23.0912 73.5055 23.209C73.5186 23.3269 73.4269 23.4316 73.3091 23.4447C68.5036 23.8768 63.482 24.2892 59.4621 24.3613Z" fill="black"/>
<path d="M59.8996 29.0555C59.7818 29.0555 59.6836 28.9638 59.6836 28.846C59.6836 28.7281 59.7753 28.6299 59.8931 28.6234C64.9474 28.5121 69.1832 28.1978 73.6286 27.5955C73.7465 27.5824 73.8578 27.6609 73.8709 27.7788C73.884 27.8966 73.8054 28.0079 73.6876 28.021C69.2291 28.6299 64.9801 28.9442 59.8996 29.0555C59.9062 29.0555 59.8996 29.0555 59.8996 29.0555Z" fill="black"/>
<path d="M58.3293 33.9723C58.2115 33.9723 58.1133 33.8741 58.1133 33.7563C58.1133 33.6384 58.2049 33.5402 58.3293 33.5337C64.3067 33.4682 69.3152 32.9052 74.16 32.3552C74.2778 32.3421 74.3891 32.4272 74.4022 32.5451C74.4153 32.6629 74.3302 32.7742 74.2123 32.7873C69.3479 33.3372 64.3329 33.9068 58.3293 33.9723Z" fill="black"/>
<path d="M61.6119 47.0073C61.5006 47.0073 61.409 46.9222 61.3959 46.8109C61.3828 46.6931 61.4679 46.5818 61.5923 46.5752C64.7545 46.2479 67.6679 45.842 70.254 45.3772C70.3718 45.3575 70.4831 45.4361 70.5093 45.5539C70.5289 45.6718 70.4504 45.7831 70.3325 45.8093C67.7334 46.2806 64.8134 46.6865 61.6381 47.0139C61.625 47.0073 61.6185 47.0073 61.6119 47.0073Z" fill="black"/>
<path d="M51.607 91.1931H51.6004C51.4826 91.1866 51.3844 91.0884 51.3909 90.9705L51.5022 87.6447C51.5088 87.4024 51.6855 87.2126 51.9212 87.1733C52.1569 87.1406 52.3795 87.278 52.4516 87.5072L53.0735 89.4516C53.0801 89.4647 53.0866 89.4909 53.1259 89.4909C53.1652 89.4909 53.1717 89.4582 53.1717 89.4451L53.8854 85.2157C53.9181 85.0062 54.0752 84.8491 54.2847 84.8164C54.4942 84.7836 54.6906 84.8819 54.7888 85.0652L57.7285 90.5122C57.735 90.5253 57.7481 90.5515 57.7874 90.5384C57.8267 90.5253 57.8267 90.4926 57.8267 90.4795L57.6237 87.3042C57.6106 87.1078 57.7154 86.9245 57.8921 86.8328C58.0689 86.7477 58.2784 86.7739 58.4225 86.9049L59.7646 88.0768C59.7711 88.0833 59.7908 88.103 59.8235 88.0833C59.8432 88.0702 59.8562 88.0506 59.8497 88.0244L58.9331 82.1059C58.9135 81.9881 58.9986 81.8768 59.1164 81.8572C59.2343 81.8375 59.3456 81.9226 59.3652 82.0405L60.2818 87.9589C60.3145 88.1619 60.2163 88.3648 60.033 88.463C59.8497 88.5612 59.6336 88.5416 59.4831 88.4041L58.1409 87.2322C58.1344 87.2257 58.1147 87.2126 58.0885 87.2257C58.0755 87.2322 58.0558 87.2453 58.0558 87.278L58.2588 90.4533C58.2719 90.689 58.1344 90.892 57.9052 90.9574C57.6826 91.0229 57.4535 90.9247 57.3422 90.7217L54.4026 85.2747C54.396 85.2681 54.3829 85.2419 54.3502 85.2485C54.324 85.255 54.3109 85.2681 54.3044 85.2943L53.5907 89.5236C53.5515 89.7528 53.3747 89.9165 53.1455 89.9296C52.9164 89.9426 52.72 89.8117 52.648 89.5891L52.026 87.6447C52.0195 87.6316 52.0129 87.5988 51.9671 87.6054C51.9212 87.6119 51.9212 87.6447 51.9212 87.6578L51.8165 90.9836C51.823 91.0949 51.7248 91.1931 51.607 91.1931Z" fill="#5479F7"/>
<path d="M103.328 56.2844L102.333 55.2761C102.196 55.1386 102.189 54.9095 102.326 54.7655L108.86 47.6947C109.004 47.5441 109.24 47.5376 109.384 47.6881L110.89 49.2136C111.034 49.3642 111.034 49.5999 110.877 49.7439L103.832 56.2909C103.688 56.4284 103.466 56.4219 103.328 56.2844Z" fill="#5479F7"/>
<path d="M101.316 58.5175C101.81 58.0669 101.869 57.3268 101.448 56.8645C101.027 56.4022 100.284 56.3926 99.7897 56.8432C99.2953 57.2938 99.2361 58.0339 99.6575 58.4962C100.079 58.9585 100.821 58.9681 101.316 58.5175Z" fill="#5479F7"/>
<path d="M106.049 60.6447L106.5 60.3762C107.417 59.7805 108.641 59.571 110.167 59.9376C111.522 60.278 112.452 60.3762 113.257 59.9703C114.174 59.512 114.337 58.6347 113.787 57.4825C113.467 56.8278 112.746 56.304 112.183 56.0225L113.408 54.9095C114.134 55.2892 114.933 56.1796 115.411 57.1486C116.439 59.2371 115.627 60.8214 114.259 61.5089C113.034 62.1243 111.81 61.8755 110.357 61.522C109.028 61.1946 108.091 61.2994 107.201 61.8166L106.743 62.0719L106.049 60.6447ZM103.332 61.5089C104 61.175 104.687 61.391 105.001 62.0261C105.315 62.6611 105.06 63.3355 104.399 63.6694C103.77 63.9836 103.076 63.8134 102.749 63.1391C102.435 62.504 102.703 61.8231 103.332 61.5089Z" fill="#5479F7"/>
<path d="M77.5669 1.59721C78.2609 2.31083 81.2594 5.72837 81.8225 12.1117C81.829 12.1837 81.8945 12.2361 81.9665 12.223C83.0468 12.02 90.4514 10.7957 94.635 14.8287C94.7004 14.8942 94.8117 14.868 94.8379 14.7763C95.2242 13.611 97.1097 7.22108 93.7315 3.11611C93.7249 3.10957 93.7249 3.10957 93.7184 3.10302C93.4958 2.90006 87.9701 -1.96436 77.6193 1.38116C77.5342 1.41389 77.508 1.52519 77.5669 1.59721Z" fill="white"/>
<path d="M94.7204 15.0776C94.6352 15.0776 94.5501 15.0449 94.4847 14.9794C90.347 10.9923 82.8506 12.269 82.0126 12.4326C81.921 12.4523 81.8228 12.4261 81.7442 12.3672C81.6656 12.3082 81.6198 12.2231 81.6067 12.1249C81.0502 5.76778 78.0124 2.36334 77.4101 1.74137C77.325 1.65626 77.2923 1.53842 77.325 1.42057C77.3512 1.30272 77.4363 1.21107 77.5541 1.17833C88.0097 -2.20647 93.6335 2.72997 93.8627 2.93948C93.8758 2.95257 93.8823 2.95912 93.8954 2.97221C97.3326 7.1492 95.4536 13.5915 95.0411 14.8354C95.0019 14.9467 94.9168 15.0318 94.7989 15.058C94.7727 15.0776 94.7465 15.0776 94.7204 15.0776ZM85.7903 11.6601C88.5531 11.6601 92.1408 12.2035 94.6745 14.567C95.1459 13.0742 96.7434 7.12301 93.5615 3.26028C93.3455 3.06387 87.9508 -1.66962 77.8226 1.55151C78.6213 2.40917 81.4627 5.85289 82.0257 11.9874C82.6542 11.8761 84.0618 11.6601 85.7903 11.6601Z" fill="black"/>
<path d="M84.5854 10.1215C84.4676 10.1215 84.3694 10.0299 84.3694 9.91202C84.2581 5.78087 82.2939 2.7496 82.2743 2.72342C82.2088 2.62521 82.235 2.48772 82.3332 2.42225C82.4314 2.35678 82.5689 2.38297 82.6344 2.48118C82.7195 2.60557 84.6902 5.63683 84.8015 9.89893C84.808 10.0233 84.7098 10.1215 84.5854 10.1215C84.592 10.1215 84.5854 10.1215 84.5854 10.1215Z" fill="black"/>
<path d="M87.4991 9.95127C87.3813 9.95127 87.2831 9.85307 87.2831 9.73522C87.2831 5.86594 85.7511 2.50077 85.7315 2.46804C85.6791 2.35674 85.7315 2.23235 85.8362 2.17997C85.9475 2.1276 86.0719 2.17997 86.1243 2.28472C86.1374 2.31746 87.7152 5.76773 87.7152 9.73522C87.7217 9.85961 87.6235 9.95127 87.4991 9.95127Z" fill="black"/>
<path d="M90.2488 10.6323C90.2292 10.6323 90.2096 10.6323 90.1965 10.6258C90.0786 10.593 90.0131 10.4752 90.0393 10.3573C90.7464 7.67962 89.162 3.16874 89.1489 3.12291C89.1096 3.01161 89.1685 2.88722 89.2798 2.84793C89.3911 2.80865 89.5156 2.86758 89.5548 2.97887C89.6203 3.16874 91.1982 7.65998 90.4584 10.4686C90.4322 10.5668 90.3471 10.6323 90.2488 10.6323Z" fill="black"/>
<path d="M92.7734 11.2543C92.7603 11.2543 92.7407 11.2543 92.7276 11.2478C92.6098 11.2216 92.5378 11.1037 92.564 10.9924C92.8389 9.72885 92.9109 8.38672 92.78 7.01184C92.7669 6.894 92.8585 6.78924 92.9764 6.77615C93.0942 6.76306 93.1989 6.85471 93.212 6.97256C93.3495 8.39326 93.2775 9.77468 92.9895 11.0906C92.9633 11.1888 92.8716 11.2543 92.7734 11.2543Z" fill="black"/>
<path d="M83.2484 32.4928C84.0995 34.2998 90.0245 45.6784 104.585 47.3807C104.637 47.3872 104.69 47.3741 104.736 47.3479C105.731 46.726 117.09 39.2035 119.623 19.8767C119.643 19.7261 119.519 19.5952 119.368 19.6083C117.489 19.8047 107.027 20.7082 101.475 17.0419C101.344 16.9568 101.167 17.0157 101.122 17.1663C100.598 18.9078 97.331 27.6218 83.3858 32.172C83.2549 32.2178 83.1894 32.3684 83.2484 32.4928Z" fill="white"/>
<path d="M104.614 47.5967C104.594 47.5967 104.581 47.5967 104.561 47.5967C98.3744 46.8765 93.0124 44.3625 88.6259 40.1331C85.2018 36.8334 83.4931 33.5206 83.0544 32.5844C83.0021 32.4666 82.9955 32.3356 83.0479 32.2112C83.1003 32.0934 83.1985 32.0017 83.3229 31.9625C97.1698 27.4385 100.411 18.7899 100.915 17.1008C100.954 16.9633 101.059 16.8585 101.19 16.8061C101.327 16.7603 101.471 16.7734 101.596 16.852C107.062 20.4659 117.341 19.5952 119.345 19.3857C119.482 19.3726 119.613 19.4184 119.711 19.5166C119.809 19.6148 119.855 19.7523 119.836 19.8963C118.775 28.0212 116.058 35.033 111.776 40.7485C108.496 45.1154 105.432 47.158 104.849 47.5247C104.784 47.5771 104.699 47.5967 104.614 47.5967ZM83.4472 32.4011C83.8794 33.3177 85.5619 36.5715 88.9271 39.8189C93.2481 43.9827 98.525 46.451 104.614 47.1646C105.196 46.8045 108.202 44.8011 111.429 40.4932C115.672 34.8431 118.356 27.8968 119.41 19.844C119.41 19.8374 119.41 19.8309 119.403 19.8243C117.361 20.0338 106.944 20.9111 101.36 17.2186C101.353 17.2121 101.347 17.2121 101.34 17.2186C100.816 18.9536 97.5102 27.7855 83.4603 32.3749C83.4538 32.3749 83.4538 32.3815 83.4472 32.388L83.2508 32.4928L83.4472 32.4011Z" fill="black"/>
<path d="M113.608 23.0978C107.696 23.0978 102.007 21.0355 101.948 21.0094C101.837 20.9701 101.778 20.8457 101.817 20.7278C101.856 20.6165 101.981 20.5576 102.098 20.5969C102.164 20.6231 108.986 23.0978 115.395 22.5872C115.513 22.5806 115.618 22.6657 115.631 22.7836C115.638 22.9014 115.552 23.0062 115.435 23.0193C114.826 23.0717 114.217 23.0978 113.608 23.0978Z" fill="black"/>
<path d="M114.004 26.8622C111.222 26.8622 108.302 26.3319 105.303 25.2909C105.192 25.2516 105.133 25.1272 105.172 25.0159C105.212 24.9046 105.336 24.8457 105.447 24.885C108.714 26.0242 111.896 26.5414 114.895 26.417C115.013 26.4104 115.117 26.5021 115.124 26.6265C115.13 26.7443 115.039 26.8491 114.914 26.8556C114.613 26.8556 114.312 26.8622 114.004 26.8622Z" fill="black"/>
<path d="M103.11 24.4072C103.084 24.4072 103.051 24.4007 103.025 24.3876C101.467 23.7001 100.544 23.1436 100.504 23.124C100.399 23.0585 100.367 22.9276 100.432 22.8228C100.498 22.7181 100.629 22.6853 100.733 22.7508C100.74 22.7574 101.67 23.3139 103.202 23.9882C103.313 24.034 103.359 24.165 103.313 24.2763C103.274 24.3614 103.195 24.4072 103.11 24.4072Z" fill="black"/>
<path d="M113.174 30.7906C113.168 30.7906 113.161 30.7906 113.148 30.7906C104.473 29.8216 98.9282 25.422 98.8758 25.3762C98.7842 25.2976 98.7711 25.1667 98.8431 25.0684C98.9151 24.9768 99.0526 24.9637 99.1508 25.0357C99.2032 25.0815 104.657 29.4091 113.201 30.3585C113.318 30.3715 113.404 30.4763 113.39 30.6007C113.377 30.7054 113.279 30.7906 113.174 30.7906Z" fill="black"/>
<path d="M111.572 34.3456C111.559 34.3456 111.546 34.3456 111.533 34.3391C102.282 32.5386 96.8936 27.2879 96.8412 27.2356C96.7561 27.1504 96.7561 27.013 96.8412 26.9278C96.9263 26.8427 97.0638 26.8427 97.1489 26.9278C97.2013 26.9802 102.504 32.1458 111.618 33.9201C111.736 33.9463 111.814 34.0576 111.788 34.1754C111.762 34.2736 111.67 34.3456 111.572 34.3456Z" fill="black"/>
<path d="M109.202 37.9072C109.189 37.9072 109.176 37.9072 109.163 37.9007C107.513 37.593 105.844 37.0627 104.207 36.3359C104.096 36.2901 104.05 36.1592 104.096 36.0479C104.142 35.9366 104.273 35.8907 104.384 35.9366C105.988 36.6502 107.625 37.1674 109.242 37.4751C109.36 37.4948 109.438 37.6126 109.418 37.7305C109.392 37.8287 109.301 37.9072 109.202 37.9072Z" fill="black"/>
<path d="M101.714 35.0201C101.675 35.0201 101.635 35.0135 101.603 34.9873C97.262 32.434 94.5778 29.2521 94.5516 29.2194C94.473 29.1277 94.4861 28.9903 94.5778 28.9117C94.6694 28.8331 94.8069 28.8462 94.8855 28.9379C94.9117 28.9706 97.5501 32.1001 101.825 34.6076C101.93 34.6665 101.963 34.804 101.904 34.9022C101.865 34.9808 101.793 35.0201 101.714 35.0201Z" fill="black"/>
<path d="M102.642 42.3787C102.55 42.3787 102.459 42.3198 102.432 42.2216L101.968 40.6111C101.948 40.5521 101.909 40.5063 101.856 40.4801C101.804 40.4539 101.745 40.4539 101.686 40.4736L99.4928 41.3443C99.2899 41.4229 99.0607 41.3967 98.884 41.2723C98.7007 41.1414 98.6024 40.9319 98.609 40.7093L98.6221 40.3688C98.6286 40.2903 98.5894 40.2117 98.5173 40.1724C98.4846 40.1528 98.3995 40.1135 98.3013 40.1724C98.0394 40.3295 97.7186 40.2837 97.5025 40.0677C97.2865 39.8451 97.2603 39.5177 97.4305 39.2558L97.7579 38.7583C97.8364 38.6404 97.771 38.5357 97.7513 38.5029C97.7317 38.4767 97.6531 38.3851 97.5222 38.4309L95.1849 39.1773C95.0736 39.2165 94.9492 39.1511 94.9099 39.0398C94.8706 38.9285 94.9361 38.8041 95.0474 38.7648L97.3847 38.0184C97.6466 37.9333 97.9281 38.025 98.0918 38.241C98.262 38.4636 98.2685 38.7583 98.118 38.9939L97.7906 39.4915C97.7186 39.5963 97.7579 39.701 97.8168 39.7599C97.843 39.7861 97.9412 39.8778 98.0787 39.7927C98.2816 39.6683 98.537 39.6683 98.7399 39.7927C98.9429 39.9171 99.0673 40.1397 99.0542 40.3819L99.0411 40.7224C99.0346 40.8009 99.0673 40.8664 99.1328 40.9122C99.1917 40.9515 99.2637 40.9646 99.3292 40.9384L101.522 40.0677C101.693 40.0022 101.883 40.0087 102.046 40.0873C102.21 40.1659 102.334 40.3164 102.387 40.4932L102.851 42.1038C102.884 42.2216 102.819 42.3395 102.701 42.3722C102.688 42.3787 102.662 42.3787 102.642 42.3787Z" fill="#5479F7"/>
<path d="M70.5498 113.774C69.3583 112.923 64.1272 108.765 61.6656 99.678C61.6394 99.5733 61.5281 99.5144 61.4299 99.5536C59.9241 100.136 49.5209 103.855 42.4174 99.1215C42.3061 99.0495 42.1555 99.115 42.1358 99.2459C41.8805 101.04 40.8002 110.782 46.7515 115.829C46.758 115.836 46.7646 115.843 46.7777 115.849C47.1574 116.085 56.4149 121.669 70.5237 114.088C70.648 114.023 70.6611 113.852 70.5498 113.774Z" fill="white"/>
<path d="M56.1615 118.265C50.3609 118.265 46.904 116.183 46.6684 116.039C46.6487 116.026 46.6356 116.019 46.616 116C40.5993 110.893 41.6533 101.125 41.9218 99.2198C41.9414 99.0823 42.0265 98.9645 42.1509 98.9121C42.2753 98.8532 42.4193 98.8663 42.5372 98.9448C49.6014 103.652 60.1683 99.809 61.3467 99.3508C61.4515 99.3115 61.5693 99.318 61.6675 99.3638C61.7657 99.4162 61.8443 99.5079 61.8705 99.6192C64.3322 108.706 69.6352 112.857 70.6697 113.597C70.781 113.676 70.8464 113.807 70.8333 113.951C70.8268 114.088 70.7482 114.212 70.6238 114.278C64.941 117.335 60.0308 118.265 56.1615 118.265ZM42.3473 99.3377C42.0658 101.334 41.1099 110.756 46.8975 115.666C47.2772 115.902 56.4234 121.395 70.3816 113.918C69.2293 113.086 63.9393 108.85 61.4711 99.7698C60.5938 100.104 57.6673 101.138 54.0534 101.544C49.3068 102.081 45.372 101.334 42.3473 99.3377Z" fill="black"/>
<path d="M63.2202 113.82C63.1613 113.82 63.1089 113.8 63.0631 113.754C63.0238 113.715 59.2921 109.747 58.0285 103.639C58.0023 103.521 58.0809 103.41 58.1987 103.384C58.3166 103.358 58.4278 103.436 58.454 103.554C59.6849 109.531 63.3381 113.42 63.3774 113.46C63.4625 113.545 63.4559 113.682 63.3708 113.767C63.325 113.8 63.2726 113.82 63.2202 113.82Z" fill="black"/>
<path d="M58.2437 115.07C58.1783 115.07 58.1062 115.037 58.067 114.978C58.0342 114.932 54.872 110.369 53.8507 104.654C53.831 104.536 53.9096 104.424 54.0274 104.405C54.1453 104.385 54.2566 104.464 54.2762 104.582C55.2845 110.199 58.3878 114.69 58.4205 114.736C58.486 114.834 58.4663 114.972 58.3681 115.037C58.3288 115.057 58.2896 115.07 58.2437 115.07Z" fill="black"/>
<path d="M53.1189 114.985C53.0403 114.985 52.9683 114.946 52.929 114.874C52.785 114.618 49.3609 108.556 49.6948 104.333C49.7013 104.215 49.8061 104.123 49.9305 104.137C50.0483 104.143 50.14 104.248 50.1269 104.372C49.7995 108.464 53.2694 114.605 53.3022 114.664C53.3611 114.769 53.3284 114.9 53.2236 114.959C53.1909 114.978 53.1516 114.985 53.1189 114.985Z" fill="black"/>
<path d="M46.8247 110.252C46.7331 110.252 46.6414 110.186 46.6152 110.094C46.0522 108.084 45.8034 106.075 45.8754 104.11C45.882 103.993 45.9802 103.901 46.098 103.901C46.2159 103.907 46.3141 104.006 46.3075 104.124C46.2355 106.042 46.4777 108.006 47.0342 109.97C47.067 110.088 47.0015 110.206 46.8837 110.238C46.864 110.252 46.8444 110.252 46.8247 110.252Z" fill="black"/>
<path d="M1.53638 97.4259C2.61663 97.5372 9.41897 98.0413 13.5829 93.8774C13.6352 93.8251 13.7203 93.8316 13.7662 93.8905C14.4994 94.8333 20.0382 101.583 29.0403 101.688C29.1451 101.688 29.1975 101.806 29.132 101.884C28.6213 102.526 26.8864 104.575 24.7913 105.786C22.513 107.109 20.7911 109.197 20.503 109.557C20.4769 109.59 20.4376 109.61 20.3917 109.603C19.4948 109.459 10.0737 107.836 4.74441 103.05C1.94884 100.536 1.47745 98.1788 1.39889 97.5699C1.39234 97.4848 1.45781 97.4194 1.53638 97.4259Z" fill="white"/>
<path d="M20.4201 109.813C20.4005 109.813 20.3809 109.813 20.3678 109.806C19.3202 109.636 9.95803 107.999 4.60913 103.2C1.77427 100.653 1.28325 98.2573 1.19814 97.5829C1.18504 97.4782 1.21778 97.3734 1.2898 97.3014C1.36181 97.2294 1.46002 97.1901 1.56477 97.2032C2.83489 97.3341 9.38189 97.7728 13.4345 93.7136C13.5065 93.6416 13.5982 93.6089 13.6964 93.6154C13.7946 93.622 13.8797 93.6678 13.9386 93.7464C14.5409 94.5255 20.0928 101.354 29.0491 101.459C29.18 101.459 29.2979 101.537 29.3502 101.655C29.4092 101.773 29.3895 101.911 29.311 102.009C28.8199 102.624 27.0457 104.726 24.9114 105.963C22.6789 107.259 21.0028 109.289 20.6886 109.682C20.6165 109.767 20.5183 109.813 20.4201 109.813ZM1.63679 97.6549C1.75463 98.421 2.31767 100.575 4.89065 102.886C10.0628 107.528 19.0911 109.165 20.3678 109.374C20.7671 108.877 22.4563 106.886 24.6757 105.596C26.594 104.483 28.2242 102.637 28.833 101.897C20.0601 101.701 14.5344 95.2129 13.6505 94.1065C9.5783 98.1001 3.18843 97.7924 1.63679 97.6549Z" fill="black"/>
<path d="M4.8059 100.3C4.68805 100.3 4.58984 100.208 4.58984 100.091C4.58984 99.9727 4.6815 99.8679 4.79935 99.8679C4.86482 99.8679 11.2874 99.6584 13.5396 96.6599C13.6116 96.5617 13.7491 96.5421 13.8408 96.6141C13.939 96.6861 13.9586 96.8236 13.8866 96.9152C11.51 100.091 5.08087 100.293 4.8059 100.3Z" fill="#5479F7"/>
<path d="M7.73468 102.624C7.62993 102.624 7.53827 102.546 7.51863 102.441C7.49899 102.323 7.57756 102.212 7.6954 102.192C7.74778 102.186 12.7824 101.328 15.1393 98.3687C15.2114 98.277 15.3488 98.2574 15.4471 98.336C15.5387 98.408 15.5584 98.5455 15.4798 98.6437C13.0247 101.734 7.98347 102.592 7.76742 102.624C7.76087 102.624 7.74778 102.624 7.73468 102.624Z" fill="#5479F7"/>
<path d="M22.9213 104.66C22.8427 104.66 22.7642 104.614 22.7249 104.536C22.6725 104.431 22.7183 104.3 22.8231 104.248C22.8362 104.241 24.1194 103.613 24.6235 102.984C24.7021 102.892 24.833 102.879 24.9312 102.951C25.0229 103.03 25.036 103.161 24.964 103.259C24.3944 103.96 23.0719 104.608 23.0195 104.641C22.9868 104.654 22.954 104.66 22.9213 104.66Z" fill="#5479F7"/>
<path d="M8.72595 59.2766C13.4265 59.2766 17.237 55.4308 17.237 50.6869C17.237 45.943 13.4265 42.0972 8.72595 42.0972C4.02539 42.0972 0.214844 45.943 0.214844 50.6869C0.214844 55.4308 4.02539 59.2766 8.72595 59.2766Z" fill="white"/>
<path d="M8.72715 59.4925C3.91511 59.4925 0 55.5381 0 50.6868C0 45.8289 3.91511 41.8745 8.72715 41.8745C13.5392 41.8745 17.4543 45.8289 17.4543 50.6802C17.4543 55.5381 13.5392 59.4925 8.72715 59.4925ZM8.72715 42.3132C4.15735 42.3132 0.432102 46.0711 0.432102 50.6868C0.432102 55.3024 4.1508 59.0604 8.72715 59.0604C13.297 59.0604 17.0222 55.3024 17.0222 50.6868C17.0222 46.0646 13.3035 42.3132 8.72715 42.3132Z" fill="black"/>
<path d="M11.5695 53.9407C11.5302 53.9407 11.4844 53.9341 11.4451 53.9145C9.91313 53.2664 7.57585 53.1616 7.54966 53.1616C7.43181 53.1551 7.33361 53.0569 7.34015 52.9325C7.3467 52.8146 7.44491 52.723 7.5693 52.723C7.66096 52.7295 9.71672 52.8212 11.3011 53.3907C10.6857 52.2647 9.29116 49.3774 8.68884 45.3969C8.66919 45.279 8.75431 45.1677 8.87215 45.1481C8.99 45.1284 9.1013 45.2136 9.12094 45.3314C9.76909 49.6459 11.3666 52.6444 11.8445 53.4628C11.91 53.5806 11.8969 53.7312 11.8118 53.8294C11.7463 53.908 11.6612 53.9407 11.5695 53.9407Z" fill="black"/>
<path d="M49.9545 21.7947C40.5792 21.7947 33.3906 21.0287 33.3185 21.0222C33.0828 20.996 32.9061 20.7799 32.9323 20.5442C32.9584 20.3086 33.1745 20.1318 33.4102 20.158C33.4888 20.1645 41.0506 20.9698 50.7794 20.924C51.0151 20.924 51.2115 21.1138 51.2181 21.3561C51.2181 21.5983 51.0282 21.7882 50.786 21.7947C50.5044 21.7947 50.2229 21.7947 49.9545 21.7947Z" fill="black"/>
<path d="M48.862 26.5348C40.5014 26.5348 32.8349 25.7885 32.7498 25.7819C32.5141 25.7557 32.3373 25.5462 32.357 25.304C32.3831 25.0683 32.5927 24.8915 32.8349 24.9112C32.9265 24.9177 42.315 25.8343 51.6183 25.6313C51.8605 25.6248 52.0569 25.8146 52.0635 26.0569C52.07 26.2991 51.8801 26.4955 51.6379 26.5021C50.7082 26.5283 49.7786 26.5348 48.862 26.5348Z" fill="black"/>
<path d="M47.3037 30.9671C38.4849 30.9671 32.3241 30.3647 32.2521 30.3517C32.0164 30.3255 31.8397 30.116 31.8659 29.8737C31.892 29.638 32.1015 29.4612 32.3438 29.4874C32.4289 29.494 41.2739 30.3647 52.9407 30.0112C53.1829 30.0047 53.3793 30.1945 53.3859 30.4302C53.3924 30.6725 53.2026 30.8689 52.9669 30.8754C50.9831 30.9409 49.091 30.9671 47.3037 30.9671Z" fill="black"/>
<path d="M47.8002 35.4648C40.4348 35.4648 34.2021 34.9934 34.1235 34.9868C33.8813 34.9672 33.7045 34.7577 33.7241 34.522C33.7438 34.2798 33.9533 34.103 34.189 34.1226C34.2872 34.1292 44.3892 34.8952 54.0526 34.4696C54.2883 34.4565 54.4978 34.6464 54.5043 34.8821C54.5174 35.1243 54.3275 35.3273 54.0918 35.3338C51.9772 35.4255 49.8494 35.4648 47.8002 35.4648Z" fill="black"/>
<path d="M45.7757 12.066C37.4414 12.066 30.6914 18.8815 30.6914 27.2944C30.6914 35.7073 37.4479 42.5227 45.7757 42.5227C54.1101 42.5227 60.8601 35.7073 60.8601 27.2944C60.8601 18.888 54.1101 12.066 45.7757 12.066ZM45.7757 40.5193C38.5413 40.5193 32.6752 34.6008 32.6752 27.2944C32.6752 19.9945 38.5413 14.0694 45.7757 14.0694C53.0102 14.0694 58.8763 19.9879 58.8763 27.2944C58.8763 34.6008 53.0102 40.5193 45.7757 40.5193Z" fill="black"/>
<path d="M59.6623 46.4115C59.2433 46.7258 58.6475 46.6341 58.3398 46.2085L53.9336 40.1329L55.4591 39.0003L59.8652 45.0694C60.1795 45.5015 60.0878 46.0972 59.6623 46.4115Z" fill="black"/>
<path d="M108.121 107.548L111.656 110.35L114.295 107.161L110.668 104.457L108.121 107.548Z" fill="#5479F7"/>
<path d="M88.0938 111.424L88.2247 113.885H92.3428L92.0809 111.424H88.0938Z" fill="#5479F7"/>
<path d="M88.3901 113.793H92.2069C92.4754 113.793 92.7242 113.956 92.8224 114.212C93.1628 115.043 93.8502 116.988 93.7586 118.827C93.7324 119.332 93.3199 119.724 92.8158 119.724H81.6074C81.0902 119.724 80.6974 119.246 80.8022 118.742C80.9266 118.133 81.3521 117.328 82.5829 116.608C84.5732 115.436 87.0741 114.271 87.8598 113.911C88.03 113.832 88.2133 113.793 88.3901 113.793Z" fill="white"/>
<path d="M92.8232 119.947H81.6147C81.3004 119.947 81.0124 119.81 80.8094 119.567C80.613 119.325 80.5344 119.011 80.5934 118.703C80.7177 118.094 81.1433 117.204 82.4724 116.425C84.4823 115.246 87.0356 114.055 87.7689 113.714C87.9653 113.623 88.1683 113.584 88.3778 113.584H92.1947C92.5548 113.584 92.8756 113.8 93.0131 114.133C93.3339 114.913 94.0606 116.936 93.9624 118.847C93.9493 119.463 93.4452 119.947 92.8232 119.947ZM88.3909 114.016C88.2403 114.016 88.0963 114.048 87.9588 114.107C87.2255 114.441 84.6918 115.626 82.7015 116.798C81.7587 117.355 81.176 118.042 81.0255 118.788C80.9862 118.965 81.032 119.148 81.1499 119.293C81.2677 119.437 81.4379 119.515 81.6147 119.515H92.8232C93.2095 119.515 93.5237 119.214 93.5434 118.821C93.635 117.001 92.928 115.05 92.6202 114.297C92.5482 114.127 92.3846 114.016 92.2012 114.016H88.3909Z" fill="black"/>
<path d="M87.5105 117.354C87.4385 117.354 87.373 117.322 87.3272 117.256L85.8016 114.952C85.7362 114.854 85.7624 114.716 85.8606 114.651C85.9588 114.585 86.0963 114.611 86.1618 114.709L87.6873 117.014C87.7528 117.112 87.7266 117.25 87.6284 117.315C87.5891 117.341 87.5498 117.354 87.5105 117.354Z" fill="black"/>
<path d="M86.0338 118.232C85.9618 118.232 85.8964 118.199 85.8505 118.134L84.3251 115.829C84.2596 115.731 84.2858 115.593 84.384 115.528C84.4822 115.462 84.6197 115.489 84.6852 115.587L86.2106 117.891C86.2761 117.989 86.2499 118.127 86.1517 118.192C86.119 118.219 86.0797 118.232 86.0338 118.232Z" fill="black"/>
<path d="M111.717 110.422L114.081 107.397C114.251 107.181 114.526 107.089 114.788 107.168C115.646 107.417 117.583 108.071 118.958 109.289C119.331 109.623 119.384 110.192 119.076 110.592L112.136 119.476C111.815 119.882 111.207 119.902 110.873 119.502C110.473 119.024 110.113 118.193 110.316 116.772C110.637 114.474 111.279 111.764 111.488 110.919C111.527 110.729 111.606 110.566 111.717 110.422Z" fill="white"/>
<path d="M111.492 120C111.191 120 110.903 119.869 110.706 119.633C110.307 119.162 109.881 118.271 110.097 116.733C110.425 114.409 111.079 111.646 111.269 110.854C111.322 110.644 111.413 110.454 111.544 110.291L113.908 107.266C114.13 106.978 114.497 106.86 114.844 106.958C115.649 107.187 117.672 107.862 119.099 109.125C119.564 109.531 119.623 110.232 119.243 110.723L112.304 119.607C112.107 119.856 111.819 120 111.505 120.006C111.505 120 111.498 120 111.492 120ZM114.608 107.358C114.471 107.358 114.34 107.423 114.255 107.534L111.891 110.559C111.8 110.677 111.734 110.814 111.695 110.958C111.505 111.744 110.85 114.487 110.529 116.792C110.379 117.885 110.556 118.769 111.04 119.352C111.158 119.489 111.328 119.568 111.505 119.561C111.688 119.561 111.858 119.476 111.97 119.332L118.91 110.448C119.152 110.14 119.113 109.701 118.818 109.446C117.456 108.248 115.505 107.6 114.733 107.371C114.687 107.358 114.647 107.358 114.608 107.358Z" fill="black"/>
<path d="M113.77 113.407C113.764 113.407 113.757 113.407 113.751 113.407L111.014 113.184C110.896 113.178 110.805 113.073 110.818 112.949C110.824 112.831 110.936 112.739 111.053 112.752L113.79 112.975C113.908 112.981 114 113.086 113.986 113.211C113.98 113.322 113.882 113.407 113.77 113.407Z" fill="black"/>
<path d="M113.54 115.123C113.533 115.123 113.527 115.123 113.52 115.123L110.784 114.9C110.666 114.893 110.574 114.789 110.587 114.664C110.594 114.546 110.705 114.455 110.823 114.468L113.56 114.69C113.677 114.697 113.769 114.802 113.756 114.926C113.749 115.031 113.651 115.123 113.54 115.123Z" fill="black"/>
<path d="M97.1683 71.1526C97.1683 71.1526 98.4843 75.4278 98.9164 81.6671C99.355 87.9064 108.645 94.964 111.866 104.457L108.442 108.601C108.442 108.601 98.1111 100.614 96.1274 97.3144C94.0323 93.8314 91.5117 86.5904 91.5117 86.5904L93.3121 73.2214L93.6264 73.1494C94.4448 72.953 95.2173 72.6453 95.9702 72.2787C96.4809 72.0299 96.8933 71.6371 97.1683 71.1526Z" fill="black"/>
<path d="M96.134 72.2789C96.134 72.2789 97.044 77.929 94.1699 82.5446C91.2958 87.1602 91.5577 91.9068 92.0814 94.2834C92.6052 96.6599 93.908 103.777 92.0814 111.423C92.0814 111.423 90.2548 112.216 88.0943 111.423C88.0943 111.423 82.5424 98.7681 82.2806 90.9837C82.0187 83.2058 85.2856 72.6521 85.2856 72.6521C85.2856 72.6521 91.8326 74.6162 96.134 72.2789Z" fill="black"/>
<path d="M61.1575 47.4395C61.3408 47.3217 61.4586 47.1318 61.4914 46.9158C61.6027 46.1891 61.7533 44.4869 60.9545 43.4983C59.9201 42.215 58.1393 41.7044 57.9364 42.0645C57.7269 42.4246 60.3653 44.7225 59.4749 46.0712C59.4749 46.0712 58.6631 46.3266 57.5043 45.3641C57.3406 45.2267 57.0918 45.3183 57.0525 45.5278C57.0002 45.8159 57.0263 46.2545 57.3406 46.8438C57.7465 47.6032 58.4798 48.1204 58.9446 48.3954C59.1934 48.5394 59.5011 48.5329 59.7433 48.3758L61.1575 47.4395Z" fill="white"/>
<path d="M59.3283 48.7161C59.1581 48.7161 58.9878 48.6703 58.8373 48.5852C58.2938 48.271 57.5671 47.7276 57.1481 46.9485C56.86 46.4116 56.7553 45.9206 56.8338 45.4885C56.8666 45.3117 56.9844 45.1742 57.1481 45.1153C57.3183 45.0564 57.5016 45.0826 57.6326 45.2004C58.4903 45.914 59.1188 45.9075 59.3283 45.8813C59.7342 45.1088 58.8503 43.9041 58.2546 43.0988C57.8159 42.5031 57.5933 42.2019 57.7373 41.9597C57.7897 41.868 57.901 41.7633 58.1564 41.7436C58.7914 41.6912 60.2121 42.2477 61.1156 43.3673C61.9733 44.4344 61.8096 46.2348 61.6983 46.955C61.659 47.23 61.5019 47.4788 61.2662 47.6294L59.8586 48.559C59.7015 48.6638 59.5181 48.7161 59.3283 48.7161ZM57.3249 45.5147C57.3183 45.5147 57.3052 45.5147 57.2987 45.5212C57.2856 45.5278 57.266 45.5409 57.2594 45.5671C57.2201 45.7962 57.2332 46.189 57.5278 46.7455C57.9141 47.4722 58.6474 47.9763 59.0533 48.212C59.2301 48.3168 59.4461 48.3102 59.6229 48.1989L61.0305 47.2693L61.1484 47.4526L61.0305 47.2693C61.1615 47.1842 61.2466 47.0467 61.2728 46.8895C61.3775 46.2218 61.5346 44.5654 60.7817 43.6357C59.8782 42.5096 58.4968 42.1102 58.1564 42.1692C58.2284 42.3132 58.4379 42.6013 58.6081 42.837C59.289 43.7666 60.3234 45.1677 59.6491 46.189L59.6098 46.2545L59.5378 46.2807C59.4985 46.2938 58.595 46.5622 57.3642 45.5343C57.3511 45.5147 57.338 45.5147 57.3249 45.5147Z" fill="black"/>
<path d="M102.485 67.6635C102.485 67.6635 106.99 67.2445 108.116 67.8926C109.242 68.5343 109.13 69.333 108.639 69.6734C108.26 69.9353 105.89 69.7716 104.849 69.68C104.764 69.6734 104.737 69.7847 104.809 69.8175C105.405 70.0793 106.374 70.5769 106.269 70.9959C106.119 71.6048 102.328 70.3871 102.328 70.3871L102.485 67.6635Z" fill="white"/>
<path d="M105.799 71.3821C104.804 71.3821 102.912 70.806 102.27 70.603L102.113 70.5507L102.284 67.467L102.467 67.4473C102.657 67.4277 107.056 67.0349 108.228 67.7027C109.06 68.1806 109.204 68.7044 109.217 68.9794C109.23 69.3198 109.066 69.6472 108.772 69.8567C108.483 70.0531 107.416 70.0924 105.59 69.9614C106.284 70.3477 106.578 70.7078 106.493 71.0613C106.474 71.1334 106.428 71.2316 106.303 71.3036C106.185 71.356 106.015 71.3821 105.799 71.3821ZM102.565 70.2364C104.064 70.7078 105.76 71.0744 106.074 70.9239C106.055 70.8126 105.806 70.4852 104.739 70.0203C104.608 69.9614 104.536 69.8239 104.575 69.6799C104.608 69.5424 104.739 69.4508 104.883 69.4638C107.475 69.6864 108.398 69.5882 108.529 69.4966C108.706 69.3722 108.798 69.1954 108.791 68.999C108.778 68.6847 108.503 68.3574 108.025 68.0824C107.194 67.6045 104.064 67.755 102.709 67.8663L102.565 70.2364Z" fill="black"/>
<path d="M92.7375 63.7348C91.2579 58.458 88.9075 51.4265 84.8156 50.3724L84.8811 47.1775C84.8811 47.1775 77.5747 48.5327 76.9985 52.69C73.7839 53.5346 70.3271 53.2662 67.2369 51.7669C65.3907 50.87 63.4921 48.847 61.6589 46.8174L58.6211 48.7946C58.6211 48.7946 64.9651 64.3568 79.2507 60.0489C79.2507 60.0489 83.6241 63.3355 83.0152 71.5127C83.0152 71.5127 88.7962 76.2265 96.7312 71.9382C96.7181 71.9317 94.2171 69.0052 92.7375 63.7348Z" fill="#FFDD2D"/>
<path d="M103.187 67.0541L102.86 71.0739C102.86 71.0739 91.6909 77.7125 83.1602 57.7573L90.4732 57.011C90.4732 57.011 93.0003 64.8346 103.187 67.0541Z" fill="#FFDD2D"/>
<path d="M96.5986 72.4032C96.579 72.4032 96.5659 72.4032 96.5462 72.3966C89.9534 70.8319 87.3608 67.3227 85.2855 64.5075C85.2134 64.4093 85.2331 64.2719 85.3313 64.2064C85.4295 64.1344 85.5604 64.154 85.6324 64.2522C87.6686 67.0085 90.2088 70.4456 96.6444 71.9711C96.7623 71.9973 96.8343 72.1151 96.8081 72.2329C96.7885 72.3377 96.6968 72.4032 96.5986 72.4032Z" fill="black"/>
<path d="M81.7136 55.3416C81.5958 55.3416 81.5041 55.2499 81.4976 55.1321C81.347 51.3217 83.0754 48.7095 83.1474 48.6047C83.2129 48.5065 83.3504 48.4803 83.4486 48.5458C83.5468 48.6113 83.573 48.7487 83.5075 48.8469C83.4879 48.8731 81.7791 51.4527 81.9297 55.119C81.9362 55.2368 81.8446 55.3416 81.7202 55.3416C81.7202 55.3416 81.7202 55.3416 81.7136 55.3416Z" fill="black"/>
<path d="M79.0222 59.9966C78.9699 59.9966 78.9175 59.977 78.8782 59.9442C76.8879 58.1569 76.9534 56.2517 76.9534 56.1666C76.9599 56.0488 77.0581 55.9505 77.1825 55.9571C77.3004 55.9636 77.392 56.0618 77.392 56.1862C77.392 56.2059 77.3462 57.9801 79.1728 59.6169C79.2645 59.6955 79.271 59.8329 79.1925 59.9246C79.1401 59.9704 79.0812 59.9966 79.0222 59.9966Z" fill="black"/>
<path d="M75.8349 43.7404C75.8349 43.7404 73.8446 43.328 74.041 44.6046C74.2374 45.8747 74.3094 48.8798 75.3242 49.2464C76.3455 49.6131 77.4585 48.1727 78.1591 48.8143C78.8596 49.4559 79.3441 50.4184 79.6911 51.6034C79.9006 51.6819 80.3458 51.7998 80.863 51.6754C81.9105 51.42 82.323 50.3791 82.3623 50.2743C82.1004 49.9994 81.8319 49.672 81.5635 49.2857C81.1445 48.6834 80.6797 47.8716 80.5094 47.0205L75.8349 43.7404Z" fill="white"/>
<path d="M80.4136 51.9438C80.0994 51.9438 79.8244 51.8783 79.628 51.8063L79.5232 51.767L79.4905 51.6623C79.1304 50.4249 78.6525 49.5476 78.0174 48.9715C77.7752 48.7489 77.4413 48.8929 76.911 49.1482C76.4069 49.3905 75.8307 49.6589 75.2546 49.4559C74.3118 49.1155 74.1089 47.1514 73.9387 45.5735C73.8994 45.2266 73.8666 44.8927 73.8274 44.6439C73.7619 44.1987 73.9256 43.9368 74.0696 43.7993C74.5999 43.2952 75.7456 43.5112 75.8766 43.5374L75.9224 43.544L80.7148 46.8961L80.7344 46.9812C80.8981 47.8192 81.376 48.631 81.7492 49.1613C82.0045 49.528 82.2664 49.8553 82.5283 50.1237L82.6199 50.2219L82.5741 50.3463C82.5283 50.4773 82.0765 51.6034 80.9243 51.8849C80.741 51.9242 80.5707 51.9438 80.4136 51.9438ZM79.8702 51.4266C80.1125 51.4986 80.4464 51.551 80.8195 51.4593C81.5921 51.2695 81.9783 50.6017 82.1158 50.3136C81.8736 50.0517 81.6314 49.744 81.3957 49.4036C80.8457 48.6114 80.4856 47.8519 80.3285 47.1448L75.7522 43.9433C75.4314 43.8844 74.6719 43.8189 74.3773 44.107C74.266 44.2118 74.2333 44.3623 74.2595 44.5719C74.2987 44.8337 74.338 45.1676 74.3708 45.5212C74.5017 46.7455 74.7177 48.7947 75.3986 49.0369C75.8045 49.181 76.2694 48.9649 76.7211 48.7489C77.2449 48.5001 77.8407 48.2186 78.312 48.6441C78.9798 49.2595 79.4905 50.1761 79.8702 51.4266Z" fill="black"/>
<path d="M75.9986 47.1186C75.9069 47.1186 75.8284 47.0662 75.7956 46.9745C75.7563 46.8632 75.8153 46.7388 75.9266 46.693C76.4176 46.5162 76.5813 45.8091 76.5289 45.233C76.4765 44.7354 76.2867 44.4081 76.123 44.3819C75.6254 44.3033 75.3897 45.3247 75.3897 45.3312C75.3635 45.4491 75.2522 45.5211 75.1344 45.4949C75.0165 45.4687 74.9445 45.3574 74.9642 45.2396C75.0755 44.7092 75.4617 43.8385 76.1884 43.9498C76.5878 44.0087 76.8955 44.4932 76.961 45.1872C77.0396 45.9532 76.7908 46.837 76.0772 47.0989C76.0444 47.112 76.0182 47.1186 75.9986 47.1186Z" fill="black"/>
<path d="M75.3616 44.7486C75.3616 44.7486 73.3189 45.1283 73.3844 43.1053C73.4498 41.0823 74.8836 39.0985 78.7136 39.8907C78.7136 39.8907 79.5844 37.2326 81.8038 37.9986C84.0233 38.7646 83.3031 42.2607 81.0836 42.5684C81.0836 42.5684 82.943 45.986 80.5795 47.2299C79.9838 47.5442 79.2898 47.6031 78.6285 47.4591C77.928 47.3085 77.031 46.9615 76.6644 46.1693C76.6644 46.1693 76.9852 44.5456 76.3632 44.2117C75.7478 43.8909 75.3616 44.7486 75.3616 44.7486Z" fill="black"/>
<path d="M8.31599 39.1707C8.29635 39.1707 8.27016 39.1641 8.25052 39.1576C8.13922 39.1183 8.07375 39.0004 8.11303 38.8826C8.13922 38.7975 10.8824 30.4435 16.2313 24.034C16.3099 23.9424 16.4474 23.9293 16.539 24.0078C16.6307 24.0864 16.6438 24.2239 16.5652 24.3155C11.2621 30.6596 8.55168 38.935 8.51895 39.0201C8.49276 39.1117 8.40765 39.1707 8.31599 39.1707Z" fill="black"/>
<path d="M7.64005 32.8856C7.60731 32.8856 7.57458 32.879 7.54184 32.866C7.43709 32.8136 7.39126 32.6826 7.44364 32.5779C7.47637 32.5059 11.0576 25.35 16.413 20.6231C16.5047 20.5445 16.6422 20.551 16.7208 20.6427C16.7993 20.7344 16.7928 20.8718 16.7011 20.9504C11.4111 25.625 7.86919 32.7023 7.83646 32.7743C7.79718 32.8398 7.71861 32.8856 7.64005 32.8856Z" fill="black"/>
<path d="M101.352 10.5471C100.815 10.5471 100.383 10.1085 100.383 9.56506C100.383 9.02166 100.821 8.58301 101.352 8.58301C101.889 8.58301 102.321 9.02166 102.321 9.56506C102.321 10.1085 101.889 10.5471 101.352 10.5471ZM101.352 9.0282C101.057 9.0282 100.815 9.27044 100.815 9.5716C100.815 9.87277 101.057 10.115 101.352 10.115C101.646 10.115 101.889 9.87277 101.889 9.5716C101.889 9.27044 101.646 9.0282 101.352 9.0282Z" fill="black"/>
<path d="M83.5658 23.2025C82.7278 23.2025 82.0469 22.515 82.0469 21.6705C82.0469 20.8259 82.7278 20.1385 83.5658 20.1385C84.4038 20.1385 85.0847 20.8259 85.0847 21.6705C85.0847 22.515 84.4038 23.2025 83.5658 23.2025ZM83.5658 20.5706C82.97 20.5706 82.479 21.0616 82.479 21.6705C82.479 22.2728 82.9635 22.7704 83.5658 22.7704C84.1616 22.7704 84.6526 22.2794 84.6526 21.6705C84.6526 21.0616 84.1681 20.5706 83.5658 20.5706Z" fill="#99B9FF"/>
<path d="M33.5222 110.134C32.6122 110.134 31.8789 109.387 31.8789 108.477C31.8789 107.561 32.6187 106.821 33.5222 106.821C34.4322 106.821 35.1654 107.567 35.1654 108.477C35.1654 109.387 34.4322 110.134 33.5222 110.134ZM33.5222 107.246C32.8544 107.246 32.311 107.796 32.311 108.471C32.311 109.145 32.8544 109.695 33.5222 109.695C34.19 109.695 34.7333 109.145 34.7333 108.471C34.7333 107.796 34.19 107.246 33.5222 107.246Z" fill="black"/>
<path d="M63.7908 3.5812C63.3259 3.5812 62.8873 3.41753 62.5272 3.10327L61.7743 2.44202C61.2636 1.99028 60.5173 1.951 59.9542 2.33727L58.2651 3.50918C58.1669 3.57465 58.0294 3.55501 57.9639 3.45681C57.8985 3.3586 57.9181 3.22112 58.0163 3.15565L59.7054 1.98373C60.4322 1.47961 61.4011 1.53854 62.0624 2.12122L62.8153 2.78247C63.123 3.05744 63.5223 3.18183 63.9283 3.1491C64.3407 3.10982 64.7074 2.91341 64.9627 2.58606C65.6174 1.75459 66.7828 1.60401 67.6273 2.23907L68.8385 3.15565C68.9367 3.22766 68.9498 3.36515 68.8778 3.45681C68.8058 3.55501 68.6683 3.56811 68.5766 3.49609L67.3654 2.57951C66.7173 2.08849 65.8138 2.20633 65.3031 2.84794C64.9758 3.26695 64.4979 3.52883 63.9675 3.57465C63.9086 3.5812 63.8497 3.5812 63.7908 3.5812Z" fill="black"/>
<path d="M5.78156 23.0848C5.76847 23.0848 5.75537 23.0848 5.74228 23.0782C5.62443 23.0586 5.54587 22.9408 5.56551 22.8229L5.91905 20.9112C6.06963 20.0863 6.75706 19.4709 7.58853 19.4119L8.52475 19.3465C8.90448 19.3203 9.25147 19.1435 9.49371 18.8489C9.7425 18.5477 9.85379 18.1746 9.80797 17.7817C9.69667 16.7866 10.3776 15.8897 11.3596 15.7522L12.7738 15.5492C12.8916 15.5296 13.0029 15.6147 13.0225 15.7325C13.0422 15.8504 12.9571 15.9617 12.8392 15.9813L11.4251 16.1843C10.6722 16.2956 10.155 16.9765 10.2401 17.7359C10.299 18.24 10.1484 18.7376 9.82761 19.1304C9.5068 19.5167 9.05506 19.7458 8.55749 19.7851L7.62127 19.8506C6.98621 19.8964 6.46899 20.3678 6.35115 20.9963L5.99761 22.908C5.97142 23.0128 5.87976 23.0848 5.78156 23.0848Z" fill="black"/>
<path d="M109.511 12.8385C109.452 12.8385 109.4 12.8189 109.354 12.7731L108.915 12.3344C108.83 12.2493 108.83 12.1118 108.915 12.0267C109.001 11.9416 109.138 11.9416 109.223 12.0267L109.662 12.4654C109.747 12.5505 109.747 12.688 109.662 12.7731C109.623 12.8124 109.564 12.8385 109.511 12.8385Z" fill="black"/>
<path d="M111.035 14.3771C110.976 14.3771 110.923 14.3575 110.878 14.3117L110.439 13.873C110.354 13.7879 110.354 13.6504 110.439 13.5653C110.524 13.4802 110.661 13.4802 110.747 13.5653L111.185 14.0039C111.27 14.0891 111.27 14.2265 111.185 14.3117C111.146 14.3575 111.087 14.3771 111.035 14.3771Z" fill="black"/>
<path d="M109.07 14.3771C109.018 14.3771 108.959 14.3575 108.919 14.3117C108.834 14.2265 108.834 14.0891 108.919 14.0039L109.358 13.5653C109.443 13.4802 109.581 13.4802 109.666 13.5653C109.751 13.6504 109.751 13.7879 109.666 13.873L109.227 14.3117C109.181 14.3575 109.129 14.3771 109.07 14.3771Z" fill="black"/>
<path d="M110.601 12.8385C110.549 12.8385 110.49 12.8189 110.451 12.7731C110.365 12.688 110.365 12.5505 110.451 12.4654L110.889 12.0267C110.974 11.9416 111.112 11.9416 111.197 12.0267C111.282 12.1118 111.282 12.2493 111.197 12.3344L110.758 12.7731C110.712 12.8124 110.66 12.8385 110.601 12.8385Z" fill="black"/>
<path d="M10.8293 69.6013C10.7704 69.6013 10.718 69.5816 10.6722 69.5358L10.1615 69.0251C10.0764 68.94 10.0764 68.8025 10.1615 68.7174C10.2466 68.6323 10.3841 68.6323 10.4692 68.7174L10.9799 69.2281C11.065 69.3132 11.065 69.4507 10.9799 69.5358C10.9406 69.5816 10.8882 69.6013 10.8293 69.6013Z" fill="black"/>
<path d="M12.6105 71.3952C12.5516 71.3952 12.4992 71.3756 12.4534 71.3298L11.9427 70.8191C11.8576 70.734 11.8576 70.5965 11.9427 70.5114C12.0279 70.4263 12.1653 70.4263 12.2505 70.5114L12.7611 71.0221C12.8462 71.1072 12.8462 71.2447 12.7611 71.3298C12.7218 71.3756 12.6629 71.3952 12.6105 71.3952Z" fill="black"/>
<path d="M10.3277 71.3952C10.2753 71.3952 10.2164 71.3756 10.1771 71.3297C10.092 71.2446 10.092 71.1071 10.1771 71.022L10.6878 70.5113C10.7729 70.4262 10.9104 70.4262 10.9955 70.5113C11.0806 70.5965 11.0806 70.7339 10.9955 70.8191L10.4848 71.3297C10.439 71.3756 10.3801 71.3952 10.3277 71.3952Z" fill="black"/>
<path d="M12.0972 69.6013C12.0449 69.6013 11.9859 69.5816 11.9466 69.5358C11.8615 69.4507 11.8615 69.3132 11.9466 69.2281L12.4573 68.7174C12.5424 68.6323 12.6799 68.6323 12.765 68.7174C12.8501 68.8025 12.8501 68.94 12.765 69.0251L12.2544 69.5358C12.2085 69.5816 12.1562 69.6013 12.0972 69.6013Z" fill="black"/>
<path d="M74.0474 102.847C73.9885 102.847 73.9361 102.827 73.8903 102.781L73.013 101.891C72.9279 101.806 72.9279 101.668 73.013 101.583C73.0982 101.498 73.2356 101.498 73.3207 101.583L74.198 102.474C74.2831 102.559 74.2831 102.696 74.198 102.781C74.1587 102.827 74.0998 102.847 74.0474 102.847Z" fill="black"/>
<path d="M77.1294 105.957C77.0705 105.957 77.0181 105.937 76.9723 105.891L76.0951 105.001C76.01 104.916 76.01 104.778 76.0951 104.693C76.1802 104.608 76.3177 104.608 76.4028 104.693L77.28 105.583C77.3651 105.669 77.3651 105.806 77.28 105.891C77.2407 105.937 77.1818 105.957 77.1294 105.957Z" fill="black"/>
<path d="M73.1675 105.957C73.1152 105.957 73.0562 105.937 73.017 105.891C72.9318 105.806 72.9318 105.669 73.017 105.584L73.8943 104.693C73.9794 104.608 74.1169 104.608 74.202 104.693C74.2871 104.778 74.2871 104.916 74.202 105.001L73.3247 105.891C73.2788 105.937 73.2199 105.957 73.1675 105.957Z" fill="black"/>
<path d="M76.2456 102.847C76.1933 102.847 76.1344 102.827 76.0951 102.781C76.01 102.696 76.01 102.559 76.0951 102.474L76.9723 101.583C77.0574 101.498 77.1949 101.498 77.28 101.583C77.3651 101.668 77.3651 101.806 77.28 101.891L76.4028 102.781C76.3569 102.827 76.3046 102.847 76.2456 102.847Z" fill="black"/>
</svg>
